STARTFONT 2.1
COMMENT
COMMENT Converted from OpenType font "BoutiqueBitmap7x7_1.7.ttf" by "otf2bdf 3.0".
COMMENT
FONT -FreeType-BoutiqueBitmap7x7 1.7-Medium-R-Normal--8-60-100-100-P-72-ISO10646-1
SIZE 6 100 100
FONTBOUNDINGBOX 17 14 -1 -4
STARTPROPERTIES 19
FOUNDRY "FreeType"
FAMILY_NAME "BoutiqueBitmap7x7 1.7"
WEIGHT_NAME "Medium"
SLANT "R"
SETWIDTH_NAME "Normal"
ADD_STYLE_NAME ""
PIXEL_SIZE 8
POINT_SIZE 60
RESOLUTION_X 100
RESOLUTION_Y 100
SPACING "P"
AVERAGE_WIDTH 72
CHARSET_REGISTRY "ISO10646"
CHARSET_ENCODING "1"
FONT_ASCENT 6
FONT_DESCENT 2
COPYRIGHT "[BoutiqueBitmap7x7]  Copyright © 2022 W"
_OTF_FONTFILE "BoutiqueBitmap7x7_1.7.ttf"
_OTF_PSNAME "BoutiqueBitmap7x7_1.7"
ENDPROPERTIES
CHARS 15263
STARTCHAR 0000
ENCODING 0
SWIDTH 0 0
DWIDTH 0 0
BBX 0 0 0 0
BITMAP
ENDCHAR
STARTCHAR 001D
ENCODING 29
SWIDTH 0 0
DWIDTH 0 0
BBX 0 0 0 0
BITMAP
ENDCHAR
STARTCHAR 0020
ENCODING 32
SWIDTH 360 0
DWIDTH 3 0
BBX 0 0 0 0
BITMAP
ENDCHAR
STARTCHAR 0021
ENCODING 33
SWIDTH 480 0
DWIDTH 4 0
BBX 1 6 1 0
BITMAP
80
80
80
80
00
80
ENDCHAR
STARTCHAR 0022
ENCODING 34
SWIDTH 480 0
DWIDTH 4 0
BBX 3 2 0 4
BITMAP
A0
A0
ENDCHAR
STARTCHAR 0023
ENCODING 35
SWIDTH 720 0
DWIDTH 6 0
BBX 5 6 0 0
BITMAP
50
F8
50
50
F8
50
ENDCHAR
STARTCHAR 0024
ENCODING 36
SWIDTH 480 0
DWIDTH 4 0
BBX 3 6 0 0
BITMAP
40
E0
C0
60
E0
40
ENDCHAR
STARTCHAR 0025
ENCODING 37
SWIDTH 720 0
DWIDTH 6 0
BBX 5 6 0 0
BITMAP
C8
D0
20
20
58
98
ENDCHAR
STARTCHAR 0026
ENCODING 38
SWIDTH 840 0
DWIDTH 7 0
BBX 6 6 0 0
BITMAP
40
A0
48
A8
90
6C
ENDCHAR
STARTCHAR 0027
ENCODING 39
SWIDTH 360 0
DWIDTH 3 0
BBX 2 2 0 4
BITMAP
40
80
ENDCHAR
STARTCHAR 0028
ENCODING 40
SWIDTH 480 0
DWIDTH 4 0
BBX 2 7 1 -1
BITMAP
40
80
80
80
80
80
40
ENDCHAR
STARTCHAR 0029
ENCODING 41
SWIDTH 480 0
DWIDTH 4 0
BBX 2 7 0 -1
BITMAP
80
40
40
40
40
40
80
ENDCHAR
STARTCHAR 002A
ENCODING 42
SWIDTH 480 0
DWIDTH 4 0
BBX 3 4 0 2
BITMAP
40
E0
40
A0
ENDCHAR
STARTCHAR 002B
ENCODING 43
SWIDTH 480 0
DWIDTH 4 0
BBX 3 5 0 0
BITMAP
40
40
E0
40
40
ENDCHAR
STARTCHAR 002C
ENCODING 44
SWIDTH 360 0
DWIDTH 3 0
BBX 2 2 0 -1
BITMAP
40
80
ENDCHAR
STARTCHAR 002D
ENCODING 45
SWIDTH 480 0
DWIDTH 4 0
BBX 3 1 0 2
BITMAP
E0
ENDCHAR
STARTCHAR 002E
ENCODING 46
SWIDTH 240 0
DWIDTH 2 0
BBX 1 1 0 0
BITMAP
80
ENDCHAR
STARTCHAR 002F
ENCODING 47
SWIDTH 480 0
DWIDTH 4 0
BBX 3 6 0 0
BITMAP
20
20
40
40
80
80
ENDCHAR
STARTCHAR 0030
ENCODING 48
SWIDTH 480 0
DWIDTH 4 0
BBX 3 6 0 0
BITMAP
40
A0
A0
A0
A0
40
ENDCHAR
STARTCHAR 0031
ENCODING 49
SWIDTH 480 0
DWIDTH 4 0
BBX 2 6 0 0
BITMAP
40
C0
40
40
40
40
ENDCHAR
STARTCHAR 0032
ENCODING 50
SWIDTH 480 0
DWIDTH 4 0
BBX 3 6 0 0
BITMAP
C0
20
20
40
80
E0
ENDCHAR
STARTCHAR 0033
ENCODING 51
SWIDTH 480 0
DWIDTH 4 0
BBX 3 6 0 0
BITMAP
C0
20
40
20
20
C0
ENDCHAR
STARTCHAR 0034
ENCODING 52
SWIDTH 480 0
DWIDTH 4 0
BBX 3 6 0 0
BITMAP
20
60
A0
A0
E0
20
ENDCHAR
STARTCHAR 0035
ENCODING 53
SWIDTH 480 0
DWIDTH 4 0
BBX 3 6 0 0
BITMAP
E0
80
C0
20
20
C0
ENDCHAR
STARTCHAR 0036
ENCODING 54
SWIDTH 480 0
DWIDTH 4 0
BBX 3 6 0 0
BITMAP
40
80
C0
A0
A0
40
ENDCHAR
STARTCHAR 0037
ENCODING 55
SWIDTH 480 0
DWIDTH 4 0
BBX 3 6 0 0
BITMAP
E0
20
20
40
40
40
ENDCHAR
STARTCHAR 0038
ENCODING 56
SWIDTH 480 0
DWIDTH 4 0
BBX 3 6 0 0
BITMAP
40
A0
40
A0
A0
40
ENDCHAR
STARTCHAR 0039
ENCODING 57
SWIDTH 480 0
DWIDTH 4 0
BBX 3 6 0 0
BITMAP
40
A0
A0
60
20
40
ENDCHAR
STARTCHAR 003A
ENCODING 58
SWIDTH 480 0
DWIDTH 4 0
BBX 1 4 1 0
BITMAP
80
00
00
80
ENDCHAR
STARTCHAR 003B
ENCODING 59
SWIDTH 480 0
DWIDTH 4 0
BBX 2 5 0 -1
BITMAP
40
00
00
40
80
ENDCHAR
STARTCHAR 003C
ENCODING 60
SWIDTH 480 0
DWIDTH 4 0
BBX 3 5 0 0
BITMAP
20
40
80
40
20
ENDCHAR
STARTCHAR 003D
ENCODING 61
SWIDTH 480 0
DWIDTH 4 0
BBX 3 3 0 1
BITMAP
E0
00
E0
ENDCHAR
STARTCHAR 003E
ENCODING 62
SWIDTH 480 0
DWIDTH 4 0
BBX 3 5 0 0
BITMAP
80
40
20
40
80
ENDCHAR
STARTCHAR 003F
ENCODING 63
SWIDTH 480 0
DWIDTH 4 0
BBX 3 6 0 0
BITMAP
40
A0
20
40
00
40
ENDCHAR
STARTCHAR 0040
ENCODING 64
SWIDTH 720 0
DWIDTH 6 0
BBX 5 6 0 0
BITMAP
70
88
B8
D8
D0
B0
ENDCHAR
STARTCHAR 0041
ENCODING 65
SWIDTH 600 0
DWIDTH 5 0
BBX 4 6 0 0
BITMAP
20
50
90
F0
90
90
ENDCHAR
STARTCHAR 0042
ENCODING 66
SWIDTH 600 0
DWIDTH 5 0
BBX 4 6 0 0
BITMAP
E0
90
E0
90
90
E0
ENDCHAR
STARTCHAR 0043
ENCODING 67
SWIDTH 600 0
DWIDTH 5 0
BBX 4 6 0 0
BITMAP
20
50
80
80
90
60
ENDCHAR
STARTCHAR 0044
ENCODING 68
SWIDTH 600 0
DWIDTH 5 0
BBX 4 6 0 0
BITMAP
C0
A0
90
90
90
E0
ENDCHAR
STARTCHAR 0045
ENCODING 69
SWIDTH 600 0
DWIDTH 5 0
BBX 4 6 0 0
BITMAP
F0
80
E0
80
80
F0
ENDCHAR
STARTCHAR 0046
ENCODING 70
SWIDTH 600 0
DWIDTH 5 0
BBX 4 6 0 0
BITMAP
F0
80
E0
80
80
80
ENDCHAR
STARTCHAR 0047
ENCODING 71
SWIDTH 600 0
DWIDTH 5 0
BBX 4 6 0 0
BITMAP
20
50
80
B0
90
60
ENDCHAR
STARTCHAR 0048
ENCODING 72
SWIDTH 600 0
DWIDTH 5 0
BBX 4 6 0 0
BITMAP
90
90
F0
90
90
90
ENDCHAR
STARTCHAR 0049
ENCODING 73
SWIDTH 240 0
DWIDTH 2 0
BBX 1 6 0 0
BITMAP
80
80
80
80
80
80
ENDCHAR
STARTCHAR 004A
ENCODING 74
SWIDTH 600 0
DWIDTH 5 0
BBX 4 6 0 0
BITMAP
70
20
20
20
A0
40
ENDCHAR
STARTCHAR 004B
ENCODING 75
SWIDTH 600 0
DWIDTH 5 0
BBX 4 6 0 0
BITMAP
90
A0
C0
A0
90
90
ENDCHAR
STARTCHAR 004C
ENCODING 76
SWIDTH 600 0
DWIDTH 5 0
BBX 4 6 0 0
BITMAP
80
80
80
80
80
F0
ENDCHAR
STARTCHAR 004D
ENCODING 77
SWIDTH 720 0
DWIDTH 6 0
BBX 5 6 0 0
BITMAP
88
D8
A8
A8
88
88
ENDCHAR
STARTCHAR 004E
ENCODING 78
SWIDTH 600 0
DWIDTH 5 0
BBX 4 6 0 0
BITMAP
90
D0
B0
90
90
90
ENDCHAR
STARTCHAR 004F
ENCODING 79
SWIDTH 600 0
DWIDTH 5 0
BBX 4 6 0 0
BITMAP
20
50
90
90
90
60
ENDCHAR
STARTCHAR 0050
ENCODING 80
SWIDTH 600 0
DWIDTH 5 0
BBX 4 6 0 0
BITMAP
E0
90
90
E0
80
80
ENDCHAR
STARTCHAR 0051
ENCODING 81
SWIDTH 720 0
DWIDTH 6 0
BBX 5 6 0 0
BITMAP
30
48
88
A8
90
68
ENDCHAR
STARTCHAR 0052
ENCODING 82
SWIDTH 600 0
DWIDTH 5 0
BBX 4 6 0 0
BITMAP
E0
90
90
E0
90
90
ENDCHAR
STARTCHAR 0053
ENCODING 83
SWIDTH 600 0
DWIDTH 5 0
BBX 4 6 0 0
BITMAP
60
80
60
10
90
60
ENDCHAR
STARTCHAR 0054
ENCODING 84
SWIDTH 720 0
DWIDTH 6 0
BBX 5 6 0 0
BITMAP
F8
20
20
20
20
20
ENDCHAR
STARTCHAR 0055
ENCODING 85
SWIDTH 600 0
DWIDTH 5 0
BBX 4 6 0 0
BITMAP
90
90
90
90
90
60
ENDCHAR
STARTCHAR 0056
ENCODING 86
SWIDTH 600 0
DWIDTH 5 0
BBX 4 6 0 0
BITMAP
90
90
90
90
A0
40
ENDCHAR
STARTCHAR 0057
ENCODING 87
SWIDTH 720 0
DWIDTH 6 0
BBX 5 6 0 0
BITMAP
88
88
A8
A8
A8
50
ENDCHAR
STARTCHAR 0058
ENCODING 88
SWIDTH 600 0
DWIDTH 5 0
BBX 4 6 0 0
BITMAP
90
90
60
90
90
90
ENDCHAR
STARTCHAR 0059
ENCODING 89
SWIDTH 600 0
DWIDTH 5 0
BBX 4 6 0 0
BITMAP
90
90
70
10
20
C0
ENDCHAR
STARTCHAR 005A
ENCODING 90
SWIDTH 600 0
DWIDTH 5 0
BBX 4 6 0 0
BITMAP
F0
10
20
40
80
F0
ENDCHAR
STARTCHAR 005B
ENCODING 91
SWIDTH 480 0
DWIDTH 4 0
BBX 2 7 1 -1
BITMAP
C0
80
80
80
80
80
C0
ENDCHAR
STARTCHAR 005C
ENCODING 92
SWIDTH 480 0
DWIDTH 4 0
BBX 3 6 0 0
BITMAP
80
80
40
40
20
20
ENDCHAR
STARTCHAR 005D
ENCODING 93
SWIDTH 480 0
DWIDTH 4 0
BBX 2 7 0 -1
BITMAP
C0
40
40
40
40
40
C0
ENDCHAR
STARTCHAR 005E
ENCODING 94
SWIDTH 480 0
DWIDTH 4 0
BBX 3 2 0 4
BITMAP
40
A0
ENDCHAR
STARTCHAR 005F
ENCODING 95
SWIDTH 480 0
DWIDTH 4 0
BBX 3 1 0 -1
BITMAP
E0
ENDCHAR
STARTCHAR 0060
ENCODING 96
SWIDTH 480 0
DWIDTH 4 0
BBX 2 2 1 4
BITMAP
80
40
ENDCHAR
STARTCHAR 0061
ENCODING 97
SWIDTH 480 0
DWIDTH 4 0
BBX 3 4 0 0
BITMAP
60
A0
A0
60
ENDCHAR
STARTCHAR 0062
ENCODING 98
SWIDTH 480 0
DWIDTH 4 0
BBX 3 6 0 0
BITMAP
80
80
C0
A0
A0
C0
ENDCHAR
STARTCHAR 0063
ENCODING 99
SWIDTH 480 0
DWIDTH 4 0
BBX 3 4 0 0
BITMAP
60
80
80
60
ENDCHAR
STARTCHAR 0064
ENCODING 100
SWIDTH 480 0
DWIDTH 4 0
BBX 3 6 0 0
BITMAP
20
20
60
A0
A0
60
ENDCHAR
STARTCHAR 0065
ENCODING 101
SWIDTH 480 0
DWIDTH 4 0
BBX 3 4 0 0
BITMAP
60
E0
80
60
ENDCHAR
STARTCHAR 0066
ENCODING 102
SWIDTH 480 0
DWIDTH 4 0
BBX 3 6 0 0
BITMAP
60
40
E0
40
40
40
ENDCHAR
STARTCHAR 0067
ENCODING 103
SWIDTH 480 0
DWIDTH 4 0
BBX 3 5 0 -1
BITMAP
60
A0
60
20
C0
ENDCHAR
STARTCHAR 0068
ENCODING 104
SWIDTH 480 0
DWIDTH 4 0
BBX 3 6 0 0
BITMAP
80
80
C0
A0
A0
A0
ENDCHAR
STARTCHAR 0069
ENCODING 105
SWIDTH 240 0
DWIDTH 2 0
BBX 1 6 0 0
BITMAP
80
00
80
80
80
80
ENDCHAR
STARTCHAR 006A
ENCODING 106
SWIDTH 360 0
DWIDTH 3 0
BBX 2 7 0 -1
BITMAP
40
00
40
40
40
40
80
ENDCHAR
STARTCHAR 006B
ENCODING 107
SWIDTH 480 0
DWIDTH 4 0
BBX 3 6 0 0
BITMAP
80
80
A0
C0
A0
A0
ENDCHAR
STARTCHAR 006C
ENCODING 108
SWIDTH 240 0
DWIDTH 2 0
BBX 1 6 0 0
BITMAP
80
80
80
80
80
80
ENDCHAR
STARTCHAR 006D
ENCODING 109
SWIDTH 720 0
DWIDTH 6 0
BBX 5 4 0 0
BITMAP
D0
A8
A8
88
ENDCHAR
STARTCHAR 006E
ENCODING 110
SWIDTH 480 0
DWIDTH 4 0
BBX 3 4 0 0
BITMAP
C0
A0
A0
A0
ENDCHAR
STARTCHAR 006F
ENCODING 111
SWIDTH 480 0
DWIDTH 4 0
BBX 3 4 0 0
BITMAP
40
A0
A0
40
ENDCHAR
STARTCHAR 0070
ENCODING 112
SWIDTH 480 0
DWIDTH 4 0
BBX 3 5 0 -1
BITMAP
C0
A0
A0
C0
80
ENDCHAR
STARTCHAR 0071
ENCODING 113
SWIDTH 480 0
DWIDTH 4 0
BBX 3 5 0 -1
BITMAP
60
A0
A0
60
20
ENDCHAR
STARTCHAR 0072
ENCODING 114
SWIDTH 480 0
DWIDTH 4 0
BBX 3 4 0 0
BITMAP
A0
C0
80
80
ENDCHAR
STARTCHAR 0073
ENCODING 115
SWIDTH 480 0
DWIDTH 4 0
BBX 3 4 0 0
BITMAP
60
C0
60
C0
ENDCHAR
STARTCHAR 0074
ENCODING 116
SWIDTH 480 0
DWIDTH 4 0
BBX 3 5 0 0
BITMAP
40
E0
40
40
60
ENDCHAR
STARTCHAR 0075
ENCODING 117
SWIDTH 480 0
DWIDTH 4 0
BBX 3 4 0 0
BITMAP
A0
A0
A0
60
ENDCHAR
STARTCHAR 0076
ENCODING 118
SWIDTH 480 0
DWIDTH 4 0
BBX 3 4 0 0
BITMAP
A0
A0
C0
80
ENDCHAR
STARTCHAR 0077
ENCODING 119
SWIDTH 720 0
DWIDTH 6 0
BBX 5 4 0 0
BITMAP
88
A8
F0
A0
ENDCHAR
STARTCHAR 0078
ENCODING 120
SWIDTH 480 0
DWIDTH 4 0
BBX 3 4 0 0
BITMAP
A0
40
40
A0
ENDCHAR
STARTCHAR 0079
ENCODING 121
SWIDTH 480 0
DWIDTH 4 0
BBX 3 5 0 -1
BITMAP
A0
A0
60
20
C0
ENDCHAR
STARTCHAR 007A
ENCODING 122
SWIDTH 480 0
DWIDTH 4 0
BBX 3 4 0 0
BITMAP
E0
20
40
E0
ENDCHAR
STARTCHAR 007B
ENCODING 123
SWIDTH 480 0
DWIDTH 4 0
BBX 3 7 0 -1
BITMAP
20
40
40
80
40
40
20
ENDCHAR
STARTCHAR 007C
ENCODING 124
SWIDTH 480 0
DWIDTH 4 0
BBX 1 7 1 -1
BITMAP
80
80
80
80
80
80
80
ENDCHAR
STARTCHAR 007D
ENCODING 125
SWIDTH 480 0
DWIDTH 4 0
BBX 3 7 0 -1
BITMAP
80
40
40
20
40
40
80
ENDCHAR
STARTCHAR 007E
ENCODING 126
SWIDTH 600 0
DWIDTH 5 0
BBX 4 2 0 2
BITMAP
50
A0
ENDCHAR
STARTCHAR 00A0
ENCODING 160
SWIDTH 480 0
DWIDTH 4 0
BBX 0 0 0 0
BITMAP
ENDCHAR
STARTCHAR 00A1
ENCODING 161
SWIDTH 480 0
DWIDTH 4 0
BBX 1 6 1 -1
BITMAP
80
00
80
80
80
80
ENDCHAR
STARTCHAR 00A2
ENCODING 162
SWIDTH 480 0
DWIDTH 4 0
BBX 3 5 0 0
BITMAP
40
E0
C0
E0
40
ENDCHAR
STARTCHAR 00A3
ENCODING 163
SWIDTH 480 0
DWIDTH 4 0
BBX 3 6 0 0
BITMAP
60
40
E0
40
C0
E0
ENDCHAR
STARTCHAR 00A4
ENCODING 164
SWIDTH 960 0
DWIDTH 8 0
BBX 5 5 1 0
BITMAP
88
70
50
70
88
ENDCHAR
STARTCHAR 00A5
ENCODING 165
SWIDTH 480 0
DWIDTH 4 0
BBX 3 6 0 0
BITMAP
A0
40
E0
40
E0
40
ENDCHAR
STARTCHAR 00A6
ENCODING 166
SWIDTH 480 0
DWIDTH 4 0
BBX 1 7 1 -1
BITMAP
80
80
80
00
80
80
80
ENDCHAR
STARTCHAR 00A7
ENCODING 167
SWIDTH 960 0
DWIDTH 8 0
BBX 4 7 2 -1
BITMAP
70
80
60
90
60
10
E0
ENDCHAR
STARTCHAR 00A8
ENCODING 168
SWIDTH 960 0
DWIDTH 8 0
BBX 3 1 2 5
BITMAP
A0
ENDCHAR
STARTCHAR 00A9
ENCODING 169
SWIDTH 960 0
DWIDTH 8 0
BBX 7 7 0 -1
BITMAP
38
44
9A
A2
9A
44
38
ENDCHAR
STARTCHAR 00AA
ENCODING 170
SWIDTH 480 0
DWIDTH 4 0
BBX 3 5 0 1
BITMAP
60
A0
60
00
E0
ENDCHAR
STARTCHAR 00AB
ENCODING 171
SWIDTH 480 0
DWIDTH 4 0
BBX 3 5 0 0
BITMAP
20
60
C0
60
20
ENDCHAR
STARTCHAR 00AC
ENCODING 172
SWIDTH 480 0
DWIDTH 4 0
BBX 3 2 0 1
BITMAP
E0
20
ENDCHAR
STARTCHAR 00AD
ENCODING 173
SWIDTH 960 0
DWIDTH 8 0
BBX 2 1 3 2
BITMAP
C0
ENDCHAR
STARTCHAR 00AE
ENCODING 174
SWIDTH 480 0
DWIDTH 4 0
BBX 3 4 0 1
BITMAP
C0
A0
C0
A0
ENDCHAR
STARTCHAR 00AF
ENCODING 175
SWIDTH 480 0
DWIDTH 4 0
BBX 3 1 0 5
BITMAP
E0
ENDCHAR
STARTCHAR 00B0
ENCODING 176
SWIDTH 960 0
DWIDTH 8 0
BBX 4 4 0 2
BITMAP
60
90
90
60
ENDCHAR
STARTCHAR 00B1
ENCODING 177
SWIDTH 960 0
DWIDTH 8 0
BBX 7 7 0 -1
BITMAP
10
10
FE
10
10
00
FE
ENDCHAR
STARTCHAR 00B2
ENCODING 178
SWIDTH 480 0
DWIDTH 4 0
BBX 3 4 0 2
BITMAP
C0
20
40
E0
ENDCHAR
STARTCHAR 00B3
ENCODING 179
SWIDTH 480 0
DWIDTH 4 0
BBX 3 4 0 2
BITMAP
E0
40
20
C0
ENDCHAR
STARTCHAR 00B4
ENCODING 180
SWIDTH 960 0
DWIDTH 8 0
BBX 2 2 3 4
BITMAP
40
80
ENDCHAR
STARTCHAR 00B5
ENCODING 181
SWIDTH 480 0
DWIDTH 4 0
BBX 3 5 0 -1
BITMAP
A0
A0
A0
E0
80
ENDCHAR
STARTCHAR 00B6
ENCODING 182
SWIDTH 960 0
DWIDTH 8 0
BBX 5 7 1 -1
BITMAP
78
E8
E8
68
28
28
28
ENDCHAR
STARTCHAR 00B7
ENCODING 183
SWIDTH 960 0
DWIDTH 8 0
BBX 1 1 3 2
BITMAP
80
ENDCHAR
STARTCHAR 00B8
ENCODING 184
SWIDTH 480 0
DWIDTH 4 0
BBX 2 2 0 -1
BITMAP
40
C0
ENDCHAR
STARTCHAR 00B9
ENCODING 185
SWIDTH 480 0
DWIDTH 4 0
BBX 3 4 0 2
BITMAP
40
C0
40
E0
ENDCHAR
STARTCHAR 00BA
ENCODING 186
SWIDTH 480 0
DWIDTH 4 0
BBX 3 5 0 1
BITMAP
40
A0
40
00
E0
ENDCHAR
STARTCHAR 00BB
ENCODING 187
SWIDTH 480 0
DWIDTH 4 0
BBX 3 5 0 0
BITMAP
80
C0
60
C0
80
ENDCHAR
STARTCHAR 00BC
ENCODING 188
SWIDTH 480 0
DWIDTH 4 0
BBX 3 7 0 -1
BITMAP
80
80
80
20
60
E0
20
ENDCHAR
STARTCHAR 00BD
ENCODING 189
SWIDTH 480 0
DWIDTH 4 0
BBX 3 7 0 -1
BITMAP
80
80
00
60
20
40
60
ENDCHAR
STARTCHAR 00BE
ENCODING 190
SWIDTH 480 0
DWIDTH 4 0
BBX 3 7 0 -1
BITMAP
C0
40
C0
20
60
E0
20
ENDCHAR
STARTCHAR 00BF
ENCODING 191
SWIDTH 480 0
DWIDTH 4 0
BBX 3 6 0 -1
BITMAP
40
00
40
80
A0
40
ENDCHAR
STARTCHAR 00C0
ENCODING 192
SWIDTH 480 0
DWIDTH 4 0
BBX 3 7 0 0
BITMAP
80
40
00
40
A0
E0
A0
ENDCHAR
STARTCHAR 00C1
ENCODING 193
SWIDTH 480 0
DWIDTH 4 0
BBX 3 7 0 0
BITMAP
20
40
00
40
A0
E0
A0
ENDCHAR
STARTCHAR 00C2
ENCODING 194
SWIDTH 480 0
DWIDTH 4 0
BBX 3 7 0 0
BITMAP
40
A0
00
40
A0
E0
A0
ENDCHAR
STARTCHAR 00C3
ENCODING 195
SWIDTH 480 0
DWIDTH 4 0
BBX 3 7 0 0
BITMAP
C0
60
00
40
A0
E0
A0
ENDCHAR
STARTCHAR 00C4
ENCODING 196
SWIDTH 480 0
DWIDTH 4 0
BBX 3 6 0 0
BITMAP
A0
00
40
A0
E0
A0
ENDCHAR
STARTCHAR 00C5
ENCODING 197
SWIDTH 960 0
DWIDTH 8 0
BBX 5 7 1 -1
BITMAP
20
50
20
50
70
88
88
ENDCHAR
STARTCHAR 00C6
ENCODING 198
SWIDTH 480 0
DWIDTH 4 0
BBX 3 6 0 0
BITMAP
60
40
E0
C0
C0
E0
ENDCHAR
STARTCHAR 00C7
ENCODING 199
SWIDTH 480 0
DWIDTH 4 0
BBX 3 7 0 -1
BITMAP
60
80
80
80
80
60
C0
ENDCHAR
STARTCHAR 00C8
ENCODING 200
SWIDTH 480 0
DWIDTH 4 0
BBX 3 7 0 0
BITMAP
80
40
00
E0
C0
80
E0
ENDCHAR
STARTCHAR 00C9
ENCODING 201
SWIDTH 480 0
DWIDTH 4 0
BBX 3 7 0 0
BITMAP
20
40
00
E0
C0
80
E0
ENDCHAR
STARTCHAR 00CA
ENCODING 202
SWIDTH 480 0
DWIDTH 4 0
BBX 3 7 0 0
BITMAP
40
A0
00
E0
C0
80
E0
ENDCHAR
STARTCHAR 00CB
ENCODING 203
SWIDTH 480 0
DWIDTH 4 0
BBX 3 6 0 0
BITMAP
A0
00
E0
C0
80
E0
ENDCHAR
STARTCHAR 00CC
ENCODING 204
SWIDTH 480 0
DWIDTH 4 0
BBX 3 7 0 0
BITMAP
80
40
00
E0
40
40
E0
ENDCHAR
STARTCHAR 00CD
ENCODING 205
SWIDTH 480 0
DWIDTH 4 0
BBX 3 7 0 0
BITMAP
20
40
00
E0
40
40
E0
ENDCHAR
STARTCHAR 00CE
ENCODING 206
SWIDTH 480 0
DWIDTH 4 0
BBX 3 7 0 0
BITMAP
40
A0
00
E0
40
40
E0
ENDCHAR
STARTCHAR 00CF
ENCODING 207
SWIDTH 480 0
DWIDTH 4 0
BBX 3 6 0 0
BITMAP
A0
00
E0
40
40
E0
ENDCHAR
STARTCHAR 00D0
ENCODING 208
SWIDTH 480 0
DWIDTH 4 0
BBX 3 6 0 0
BITMAP
C0
A0
A0
E0
A0
C0
ENDCHAR
STARTCHAR 00D1
ENCODING 209
SWIDTH 480 0
DWIDTH 4 0
BBX 3 7 0 0
BITMAP
C0
60
00
C0
A0
A0
A0
ENDCHAR
STARTCHAR 00D2
ENCODING 210
SWIDTH 960 0
DWIDTH 8 0
BBX 5 7 1 -1
BITMAP
40
20
70
88
88
88
70
ENDCHAR
STARTCHAR 00D3
ENCODING 211
SWIDTH 960 0
DWIDTH 8 0
BBX 5 7 1 -1
BITMAP
10
20
70
88
88
88
70
ENDCHAR
STARTCHAR 00D4
ENCODING 212
SWIDTH 480 0
DWIDTH 4 0
BBX 3 7 0 0
BITMAP
40
A0
00
40
A0
A0
40
ENDCHAR
STARTCHAR 00D5
ENCODING 213
SWIDTH 480 0
DWIDTH 4 0
BBX 3 7 0 0
BITMAP
C0
60
00
40
A0
A0
40
ENDCHAR
STARTCHAR 00D6
ENCODING 214
SWIDTH 480 0
DWIDTH 4 0
BBX 3 6 0 0
BITMAP
A0
00
40
A0
A0
40
ENDCHAR
STARTCHAR 00D7
ENCODING 215
SWIDTH 960 0
DWIDTH 8 0
BBX 7 7 0 -1
BITMAP
82
44
28
10
28
44
82
ENDCHAR
STARTCHAR 00D8
ENCODING 216
SWIDTH 480 0
DWIDTH 4 0
BBX 3 6 0 0
BITMAP
20
C0
A0
A0
60
80
ENDCHAR
STARTCHAR 00D9
ENCODING 217
SWIDTH 480 0
DWIDTH 4 0
BBX 3 7 0 0
BITMAP
80
40
00
A0
A0
A0
E0
ENDCHAR
STARTCHAR 00DA
ENCODING 218
SWIDTH 480 0
DWIDTH 4 0
BBX 3 7 0 0
BITMAP
20
40
00
A0
A0
A0
E0
ENDCHAR
STARTCHAR 00DB
ENCODING 219
SWIDTH 480 0
DWIDTH 4 0
BBX 3 7 0 0
BITMAP
40
A0
00
A0
A0
A0
E0
ENDCHAR
STARTCHAR 00DC
ENCODING 220
SWIDTH 480 0
DWIDTH 4 0
BBX 3 6 0 0
BITMAP
A0
00
A0
A0
A0
E0
ENDCHAR
STARTCHAR 00DD
ENCODING 221
SWIDTH 480 0
DWIDTH 4 0
BBX 3 7 0 0
BITMAP
20
40
00
A0
A0
40
40
ENDCHAR
STARTCHAR 00DE
ENCODING 222
SWIDTH 480 0
DWIDTH 4 0
BBX 3 5 0 0
BITMAP
80
C0
A0
C0
80
ENDCHAR
STARTCHAR 00DF
ENCODING 223
SWIDTH 480 0
DWIDTH 4 0
BBX 3 6 0 0
BITMAP
40
A0
C0
A0
A0
C0
ENDCHAR
STARTCHAR 00E0
ENCODING 224
SWIDTH 480 0
DWIDTH 4 0
BBX 3 6 0 0
BITMAP
80
60
60
A0
A0
60
ENDCHAR
STARTCHAR 00E1
ENCODING 225
SWIDTH 480 0
DWIDTH 4 0
BBX 3 6 0 0
BITMAP
60
80
60
A0
A0
60
ENDCHAR
STARTCHAR 00E2
ENCODING 226
SWIDTH 480 0
DWIDTH 4 0
BBX 3 6 0 0
BITMAP
40
A0
00
60
A0
60
ENDCHAR
STARTCHAR 00E3
ENCODING 227
SWIDTH 480 0
DWIDTH 4 0
BBX 3 6 0 0
BITMAP
C0
60
00
60
A0
60
ENDCHAR
STARTCHAR 00E4
ENCODING 228
SWIDTH 480 0
DWIDTH 4 0
BBX 3 5 0 0
BITMAP
A0
00
60
A0
60
ENDCHAR
STARTCHAR 00E5
ENCODING 229
SWIDTH 480 0
DWIDTH 4 0
BBX 3 6 0 0
BITMAP
40
A0
40
60
A0
60
ENDCHAR
STARTCHAR 00E6
ENCODING 230
SWIDTH 480 0
DWIDTH 4 0
BBX 3 4 0 0
BITMAP
60
E0
C0
E0
ENDCHAR
STARTCHAR 00E7
ENCODING 231
SWIDTH 480 0
DWIDTH 4 0
BBX 3 5 0 -1
BITMAP
60
80
80
60
C0
ENDCHAR
STARTCHAR 00E8
ENCODING 232
SWIDTH 480 0
DWIDTH 4 0
BBX 3 6 0 0
BITMAP
80
60
60
E0
80
60
ENDCHAR
STARTCHAR 00E9
ENCODING 233
SWIDTH 480 0
DWIDTH 4 0
BBX 3 6 0 0
BITMAP
60
80
60
E0
80
60
ENDCHAR
STARTCHAR 00EA
ENCODING 234
SWIDTH 480 0
DWIDTH 4 0
BBX 3 6 0 0
BITMAP
40
A0
60
E0
80
60
ENDCHAR
STARTCHAR 00EB
ENCODING 235
SWIDTH 480 0
DWIDTH 4 0
BBX 3 5 0 0
BITMAP
A0
00
60
C0
60
ENDCHAR
STARTCHAR 00EC
ENCODING 236
SWIDTH 480 0
DWIDTH 4 0
BBX 3 6 0 0
BITMAP
80
60
00
40
40
40
ENDCHAR
STARTCHAR 00ED
ENCODING 237
SWIDTH 480 0
DWIDTH 4 0
BBX 3 6 0 0
BITMAP
60
80
40
40
40
40
ENDCHAR
STARTCHAR 00EE
ENCODING 238
SWIDTH 480 0
DWIDTH 4 0
BBX 3 6 0 0
BITMAP
40
A0
00
40
40
40
ENDCHAR
STARTCHAR 00EF
ENCODING 239
SWIDTH 480 0
DWIDTH 4 0
BBX 3 5 0 0
BITMAP
A0
00
40
40
40
ENDCHAR
STARTCHAR 00F0
ENCODING 240
SWIDTH 480 0
DWIDTH 4 0
BBX 3 6 0 0
BITMAP
A0
40
A0
60
A0
C0
ENDCHAR
STARTCHAR 00F1
ENCODING 241
SWIDTH 480 0
DWIDTH 4 0
BBX 3 6 0 0
BITMAP
C0
60
00
C0
A0
A0
ENDCHAR
STARTCHAR 00F2
ENCODING 242
SWIDTH 480 0
DWIDTH 4 0
BBX 3 6 0 0
BITMAP
80
60
40
A0
A0
40
ENDCHAR
STARTCHAR 00F3
ENCODING 243
SWIDTH 480 0
DWIDTH 4 0
BBX 3 6 0 0
BITMAP
60
80
40
A0
A0
40
ENDCHAR
STARTCHAR 00F4
ENCODING 244
SWIDTH 480 0
DWIDTH 4 0
BBX 3 6 0 0
BITMAP
40
A0
00
40
A0
40
ENDCHAR
STARTCHAR 00F5
ENCODING 245
SWIDTH 480 0
DWIDTH 4 0
BBX 3 6 0 0
BITMAP
C0
60
00
40
A0
40
ENDCHAR
STARTCHAR 00F6
ENCODING 246
SWIDTH 480 0
DWIDTH 4 0
BBX 3 5 0 0
BITMAP
A0
00
40
A0
40
ENDCHAR
STARTCHAR 00F7
ENCODING 247
SWIDTH 960 0
DWIDTH 8 0
BBX 7 5 0 0
BITMAP
10
00
FE
00
10
ENDCHAR
STARTCHAR 00F8
ENCODING 248
SWIDTH 480 0
DWIDTH 4 0
BBX 3 5 0 0
BITMAP
20
C0
A0
60
80
ENDCHAR
STARTCHAR 00F9
ENCODING 249
SWIDTH 480 0
DWIDTH 4 0
BBX 3 6 0 0
BITMAP
80
60
00
A0
A0
E0
ENDCHAR
STARTCHAR 00FA
ENCODING 250
SWIDTH 480 0
DWIDTH 4 0
BBX 3 6 0 0
BITMAP
60
80
20
A0
A0
E0
ENDCHAR
STARTCHAR 00FB
ENCODING 251
SWIDTH 480 0
DWIDTH 4 0
BBX 3 6 0 0
BITMAP
40
A0
00
A0
A0
E0
ENDCHAR
STARTCHAR 00FC
ENCODING 252
SWIDTH 480 0
DWIDTH 4 0
BBX 3 6 0 0
BITMAP
A0
00
A0
A0
A0
E0
ENDCHAR
STARTCHAR 00FD
ENCODING 253
SWIDTH 480 0
DWIDTH 4 0
BBX 3 7 0 -1
BITMAP
20
40
00
A0
60
20
C0
ENDCHAR
STARTCHAR 00FE
ENCODING 254
SWIDTH 480 0
DWIDTH 4 0
BBX 3 7 0 -1
BITMAP
80
80
C0
A0
C0
80
80
ENDCHAR
STARTCHAR 00FF
ENCODING 255
SWIDTH 480 0
DWIDTH 4 0
BBX 3 6 0 -1
BITMAP
A0
00
A0
60
20
C0
ENDCHAR
STARTCHAR 0100
ENCODING 256
SWIDTH 600 0
DWIDTH 5 0
BBX 4 8 0 0
BITMAP
60
00
20
50
90
F0
90
90
ENDCHAR
STARTCHAR 0101
ENCODING 257
SWIDTH 480 0
DWIDTH 4 0
BBX 3 6 0 0
BITMAP
E0
00
60
A0
A0
60
ENDCHAR
STARTCHAR 0102
ENCODING 258
SWIDTH 600 0
DWIDTH 5 0
BBX 5 9 0 0
BITMAP
48
30
00
20
50
90
F0
90
90
ENDCHAR
STARTCHAR 0103
ENCODING 259
SWIDTH 480 0
DWIDTH 4 0
BBX 3 7 0 0
BITMAP
A0
40
00
60
A0
A0
60
ENDCHAR
STARTCHAR 0104
ENCODING 260
SWIDTH 600 0
DWIDTH 5 0
BBX 4 9 0 -3
BITMAP
20
50
90
F0
90
90
20
20
10
ENDCHAR
STARTCHAR 0105
ENCODING 261
SWIDTH 480 0
DWIDTH 4 0
BBX 3 6 0 -2
BITMAP
60
A0
A0
60
40
20
ENDCHAR
STARTCHAR 0106
ENCODING 262
SWIDTH 600 0
DWIDTH 5 0
BBX 4 9 0 0
BITMAP
10
20
00
20
50
80
80
90
60
ENDCHAR
STARTCHAR 0107
ENCODING 263
SWIDTH 480 0
DWIDTH 4 0
BBX 3 7 0 0
BITMAP
20
40
00
60
80
80
60
ENDCHAR
STARTCHAR 010A
ENCODING 266
SWIDTH 600 0
DWIDTH 5 0
BBX 4 8 0 0
BITMAP
20
00
20
50
80
80
90
60
ENDCHAR
STARTCHAR 010B
ENCODING 267
SWIDTH 480 0
DWIDTH 4 0
BBX 3 6 0 0
BITMAP
40
00
60
80
80
60
ENDCHAR
STARTCHAR 010C
ENCODING 268
SWIDTH 600 0
DWIDTH 5 0
BBX 4 9 0 0
BITMAP
50
20
00
20
50
80
80
90
60
ENDCHAR
STARTCHAR 010D
ENCODING 269
SWIDTH 480 0
DWIDTH 4 0
BBX 3 7 0 0
BITMAP
A0
40
00
60
80
80
60
ENDCHAR
STARTCHAR 010E
ENCODING 270
SWIDTH 600 0
DWIDTH 5 0
BBX 4 9 0 0
BITMAP
50
20
00
C0
A0
90
90
90
E0
ENDCHAR
STARTCHAR 010F
ENCODING 271
SWIDTH 720 0
DWIDTH 6 0
BBX 5 7 0 0
BITMAP
08
28
20
60
A0
A0
60
ENDCHAR
STARTCHAR 0110
ENCODING 272
SWIDTH 600 0
DWIDTH 5 0
BBX 5 6 -1 0
BITMAP
60
50
48
E8
48
70
ENDCHAR
STARTCHAR 0111
ENCODING 273
SWIDTH 480 0
DWIDTH 4 0
BBX 4 7 0 0
BITMAP
20
70
20
60
A0
A0
60
ENDCHAR
STARTCHAR 0112
ENCODING 274
SWIDTH 600 0
DWIDTH 5 0
BBX 4 8 0 0
BITMAP
60
00
F0
80
E0
80
80
F0
ENDCHAR
STARTCHAR 0113
ENCODING 275
SWIDTH 480 0
DWIDTH 4 0
BBX 3 6 0 0
BITMAP
E0
00
60
E0
80
60
ENDCHAR
STARTCHAR 0116
ENCODING 278
SWIDTH 600 0
DWIDTH 5 0
BBX 4 8 0 0
BITMAP
20
00
F0
80
E0
80
80
F0
ENDCHAR
STARTCHAR 0117
ENCODING 279
SWIDTH 480 0
DWIDTH 4 0
BBX 3 6 0 0
BITMAP
40
00
60
E0
80
60
ENDCHAR
STARTCHAR 0118
ENCODING 280
SWIDTH 600 0
DWIDTH 5 0
BBX 4 9 0 -3
BITMAP
F0
80
E0
80
80
F0
20
20
10
ENDCHAR
STARTCHAR 0119
ENCODING 281
SWIDTH 480 0
DWIDTH 4 0
BBX 3 6 0 -2
BITMAP
60
E0
80
60
40
20
ENDCHAR
STARTCHAR 011A
ENCODING 282
SWIDTH 600 0
DWIDTH 5 0
BBX 4 9 0 0
BITMAP
50
20
00
F0
80
E0
80
80
F0
ENDCHAR
STARTCHAR 011B
ENCODING 283
SWIDTH 480 0
DWIDTH 4 0
BBX 3 6 0 0
BITMAP
A0
40
60
E0
80
60
ENDCHAR
STARTCHAR 011E
ENCODING 286
SWIDTH 600 0
DWIDTH 5 0
BBX 5 9 0 0
BITMAP
48
30
00
20
50
80
B0
90
60
ENDCHAR
STARTCHAR 011F
ENCODING 287
SWIDTH 480 0
DWIDTH 4 0
BBX 3 8 0 -1
BITMAP
A0
40
00
60
A0
60
20
C0
ENDCHAR
STARTCHAR 0120
ENCODING 288
SWIDTH 600 0
DWIDTH 5 0
BBX 4 8 0 0
BITMAP
20
00
20
50
80
B0
90
60
ENDCHAR
STARTCHAR 0121
ENCODING 289
SWIDTH 480 0
DWIDTH 4 0
BBX 3 7 0 -1
BITMAP
40
00
60
A0
60
20
C0
ENDCHAR
STARTCHAR 0122
ENCODING 290
SWIDTH 600 0
DWIDTH 5 0
BBX 4 9 0 -3
BITMAP
20
50
80
B0
90
60
00
20
40
ENDCHAR
STARTCHAR 0123
ENCODING 291
SWIDTH 480 0
DWIDTH 4 0
BBX 3 8 0 -1
BITMAP
20
40
00
60
A0
60
20
C0
ENDCHAR
STARTCHAR 0126
ENCODING 294
SWIDTH 600 0
DWIDTH 5 0
BBX 6 7 -1 0
BITMAP
48
FC
48
78
48
48
48
ENDCHAR
STARTCHAR 0127
ENCODING 295
SWIDTH 480 0
DWIDTH 4 0
BBX 4 7 -1 0
BITMAP
40
E0
40
60
50
50
50
ENDCHAR
STARTCHAR 012A
ENCODING 298
SWIDTH 240 0
DWIDTH 2 0
BBX 3 8 -1 0
BITMAP
E0
00
40
40
40
40
40
40
ENDCHAR
STARTCHAR 012B
ENCODING 299
SWIDTH 480 0
DWIDTH 4 0
BBX 3 6 0 0
BITMAP
E0
00
40
40
40
40
ENDCHAR
STARTCHAR 012E
ENCODING 302
SWIDTH 240 0
DWIDTH 2 0
BBX 2 9 -1 -3
BITMAP
40
40
40
40
40
40
80
80
40
ENDCHAR
STARTCHAR 012F
ENCODING 303
SWIDTH 240 0
DWIDTH 2 0
BBX 2 8 -1 -2
BITMAP
40
00
40
40
40
40
80
40
ENDCHAR
STARTCHAR 0130
ENCODING 304
SWIDTH 240 0
DWIDTH 2 0
BBX 1 8 0 0
BITMAP
80
00
80
80
80
80
80
80
ENDCHAR
STARTCHAR 0131
ENCODING 305
SWIDTH 240 0
DWIDTH 2 0
BBX 1 4 0 0
BITMAP
80
80
80
80
ENDCHAR
STARTCHAR 0132
ENCODING 306
SWIDTH 840 0
DWIDTH 7 0
BBX 6 6 0 0
BITMAP
9C
88
88
88
A8
90
ENDCHAR
STARTCHAR 0133
ENCODING 307
SWIDTH 600 0
DWIDTH 5 0
BBX 4 7 0 -1
BITMAP
90
00
90
90
90
90
20
ENDCHAR
STARTCHAR 0136
ENCODING 310
SWIDTH 600 0
DWIDTH 5 0
BBX 4 9 0 -3
BITMAP
90
A0
C0
A0
90
90
00
20
40
ENDCHAR
STARTCHAR 0137
ENCODING 311
SWIDTH 480 0
DWIDTH 4 0
BBX 3 9 0 -3
BITMAP
80
80
A0
C0
A0
A0
00
40
80
ENDCHAR
STARTCHAR 0139
ENCODING 313
SWIDTH 600 0
DWIDTH 5 0
BBX 4 9 0 0
BITMAP
20
40
00
80
80
80
80
80
F0
ENDCHAR
STARTCHAR 013A
ENCODING 314
SWIDTH 240 0
DWIDTH 2 0
BBX 2 9 0 0
BITMAP
40
80
00
80
80
80
80
80
80
ENDCHAR
STARTCHAR 013B
ENCODING 315
SWIDTH 600 0
DWIDTH 5 0
BBX 4 9 0 -3
BITMAP
80
80
80
80
80
F0
00
20
40
ENDCHAR
STARTCHAR 013C
ENCODING 316
SWIDTH 240 0
DWIDTH 2 0
BBX 2 9 -1 -3
BITMAP
40
40
40
40
40
40
00
40
80
ENDCHAR
STARTCHAR 013D
ENCODING 317
SWIDTH 600 0
DWIDTH 5 0
BBX 4 6 0 0
BITMAP
90
A0
80
80
80
F0
ENDCHAR
STARTCHAR 013E
ENCODING 318
SWIDTH 600 0
DWIDTH 5 0
BBX 4 6 0 0
BITMAP
90
A0
80
80
80
80
ENDCHAR
STARTCHAR 0141
ENCODING 321
SWIDTH 600 0
DWIDTH 5 0
BBX 5 6 -1 0
BITMAP
40
40
60
C0
40
78
ENDCHAR
STARTCHAR 0142
ENCODING 322
SWIDTH 240 0
DWIDTH 2 0
BBX 3 6 -1 0
BITMAP
40
40
60
C0
40
40
ENDCHAR
STARTCHAR 0143
ENCODING 323
SWIDTH 600 0
DWIDTH 5 0
BBX 4 9 0 0
BITMAP
10
20
00
90
D0
B0
90
90
90
ENDCHAR
STARTCHAR 0144
ENCODING 324
SWIDTH 480 0
DWIDTH 4 0
BBX 3 6 0 0
BITMAP
40
80
00
C0
A0
A0
ENDCHAR
STARTCHAR 0145
ENCODING 325
SWIDTH 600 0
DWIDTH 5 0
BBX 4 9 0 -3
BITMAP
90
D0
B0
90
90
90
00
20
40
ENDCHAR
STARTCHAR 0146
ENCODING 326
SWIDTH 480 0
DWIDTH 4 0
BBX 3 7 0 -3
BITMAP
C0
A0
A0
A0
00
40
80
ENDCHAR
STARTCHAR 0147
ENCODING 327
SWIDTH 600 0
DWIDTH 5 0
BBX 4 9 0 0
BITMAP
50
20
00
90
D0
B0
90
90
90
ENDCHAR
STARTCHAR 0148
ENCODING 328
SWIDTH 480 0
DWIDTH 4 0
BBX 3 6 0 0
BITMAP
A0
40
00
C0
A0
A0
ENDCHAR
STARTCHAR 014A
ENCODING 330
SWIDTH 600 0
DWIDTH 5 0
BBX 4 9 0 -3
BITMAP
90
D0
B0
90
90
90
10
10
60
ENDCHAR
STARTCHAR 014B
ENCODING 331
SWIDTH 480 0
DWIDTH 4 0
BBX 3 6 0 -2
BITMAP
C0
A0
A0
A0
20
40
ENDCHAR
STARTCHAR 014C
ENCODING 332
SWIDTH 600 0
DWIDTH 5 0
BBX 4 8 0 0
BITMAP
60
00
20
50
90
90
90
60
ENDCHAR
STARTCHAR 014D
ENCODING 333
SWIDTH 480 0
DWIDTH 4 0
BBX 3 6 0 0
BITMAP
E0
00
40
A0
A0
40
ENDCHAR
STARTCHAR 0150
ENCODING 336
SWIDTH 960 0
DWIDTH 8 0
BBX 5 7 1 -1
BITMAP
50
A0
70
88
88
88
70
ENDCHAR
STARTCHAR 0151
ENCODING 337
SWIDTH 480 0
DWIDTH 4 0
BBX 4 7 0 0
BITMAP
50
A0
00
40
A0
A0
40
ENDCHAR
STARTCHAR 0152
ENCODING 338
SWIDTH 600 0
DWIDTH 5 0
BBX 4 6 0 0
BITMAP
70
A0
B0
A0
A0
70
ENDCHAR
STARTCHAR 0153
ENCODING 339
SWIDTH 600 0
DWIDTH 5 0
BBX 4 5 0 0
BITMAP
70
A0
B0
A0
70
ENDCHAR
STARTCHAR 0154
ENCODING 340
SWIDTH 600 0
DWIDTH 5 0
BBX 4 9 0 0
BITMAP
20
40
00
E0
90
90
E0
90
90
ENDCHAR
STARTCHAR 0155
ENCODING 341
SWIDTH 480 0
DWIDTH 4 0
BBX 3 7 0 0
BITMAP
20
40
00
A0
C0
80
80
ENDCHAR
STARTCHAR 0156
ENCODING 342
SWIDTH 600 0
DWIDTH 5 0
BBX 4 9 0 -3
BITMAP
E0
90
90
E0
90
90
00
20
40
ENDCHAR
STARTCHAR 0157
ENCODING 343
SWIDTH 480 0
DWIDTH 4 0
BBX 3 7 0 -3
BITMAP
A0
C0
80
80
00
40
80
ENDCHAR
STARTCHAR 0158
ENCODING 344
SWIDTH 600 0
DWIDTH 5 0
BBX 4 9 0 0
BITMAP
50
20
00
E0
90
90
E0
90
90
ENDCHAR
STARTCHAR 0159
ENCODING 345
SWIDTH 480 0
DWIDTH 4 0
BBX 3 7 0 0
BITMAP
A0
40
00
A0
C0
80
80
ENDCHAR
STARTCHAR 015A
ENCODING 346
SWIDTH 600 0
DWIDTH 5 0
BBX 4 9 0 0
BITMAP
20
40
00
60
80
60
10
90
60
ENDCHAR
STARTCHAR 015B
ENCODING 347
SWIDTH 480 0
DWIDTH 4 0
BBX 3 7 0 0
BITMAP
20
40
00
60
C0
60
C0
ENDCHAR
STARTCHAR 015E
ENCODING 350
SWIDTH 600 0
DWIDTH 5 0
BBX 4 9 0 -3
BITMAP
60
80
60
10
90
60
10
10
60
ENDCHAR
STARTCHAR 015F
ENCODING 351
SWIDTH 480 0
DWIDTH 4 0
BBX 3 6 0 -2
BITMAP
60
C0
60
C0
20
40
ENDCHAR
STARTCHAR 0160
ENCODING 352
SWIDTH 480 0
DWIDTH 4 0
BBX 3 6 0 0
BITMAP
A0
40
60
80
40
E0
ENDCHAR
STARTCHAR 0161
ENCODING 353
SWIDTH 480 0
DWIDTH 4 0
BBX 3 6 0 0
BITMAP
A0
40
E0
80
40
C0
ENDCHAR
STARTCHAR 0164
ENCODING 356
SWIDTH 720 0
DWIDTH 6 0
BBX 5 9 0 0
BITMAP
50
20
00
F8
20
20
20
20
20
ENDCHAR
STARTCHAR 0165
ENCODING 357
SWIDTH 600 0
DWIDTH 5 0
BBX 4 7 0 0
BITMAP
10
10
40
E0
40
40
60
ENDCHAR
STARTCHAR 016A
ENCODING 362
SWIDTH 600 0
DWIDTH 5 0
BBX 4 8 0 0
BITMAP
60
00
90
90
90
90
90
60
ENDCHAR
STARTCHAR 016B
ENCODING 363
SWIDTH 480 0
DWIDTH 4 0
BBX 3 6 0 0
BITMAP
E0
00
A0
A0
A0
E0
ENDCHAR
STARTCHAR 016C
ENCODING 364
SWIDTH 600 0
DWIDTH 5 0
BBX 4 9 0 0
BITMAP
90
60
00
90
90
90
90
90
60
ENDCHAR
STARTCHAR 016D
ENCODING 365
SWIDTH 480 0
DWIDTH 4 0
BBX 3 7 0 0
BITMAP
A0
40
00
A0
A0
A0
60
ENDCHAR
STARTCHAR 016E
ENCODING 366
SWIDTH 600 0
DWIDTH 5 0
BBX 4 10 0 0
BITMAP
20
50
20
00
90
90
90
90
90
60
ENDCHAR
STARTCHAR 016F
ENCODING 367
SWIDTH 480 0
DWIDTH 4 0
BBX 3 8 0 0
BITMAP
40
A0
40
00
A0
A0
A0
60
ENDCHAR
STARTCHAR 0170
ENCODING 368
SWIDTH 600 0
DWIDTH 5 0
BBX 4 9 0 0
BITMAP
50
A0
00
90
90
90
90
90
60
ENDCHAR
STARTCHAR 0171
ENCODING 369
SWIDTH 480 0
DWIDTH 4 0
BBX 4 7 0 0
BITMAP
50
A0
00
A0
A0
A0
60
ENDCHAR
STARTCHAR 0172
ENCODING 370
SWIDTH 600 0
DWIDTH 5 0
BBX 4 9 0 -3
BITMAP
90
90
90
90
90
60
40
40
30
ENDCHAR
STARTCHAR 0173
ENCODING 371
SWIDTH 480 0
DWIDTH 4 0
BBX 3 6 0 -2
BITMAP
A0
A0
A0
60
40
20
ENDCHAR
STARTCHAR 0174
ENCODING 372
SWIDTH 720 0
DWIDTH 6 0
BBX 5 9 0 0
BITMAP
20
50
00
88
88
A8
A8
A8
50
ENDCHAR
STARTCHAR 0175
ENCODING 373
SWIDTH 720 0
DWIDTH 6 0
BBX 5 7 0 0
BITMAP
20
50
00
88
A8
F0
A0
ENDCHAR
STARTCHAR 0176
ENCODING 374
SWIDTH 600 0
DWIDTH 5 0
BBX 4 9 0 0
BITMAP
20
50
00
90
90
70
10
20
C0
ENDCHAR
STARTCHAR 0177
ENCODING 375
SWIDTH 480 0
DWIDTH 4 0
BBX 3 8 0 -1
BITMAP
40
A0
00
A0
A0
60
20
C0
ENDCHAR
STARTCHAR 0178
ENCODING 376
SWIDTH 480 0
DWIDTH 4 0
BBX 3 6 0 0
BITMAP
A0
00
A0
40
40
40
ENDCHAR
STARTCHAR 0179
ENCODING 377
SWIDTH 600 0
DWIDTH 5 0
BBX 4 9 0 0
BITMAP
20
40
00
F0
10
20
40
80
F0
ENDCHAR
STARTCHAR 017A
ENCODING 378
SWIDTH 480 0
DWIDTH 4 0
BBX 3 7 0 0
BITMAP
20
40
00
E0
20
40
E0
ENDCHAR
STARTCHAR 017B
ENCODING 379
SWIDTH 600 0
DWIDTH 5 0
BBX 4 8 0 0
BITMAP
20
00
F0
10
20
40
80
F0
ENDCHAR
STARTCHAR 017C
ENCODING 380
SWIDTH 480 0
DWIDTH 4 0
BBX 3 6 0 0
BITMAP
40
00
E0
20
40
E0
ENDCHAR
STARTCHAR 017D
ENCODING 381
SWIDTH 600 0
DWIDTH 5 0
BBX 4 9 0 0
BITMAP
50
20
00
F0
10
20
40
80
F0
ENDCHAR
STARTCHAR 017E
ENCODING 382
SWIDTH 480 0
DWIDTH 4 0
BBX 3 7 0 0
BITMAP
A0
40
00
E0
20
40
E0
ENDCHAR
STARTCHAR 0192
ENCODING 402
SWIDTH 480 0
DWIDTH 4 0
BBX 3 6 0 -1
BITMAP
60
40
E0
40
40
C0
ENDCHAR
STARTCHAR 01AA
ENCODING 426
SWIDTH 960 0
DWIDTH 8 0
BBX 4 7 1 -1
BITMAP
40
A0
60
20
20
20
10
ENDCHAR
STARTCHAR 01CE
ENCODING 462
SWIDTH 480 0
DWIDTH 4 0
BBX 3 6 0 0
BITMAP
A0
40
60
A0
A0
60
ENDCHAR
STARTCHAR 01D0
ENCODING 464
SWIDTH 480 0
DWIDTH 4 0
BBX 3 6 0 0
BITMAP
A0
40
00
40
40
40
ENDCHAR
STARTCHAR 01D2
ENCODING 466
SWIDTH 480 0
DWIDTH 4 0
BBX 3 6 0 0
BITMAP
A0
40
40
A0
A0
40
ENDCHAR
STARTCHAR 01D4
ENCODING 468
SWIDTH 480 0
DWIDTH 4 0
BBX 3 6 0 0
BITMAP
A0
40
00
A0
A0
E0
ENDCHAR
STARTCHAR 01D6
ENCODING 470
SWIDTH 480 0
DWIDTH 4 0
BBX 3 6 0 0
BITMAP
E0
00
A0
00
A0
E0
ENDCHAR
STARTCHAR 01D8
ENCODING 472
SWIDTH 480 0
DWIDTH 4 0
BBX 3 6 0 0
BITMAP
60
80
A0
00
A0
E0
ENDCHAR
STARTCHAR 01DA
ENCODING 474
SWIDTH 480 0
DWIDTH 4 0
BBX 3 6 0 0
BITMAP
A0
40
A0
00
A0
E0
ENDCHAR
STARTCHAR 01DC
ENCODING 476
SWIDTH 480 0
DWIDTH 4 0
BBX 3 6 0 0
BITMAP
80
60
A0
00
A0
E0
ENDCHAR
STARTCHAR 01F9
ENCODING 505
SWIDTH 480 0
DWIDTH 4 0
BBX 3 6 0 0
BITMAP
40
20
00
C0
A0
A0
ENDCHAR
STARTCHAR 0218
ENCODING 536
SWIDTH 600 0
DWIDTH 5 0
BBX 4 9 0 -3
BITMAP
60
80
60
10
90
60
00
20
40
ENDCHAR
STARTCHAR 0219
ENCODING 537
SWIDTH 480 0
DWIDTH 4 0
BBX 3 7 0 -3
BITMAP
60
C0
60
C0
00
40
80
ENDCHAR
STARTCHAR 021A
ENCODING 538
SWIDTH 720 0
DWIDTH 6 0
BBX 5 9 0 -3
BITMAP
F8
20
20
20
20
20
00
20
40
ENDCHAR
STARTCHAR 021B
ENCODING 539
SWIDTH 480 0
DWIDTH 4 0
BBX 3 8 0 -3
BITMAP
40
E0
40
40
60
00
20
40
ENDCHAR
STARTCHAR 0237
ENCODING 567
SWIDTH 360 0
DWIDTH 3 0
BBX 2 5 0 -1
BITMAP
40
40
40
40
80
ENDCHAR
STARTCHAR 0251
ENCODING 593
SWIDTH 480 0
DWIDTH 4 0
BBX 3 4 0 0
BITMAP
60
A0
A0
60
ENDCHAR
STARTCHAR 0261
ENCODING 609
SWIDTH 480 0
DWIDTH 4 0
BBX 3 5 0 -1
BITMAP
60
A0
60
20
C0
ENDCHAR
STARTCHAR 0277
ENCODING 631
SWIDTH 960 0
DWIDTH 8 0
BBX 5 4 1 -1
BITMAP
70
88
A8
50
ENDCHAR
STARTCHAR 0283
ENCODING 643
SWIDTH 960 0
DWIDTH 8 0
BBX 3 7 2 -1
BITMAP
20
40
40
40
40
40
80
ENDCHAR
STARTCHAR 0285
ENCODING 645
SWIDTH 960 0
DWIDTH 8 0
BBX 3 4 2 -1
BITMAP
C0
40
40
60
ENDCHAR
STARTCHAR 0294
ENCODING 660
SWIDTH 960 0
DWIDTH 8 0
BBX 3 7 2 -1
BITMAP
40
A0
20
20
40
40
E0
ENDCHAR
STARTCHAR 0295
ENCODING 661
SWIDTH 960 0
DWIDTH 8 0
BBX 3 7 2 -1
BITMAP
40
A0
80
80
40
40
E0
ENDCHAR
STARTCHAR 0296
ENCODING 662
SWIDTH 960 0
DWIDTH 8 0
BBX 3 7 2 -1
BITMAP
E0
40
40
20
20
A0
40
ENDCHAR
STARTCHAR 0298
ENCODING 664
SWIDTH 960 0
DWIDTH 8 0
BBX 5 7 1 -1
BITMAP
70
88
88
A8
88
88
70
ENDCHAR
STARTCHAR 029A
ENCODING 666
SWIDTH 960 0
DWIDTH 8 0
BBX 4 5 1 0
BITMAP
60
90
50
90
60
ENDCHAR
STARTCHAR 02C2
ENCODING 706
SWIDTH 960 0
DWIDTH 8 0
BBX 5 5 1 1
BITMAP
18
60
80
60
18
ENDCHAR
STARTCHAR 02C3
ENCODING 707
SWIDTH 960 0
DWIDTH 8 0
BBX 5 5 1 1
BITMAP
C0
30
08
30
C0
ENDCHAR
STARTCHAR 02C6
ENCODING 710
SWIDTH 480 0
DWIDTH 4 0
BBX 3 2 0 4
BITMAP
40
A0
ENDCHAR
STARTCHAR 02C7
ENCODING 711
SWIDTH 960 0
DWIDTH 8 0
BBX 5 3 1 1
BITMAP
88
50
20
ENDCHAR
STARTCHAR 02C9
ENCODING 713
SWIDTH 960 0
DWIDTH 8 0
BBX 3 1 2 3
BITMAP
E0
ENDCHAR
STARTCHAR 02CA
ENCODING 714
SWIDTH 960 0
DWIDTH 8 0
BBX 3 3 2 1
BITMAP
20
40
80
ENDCHAR
STARTCHAR 02CB
ENCODING 715
SWIDTH 960 0
DWIDTH 8 0
BBX 3 3 2 1
BITMAP
80
40
20
ENDCHAR
STARTCHAR 02CD
ENCODING 717
SWIDTH 960 0
DWIDTH 8 0
BBX 3 1 2 1
BITMAP
E0
ENDCHAR
STARTCHAR 02D8
ENCODING 728
SWIDTH 960 0
DWIDTH 8 0
BBX 5 2 1 4
BITMAP
88
70
ENDCHAR
STARTCHAR 02D9
ENCODING 729
SWIDTH 960 0
DWIDTH 8 0
BBX 3 3 2 1
BITMAP
40
E0
40
ENDCHAR
STARTCHAR 02DA
ENCODING 730
SWIDTH 360 0
DWIDTH 3 0
BBX 3 3 0 7
BITMAP
40
A0
40
ENDCHAR
STARTCHAR 02DB
ENCODING 731
SWIDTH 360 0
DWIDTH 3 0
BBX 3 3 0 -3
BITMAP
40
80
60
ENDCHAR
STARTCHAR 02DC
ENCODING 732
SWIDTH 480 0
DWIDTH 4 0
BBX 4 2 0 7
BITMAP
50
A0
ENDCHAR
STARTCHAR 02DD
ENCODING 733
SWIDTH 480 0
DWIDTH 4 0
BBX 4 2 0 7
BITMAP
50
A0
ENDCHAR
STARTCHAR 02EA
ENCODING 746
SWIDTH 960 0
DWIDTH 8 0
BBX 3 3 2 0
BITMAP
80
80
E0
ENDCHAR
STARTCHAR 02EB
ENCODING 747
SWIDTH 960 0
DWIDTH 8 0
BBX 4 7 1 -1
BITMAP
20
80
30
50
90
50
30
ENDCHAR
STARTCHAR 0300
ENCODING 768
SWIDTH 240 0
DWIDTH 2 0
BBX 2 2 0 7
BITMAP
80
40
ENDCHAR
STARTCHAR 0301
ENCODING 769
SWIDTH 960 0
DWIDTH 8 0
BBX 3 2 2 5
BITMAP
60
80
ENDCHAR
STARTCHAR 0302
ENCODING 770
SWIDTH 360 0
DWIDTH 3 0
BBX 3 2 0 7
BITMAP
40
A0
ENDCHAR
STARTCHAR 0303
ENCODING 771
SWIDTH 480 0
DWIDTH 4 0
BBX 4 2 0 7
BITMAP
50
A0
ENDCHAR
STARTCHAR 0304
ENCODING 772
SWIDTH 360 0
DWIDTH 3 0
BBX 3 1 0 7
BITMAP
E0
ENDCHAR
STARTCHAR 0306
ENCODING 774
SWIDTH 480 0
DWIDTH 4 0
BBX 4 2 0 7
BITMAP
90
60
ENDCHAR
STARTCHAR 0307
ENCODING 775
SWIDTH 120 0
DWIDTH 1 0
BBX 1 1 0 7
BITMAP
80
ENDCHAR
STARTCHAR 0308
ENCODING 776
SWIDTH 360 0
DWIDTH 3 0
BBX 3 1 0 7
BITMAP
A0
ENDCHAR
STARTCHAR 030A
ENCODING 778
SWIDTH 360 0
DWIDTH 3 0
BBX 3 3 0 7
BITMAP
40
A0
40
ENDCHAR
STARTCHAR 030B
ENCODING 779
SWIDTH 480 0
DWIDTH 4 0
BBX 4 2 0 7
BITMAP
50
A0
ENDCHAR
STARTCHAR 030C
ENCODING 780
SWIDTH 360 0
DWIDTH 3 0
BBX 3 2 0 7
BITMAP
A0
40
ENDCHAR
STARTCHAR 0312
ENCODING 786
SWIDTH 240 0
DWIDTH 2 0
BBX 2 3 0 7
BITMAP
40
80
C0
ENDCHAR
STARTCHAR 0326
ENCODING 806
SWIDTH 240 0
DWIDTH 2 0
BBX 2 3 0 -4
BITMAP
C0
40
80
ENDCHAR
STARTCHAR 0327
ENCODING 807
SWIDTH 240 0
DWIDTH 2 0
BBX 2 3 0 -3
BITMAP
80
40
C0
ENDCHAR
STARTCHAR 0328
ENCODING 808
SWIDTH 360 0
DWIDTH 3 0
BBX 3 3 0 -3
BITMAP
40
80
60
ENDCHAR
STARTCHAR 0384
ENCODING 900
SWIDTH 960 0
DWIDTH 8 0
BBX 2 2 3 4
BITMAP
40
80
ENDCHAR
STARTCHAR 0391
ENCODING 913
SWIDTH 960 0
DWIDTH 8 0
BBX 7 7 0 -1
BITMAP
10
28
28
44
7C
82
82
ENDCHAR
STARTCHAR 0392
ENCODING 914
SWIDTH 960 0
DWIDTH 8 0
BBX 6 7 1 -1
BITMAP
F8
84
84
F8
84
84
F8
ENDCHAR
STARTCHAR 0393
ENCODING 915
SWIDTH 960 0
DWIDTH 8 0
BBX 6 7 1 -1
BITMAP
FC
80
80
80
80
80
80
ENDCHAR
STARTCHAR 0394
ENCODING 916
SWIDTH 960 0
DWIDTH 8 0
BBX 7 7 0 -1
BITMAP
10
28
28
44
44
82
FE
ENDCHAR
STARTCHAR 0395
ENCODING 917
SWIDTH 960 0
DWIDTH 8 0
BBX 6 7 1 -1
BITMAP
FC
80
80
F8
80
80
FC
ENDCHAR
STARTCHAR 0396
ENCODING 918
SWIDTH 960 0
DWIDTH 8 0
BBX 6 7 1 -1
BITMAP
FC
04
08
10
20
40
FC
ENDCHAR
STARTCHAR 0397
ENCODING 919
SWIDTH 960 0
DWIDTH 8 0
BBX 6 7 1 -1
BITMAP
84
84
84
FC
84
84
84
ENDCHAR
STARTCHAR 0398
ENCODING 920
SWIDTH 960 0
DWIDTH 8 0
BBX 7 7 0 -1
BITMAP
38
44
82
BA
82
44
38
ENDCHAR
STARTCHAR 0399
ENCODING 921
SWIDTH 960 0
DWIDTH 8 0
BBX 3 7 2 -1
BITMAP
E0
40
40
40
40
40
E0
ENDCHAR
STARTCHAR 039A
ENCODING 922
SWIDTH 960 0
DWIDTH 8 0
BBX 6 7 1 -1
BITMAP
84
88
90
A0
D0
88
84
ENDCHAR
STARTCHAR 039B
ENCODING 923
SWIDTH 960 0
DWIDTH 8 0
BBX 7 7 0 -1
BITMAP
10
28
28
44
44
82
82
ENDCHAR
STARTCHAR 039C
ENCODING 924
SWIDTH 960 0
DWIDTH 8 0
BBX 7 7 0 -1
BITMAP
82
C6
AA
AA
92
92
82
ENDCHAR
STARTCHAR 039D
ENCODING 925
SWIDTH 960 0
DWIDTH 8 0
BBX 6 7 1 -1
BITMAP
84
C4
A4
94
8C
84
84
ENDCHAR
STARTCHAR 039E
ENCODING 926
SWIDTH 960 0
DWIDTH 8 0
BBX 6 7 1 -1
BITMAP
FC
00
00
78
00
00
FC
ENDCHAR
STARTCHAR 039F
ENCODING 927
SWIDTH 960 0
DWIDTH 8 0
BBX 6 7 1 -1
BITMAP
78
84
84
84
84
84
78
ENDCHAR
STARTCHAR 03A0
ENCODING 928
SWIDTH 960 0
DWIDTH 8 0
BBX 6 7 1 -1
BITMAP
FC
84
84
84
84
84
84
ENDCHAR
STARTCHAR 03A1
ENCODING 929
SWIDTH 960 0
DWIDTH 8 0
BBX 6 7 1 -1
BITMAP
F8
84
84
F8
80
80
80
ENDCHAR
STARTCHAR 03A3
ENCODING 931
SWIDTH 960 0
DWIDTH 8 0
BBX 6 7 1 -1
BITMAP
FC
40
20
10
20
40
FC
ENDCHAR
STARTCHAR 03A4
ENCODING 932
SWIDTH 960 0
DWIDTH 8 0
BBX 7 7 0 -1
BITMAP
FE
10
10
10
10
10
10
ENDCHAR
STARTCHAR 03A5
ENCODING 933
SWIDTH 960 0
DWIDTH 8 0
BBX 7 7 0 -1
BITMAP
82
44
28
10
10
10
10
ENDCHAR
STARTCHAR 03A6
ENCODING 934
SWIDTH 960 0
DWIDTH 8 0
BBX 7 7 0 -1
BITMAP
10
7C
92
92
92
7C
10
ENDCHAR
STARTCHAR 03A7
ENCODING 935
SWIDTH 960 0
DWIDTH 8 0
BBX 7 7 0 -1
BITMAP
82
44
28
10
28
44
82
ENDCHAR
STARTCHAR 03A8
ENCODING 936
SWIDTH 960 0
DWIDTH 8 0
BBX 7 7 0 -1
BITMAP
92
54
54
38
10
10
10
ENDCHAR
STARTCHAR 03A9
ENCODING 937
SWIDTH 960 0
DWIDTH 8 0
BBX 7 7 0 -1
BITMAP
38
44
82
82
44
28
EE
ENDCHAR
STARTCHAR 03B1
ENCODING 945
SWIDTH 960 0
DWIDTH 8 0
BBX 6 5 1 -1
BITMAP
34
48
90
94
68
ENDCHAR
STARTCHAR 03B2
ENCODING 946
SWIDTH 960 0
DWIDTH 8 0
BBX 6 7 1 -1
BITMAP
18
24
58
44
64
98
80
ENDCHAR
STARTCHAR 03B3
ENCODING 947
SWIDTH 960 0
DWIDTH 8 0
BBX 5 5 1 -1
BITMAP
C8
30
20
60
40
ENDCHAR
STARTCHAR 03B4
ENCODING 948
SWIDTH 960 0
DWIDTH 8 0
BBX 5 7 1 -1
BITMAP
30
48
20
50
90
90
60
ENDCHAR
STARTCHAR 03B5
ENCODING 949
SWIDTH 960 0
DWIDTH 8 0
BBX 5 5 1 -1
BITMAP
30
48
60
88
70
ENDCHAR
STARTCHAR 03B6
ENCODING 950
SWIDTH 960 0
DWIDTH 8 0
BBX 4 7 2 -1
BITMAP
B0
40
80
80
60
10
60
ENDCHAR
STARTCHAR 03B7
ENCODING 951
SWIDTH 960 0
DWIDTH 8 0
BBX 6 5 1 -1
BITMAP
58
A4
24
48
08
ENDCHAR
STARTCHAR 03B8
ENCODING 952
SWIDTH 960 0
DWIDTH 8 0
BBX 5 7 1 -1
BITMAP
30
48
48
F8
90
90
60
ENDCHAR
STARTCHAR 03B9
ENCODING 953
SWIDTH 960 0
DWIDTH 8 0
BBX 3 5 2 -1
BITMAP
40
40
80
A0
40
ENDCHAR
STARTCHAR 03BA
ENCODING 954
SWIDTH 960 0
DWIDTH 8 0
BBX 5 5 1 -1
BITMAP
48
50
60
A0
98
ENDCHAR
STARTCHAR 03BB
ENCODING 955
SWIDTH 960 0
DWIDTH 8 0
BBX 5 7 1 -1
BITMAP
20
10
10
30
50
50
88
ENDCHAR
STARTCHAR 03BC
ENCODING 956
SWIDTH 960 0
DWIDTH 8 0
BBX 6 5 1 -1
BITMAP
24
24
48
74
80
ENDCHAR
STARTCHAR 03BD
ENCODING 957
SWIDTH 960 0
DWIDTH 8 0
BBX 5 5 1 -1
BITMAP
88
48
50
60
40
ENDCHAR
STARTCHAR 03BE
ENCODING 958
SWIDTH 960 0
DWIDTH 8 0
BBX 5 7 1 -1
BITMAP
38
40
78
80
70
08
30
ENDCHAR
STARTCHAR 03BF
ENCODING 959
SWIDTH 960 0
DWIDTH 8 0
BBX 5 5 1 -1
BITMAP
30
48
88
90
60
ENDCHAR
STARTCHAR 03C0
ENCODING 960
SWIDTH 960 0
DWIDTH 8 0
BBX 6 5 1 -1
BITMAP
7C
A8
28
48
8C
ENDCHAR
STARTCHAR 03C1
ENCODING 961
SWIDTH 960 0
DWIDTH 8 0
BBX 6 5 1 -1
BITMAP
38
44
44
B8
80
ENDCHAR
STARTCHAR 03C3
ENCODING 963
SWIDTH 960 0
DWIDTH 8 0
BBX 6 5 1 -1
BITMAP
3C
48
88
90
60
ENDCHAR
STARTCHAR 03C4
ENCODING 964
SWIDTH 960 0
DWIDTH 8 0
BBX 6 5 1 -1
BITMAP
7C
90
20
28
10
ENDCHAR
STARTCHAR 03C5
ENCODING 965
SWIDTH 960 0
DWIDTH 8 0
BBX 6 5 1 -1
BITMAP
64
A4
44
48
30
ENDCHAR
STARTCHAR 03C6
ENCODING 966
SWIDTH 960 0
DWIDTH 8 0
BBX 6 7 1 -1
BITMAP
08
08
78
94
94
78
20
ENDCHAR
STARTCHAR 03C7
ENCODING 967
SWIDTH 960 0
DWIDTH 8 0
BBX 5 5 1 -1
BITMAP
68
10
20
60
98
ENDCHAR
STARTCHAR 03C8
ENCODING 968
SWIDTH 960 0
DWIDTH 8 0
BBX 6 7 1 -1
BITMAP
08
08
D0
54
94
78
20
ENDCHAR
STARTCHAR 03C9
ENCODING 969
SWIDTH 960 0
DWIDTH 8 0
BBX 6 5 1 -1
BITMAP
44
94
94
B4
48
ENDCHAR
STARTCHAR 0401
ENCODING 1025
SWIDTH 960 0
DWIDTH 8 0
BBX 6 7 1 -1
BITMAP
48
FC
80
F8
80
80
FC
ENDCHAR
STARTCHAR 0410
ENCODING 1040
SWIDTH 960 0
DWIDTH 8 0
BBX 7 7 0 -1
BITMAP
10
28
28
44
7C
82
82
ENDCHAR
STARTCHAR 0411
ENCODING 1041
SWIDTH 960 0
DWIDTH 8 0
BBX 6 7 1 -1
BITMAP
FC
80
80
F8
84
84
F8
ENDCHAR
STARTCHAR 0412
ENCODING 1042
SWIDTH 960 0
DWIDTH 8 0
BBX 6 7 1 -1
BITMAP
F8
84
84
F8
84
84
F8
ENDCHAR
STARTCHAR 0413
ENCODING 1043
SWIDTH 960 0
DWIDTH 8 0
BBX 6 7 1 -1
BITMAP
FC
80
80
80
80
80
80
ENDCHAR
STARTCHAR 0414
ENCODING 1044
SWIDTH 960 0
DWIDTH 8 0
BBX 7 7 0 -1
BITMAP
3C
24
24
24
44
FE
82
ENDCHAR
STARTCHAR 0415
ENCODING 1045
SWIDTH 960 0
DWIDTH 8 0
BBX 6 7 1 -1
BITMAP
FC
80
80
F8
80
80
FC
ENDCHAR
STARTCHAR 0416
ENCODING 1046
SWIDTH 960 0
DWIDTH 8 0
BBX 7 7 0 -1
BITMAP
92
54
54
38
54
54
92
ENDCHAR
STARTCHAR 0417
ENCODING 1047
SWIDTH 960 0
DWIDTH 8 0
BBX 6 7 1 -1
BITMAP
78
84
04
38
04
84
78
ENDCHAR
STARTCHAR 0418
ENCODING 1048
SWIDTH 960 0
DWIDTH 8 0
BBX 6 7 1 -1
BITMAP
84
84
8C
94
A4
C4
84
ENDCHAR
STARTCHAR 0419
ENCODING 1049
SWIDTH 960 0
DWIDTH 8 0
BBX 6 7 1 -1
BITMAP
48
B4
8C
94
A4
C4
84
ENDCHAR
STARTCHAR 041A
ENCODING 1050
SWIDTH 960 0
DWIDTH 8 0
BBX 6 7 1 -1
BITMAP
8C
90
90
E0
90
88
84
ENDCHAR
STARTCHAR 041B
ENCODING 1051
SWIDTH 960 0
DWIDTH 8 0
BBX 7 7 0 -1
BITMAP
3E
22
22
22
22
22
C2
ENDCHAR
STARTCHAR 041C
ENCODING 1052
SWIDTH 960 0
DWIDTH 8 0
BBX 7 7 0 -1
BITMAP
44
44
44
AA
AA
92
92
ENDCHAR
STARTCHAR 041D
ENCODING 1053
SWIDTH 960 0
DWIDTH 8 0
BBX 6 7 1 -1
BITMAP
84
84
84
FC
84
84
84
ENDCHAR
STARTCHAR 041E
ENCODING 1054
SWIDTH 960 0
DWIDTH 8 0
BBX 6 7 1 -1
BITMAP
78
84
84
84
84
84
78
ENDCHAR
STARTCHAR 041F
ENCODING 1055
SWIDTH 960 0
DWIDTH 8 0
BBX 6 7 1 -1
BITMAP
FC
84
84
84
84
84
84
ENDCHAR
STARTCHAR 0420
ENCODING 1056
SWIDTH 960 0
DWIDTH 8 0
BBX 6 7 1 -1
BITMAP
F8
84
84
F8
80
80
80
ENDCHAR
STARTCHAR 0421
ENCODING 1057
SWIDTH 960 0
DWIDTH 8 0
BBX 6 7 1 -1
BITMAP
78
84
80
80
80
84
78
ENDCHAR
STARTCHAR 0422
ENCODING 1058
SWIDTH 960 0
DWIDTH 8 0
BBX 7 7 0 -1
BITMAP
FE
10
10
10
10
10
10
ENDCHAR
STARTCHAR 0423
ENCODING 1059
SWIDTH 960 0
DWIDTH 8 0
BBX 6 7 1 -1
BITMAP
84
48
48
30
10
20
C0
ENDCHAR
STARTCHAR 0424
ENCODING 1060
SWIDTH 960 0
DWIDTH 8 0
BBX 7 7 0 -1
BITMAP
10
7C
92
92
92
7C
10
ENDCHAR
STARTCHAR 0425
ENCODING 1061
SWIDTH 960 0
DWIDTH 8 0
BBX 7 7 0 -1
BITMAP
82
44
28
10
28
44
82
ENDCHAR
STARTCHAR 0426
ENCODING 1062
SWIDTH 960 0
DWIDTH 8 0
BBX 6 7 1 -1
BITMAP
88
88
88
88
88
FC
04
ENDCHAR
STARTCHAR 0427
ENCODING 1063
SWIDTH 960 0
DWIDTH 8 0
BBX 6 7 1 -1
BITMAP
84
84
84
84
7C
04
04
ENDCHAR
STARTCHAR 0428
ENCODING 1064
SWIDTH 960 0
DWIDTH 8 0
BBX 7 7 0 -1
BITMAP
92
92
92
92
92
92
FE
ENDCHAR
STARTCHAR 0429
ENCODING 1065
SWIDTH 960 0
DWIDTH 8 0
BBX 7 7 0 -1
BITMAP
92
92
92
92
92
FE
02
ENDCHAR
STARTCHAR 042A
ENCODING 1066
SWIDTH 960 0
DWIDTH 8 0
BBX 6 7 1 -1
BITMAP
C0
40
40
78
44
44
78
ENDCHAR
STARTCHAR 042B
ENCODING 1067
SWIDTH 960 0
DWIDTH 8 0
BBX 6 7 1 -1
BITMAP
84
84
84
E4
94
94
E4
ENDCHAR
STARTCHAR 042C
ENCODING 1068
SWIDTH 960 0
DWIDTH 8 0
BBX 5 7 2 -1
BITMAP
80
80
80
F0
88
88
F0
ENDCHAR
STARTCHAR 042D
ENCODING 1069
SWIDTH 960 0
DWIDTH 8 0
BBX 6 7 1 -1
BITMAP
78
84
04
7C
04
84
78
ENDCHAR
STARTCHAR 042E
ENCODING 1070
SWIDTH 960 0
DWIDTH 8 0
BBX 7 7 0 -1
BITMAP
9C
A2
A2
E2
A2
A2
9C
ENDCHAR
STARTCHAR 042F
ENCODING 1071
SWIDTH 960 0
DWIDTH 8 0
BBX 6 7 1 -1
BITMAP
7C
84
84
7C
44
44
84
ENDCHAR
STARTCHAR 0430
ENCODING 1072
SWIDTH 960 0
DWIDTH 8 0
BBX 5 5 1 -1
BITMAP
70
08
78
88
78
ENDCHAR
STARTCHAR 0431
ENCODING 1073
SWIDTH 960 0
DWIDTH 8 0
BBX 5 7 1 -1
BITMAP
38
40
F0
88
88
88
70
ENDCHAR
STARTCHAR 0432
ENCODING 1074
SWIDTH 960 0
DWIDTH 8 0
BBX 5 5 1 -1
BITMAP
F0
88
F0
88
F0
ENDCHAR
STARTCHAR 0433
ENCODING 1075
SWIDTH 960 0
DWIDTH 8 0
BBX 5 5 1 -1
BITMAP
F8
80
80
80
80
ENDCHAR
STARTCHAR 0434
ENCODING 1076
SWIDTH 960 0
DWIDTH 8 0
BBX 5 5 1 -1
BITMAP
70
50
50
F8
88
ENDCHAR
STARTCHAR 0435
ENCODING 1077
SWIDTH 960 0
DWIDTH 8 0
BBX 5 5 1 -1
BITMAP
70
88
F8
80
70
ENDCHAR
STARTCHAR 0436
ENCODING 1078
SWIDTH 960 0
DWIDTH 8 0
BBX 7 5 0 -1
BITMAP
92
54
38
54
92
ENDCHAR
STARTCHAR 0437
ENCODING 1079
SWIDTH 960 0
DWIDTH 8 0
BBX 5 5 1 -1
BITMAP
70
88
30
88
70
ENDCHAR
STARTCHAR 0438
ENCODING 1080
SWIDTH 960 0
DWIDTH 8 0
BBX 5 5 1 -1
BITMAP
88
98
A8
C8
88
ENDCHAR
STARTCHAR 0439
ENCODING 1081
SWIDTH 960 0
DWIDTH 8 0
BBX 5 7 1 -1
BITMAP
50
20
88
98
A8
C8
88
ENDCHAR
STARTCHAR 043A
ENCODING 1082
SWIDTH 960 0
DWIDTH 8 0
BBX 5 5 1 -1
BITMAP
98
A0
E0
90
88
ENDCHAR
STARTCHAR 043B
ENCODING 1083
SWIDTH 960 0
DWIDTH 8 0
BBX 6 5 0 -1
BITMAP
3C
24
24
24
C4
ENDCHAR
STARTCHAR 043C
ENCODING 1084
SWIDTH 960 0
DWIDTH 8 0
BBX 5 5 1 -1
BITMAP
88
D8
A8
A8
88
ENDCHAR
STARTCHAR 043D
ENCODING 1085
SWIDTH 960 0
DWIDTH 8 0
BBX 5 5 1 -1
BITMAP
88
88
F8
88
88
ENDCHAR
STARTCHAR 043E
ENCODING 1086
SWIDTH 960 0
DWIDTH 8 0
BBX 5 5 1 -1
BITMAP
70
88
88
88
70
ENDCHAR
STARTCHAR 043F
ENCODING 1087
SWIDTH 960 0
DWIDTH 8 0
BBX 5 5 1 -1
BITMAP
F8
88
88
88
88
ENDCHAR
STARTCHAR 0440
ENCODING 1088
SWIDTH 960 0
DWIDTH 8 0
BBX 5 5 1 -1
BITMAP
F0
88
F0
80
80
ENDCHAR
STARTCHAR 0441
ENCODING 1089
SWIDTH 960 0
DWIDTH 8 0
BBX 5 5 1 -1
BITMAP
70
88
80
88
70
ENDCHAR
STARTCHAR 0442
ENCODING 1090
SWIDTH 960 0
DWIDTH 8 0
BBX 5 5 1 -1
BITMAP
F8
20
20
20
20
ENDCHAR
STARTCHAR 0443
ENCODING 1091
SWIDTH 960 0
DWIDTH 8 0
BBX 5 5 1 -1
BITMAP
88
50
50
20
C0
ENDCHAR
STARTCHAR 0444
ENCODING 1092
SWIDTH 960 0
DWIDTH 8 0
BBX 5 7 1 -1
BITMAP
20
20
70
A8
A8
70
20
ENDCHAR
STARTCHAR 0445
ENCODING 1093
SWIDTH 960 0
DWIDTH 8 0
BBX 5 5 1 -1
BITMAP
88
50
20
50
88
ENDCHAR
STARTCHAR 0446
ENCODING 1094
SWIDTH 960 0
DWIDTH 8 0
BBX 5 5 1 -1
BITMAP
90
90
90
F8
08
ENDCHAR
STARTCHAR 0447
ENCODING 1095
SWIDTH 960 0
DWIDTH 8 0
BBX 5 5 1 -1
BITMAP
88
88
88
78
08
ENDCHAR
STARTCHAR 0448
ENCODING 1096
SWIDTH 960 0
DWIDTH 8 0
BBX 5 5 1 -1
BITMAP
A8
A8
A8
A8
F8
ENDCHAR
STARTCHAR 0449
ENCODING 1097
SWIDTH 960 0
DWIDTH 8 0
BBX 6 5 1 -1
BITMAP
A8
A8
A8
FC
04
ENDCHAR
STARTCHAR 044A
ENCODING 1098
SWIDTH 960 0
DWIDTH 8 0
BBX 6 5 1 -1
BITMAP
C0
40
78
44
78
ENDCHAR
STARTCHAR 044B
ENCODING 1099
SWIDTH 960 0
DWIDTH 8 0
BBX 5 5 1 -1
BITMAP
88
88
E8
98
E8
ENDCHAR
STARTCHAR 044C
ENCODING 1100
SWIDTH 960 0
DWIDTH 8 0
BBX 5 5 1 -1
BITMAP
80
80
F0
88
F0
ENDCHAR
STARTCHAR 044D
ENCODING 1101
SWIDTH 960 0
DWIDTH 8 0
BBX 5 5 1 -1
BITMAP
70
88
38
88
70
ENDCHAR
STARTCHAR 044E
ENCODING 1102
SWIDTH 960 0
DWIDTH 8 0
BBX 6 5 1 -1
BITMAP
98
A4
E4
A4
98
ENDCHAR
STARTCHAR 044F
ENCODING 1103
SWIDTH 960 0
DWIDTH 8 0
BBX 5 5 1 -1
BITMAP
78
88
78
48
88
ENDCHAR
STARTCHAR 0451
ENCODING 1105
SWIDTH 960 0
DWIDTH 8 0
BBX 5 7 1 -1
BITMAP
50
00
70
88
F8
80
70
ENDCHAR
STARTCHAR 0457
ENCODING 1111
SWIDTH 960 0
DWIDTH 8 0
BBX 3 6 2 -1
BITMAP
A0
00
C0
40
40
E0
ENDCHAR
STARTCHAR 053E
ENCODING 1342
SWIDTH 960 0
DWIDTH 8 0
BBX 5 7 1 -1
BITMAP
80
70
08
70
88
88
70
ENDCHAR
STARTCHAR 0CA0
ENCODING 3232
SWIDTH 960 0
DWIDTH 8 0
BBX 3 3 2 0
BITMAP
80
E0
80
ENDCHAR
STARTCHAR 0CA5
ENCODING 3237
SWIDTH 960 0
DWIDTH 8 0
BBX 7 7 0 -1
BITMAP
02
FC
82
92
82
6C
10
ENDCHAR
STARTCHAR 0E01
ENCODING 3585
SWIDTH 960 0
DWIDTH 8 0
BBX 5 5 1 -1
BITMAP
70
88
48
88
88
ENDCHAR
STARTCHAR 0E05
ENCODING 3589
SWIDTH 960 0
DWIDTH 8 0
BBX 5 6 1 -1
BITMAP
50
A8
88
A8
D8
68
ENDCHAR
STARTCHAR 0E07
ENCODING 3591
SWIDTH 960 0
DWIDTH 8 0
BBX 5 6 1 -1
BITMAP
10
28
98
48
48
30
ENDCHAR
STARTCHAR 0E34
ENCODING 3636
SWIDTH 960 0
DWIDTH 8 0
BBX 7 4 0 2
BITMAP
38
44
82
FE
ENDCHAR
STARTCHAR 0E3F
ENCODING 3647
SWIDTH 960 0
DWIDTH 8 0
BBX 5 7 1 -1
BITMAP
20
F0
A8
F0
A8
F0
20
ENDCHAR
STARTCHAR 11C2
ENCODING 4546
SWIDTH 960 0
DWIDTH 8 0
BBX 7 5 0 -1
BITMAP
7C
00
FE
44
38
ENDCHAR
STARTCHAR 141B
ENCODING 5147
SWIDTH 960 0
DWIDTH 8 0
BBX 7 7 0 -1
BITMAP
04
02
FC
44
54
44
38
ENDCHAR
STARTCHAR 1D11
ENCODING 7441
SWIDTH 960 0
DWIDTH 8 0
BBX 5 4 1 -1
BITMAP
70
88
88
70
ENDCHAR
STARTCHAR 1D17
ENCODING 7447
SWIDTH 960 0
DWIDTH 8 0
BBX 5 2 1 -1
BITMAP
88
70
ENDCHAR
STARTCHAR 1D25
ENCODING 7461
SWIDTH 960 0
DWIDTH 8 0
BBX 7 5 0 0
BITMAP
38
38
10
AA
44
ENDCHAR
STARTCHAR 1D4D
ENCODING 7501
SWIDTH 960 0
DWIDTH 8 0
BBX 3 5 2 1
BITMAP
60
A0
60
20
C0
ENDCHAR
STARTCHAR 1D4E
ENCODING 7502
SWIDTH 960 0
DWIDTH 8 0
BBX 1 4 3 2
BITMAP
80
80
00
80
ENDCHAR
STARTCHAR 1D4F
ENCODING 7503
SWIDTH 960 0
DWIDTH 8 0
BBX 3 5 2 1
BITMAP
80
80
A0
C0
A0
ENDCHAR
STARTCHAR 1D50
ENCODING 7504
SWIDTH 960 0
DWIDTH 8 0
BBX 5 3 1 3
BITMAP
F0
A8
A8
ENDCHAR
STARTCHAR 1D52
ENCODING 7506
SWIDTH 960 0
DWIDTH 8 0
BBX 3 5 2 1
BITMAP
40
A0
A0
A0
40
ENDCHAR
STARTCHAR 1D55
ENCODING 7509
SWIDTH 960 0
DWIDTH 8 0
BBX 5 2 1 3
BITMAP
88
70
ENDCHAR
STARTCHAR 1E3F
ENCODING 7743
SWIDTH 480 0
DWIDTH 4 0
BBX 3 6 0 0
BITMAP
20
40
00
E0
E0
A0
ENDCHAR
STARTCHAR 1E80
ENCODING 7808
SWIDTH 720 0
DWIDTH 6 0
BBX 5 9 0 0
BITMAP
20
10
00
88
88
A8
A8
A8
50
ENDCHAR
STARTCHAR 1E81
ENCODING 7809
SWIDTH 720 0
DWIDTH 6 0
BBX 5 7 0 0
BITMAP
40
20
00
88
A8
F0
A0
ENDCHAR
STARTCHAR 1E82
ENCODING 7810
SWIDTH 720 0
DWIDTH 6 0
BBX 5 9 0 0
BITMAP
10
20
00
88
88
A8
A8
A8
50
ENDCHAR
STARTCHAR 1E83
ENCODING 7811
SWIDTH 720 0
DWIDTH 6 0
BBX 5 7 0 0
BITMAP
10
20
00
88
A8
F0
A0
ENDCHAR
STARTCHAR 1E84
ENCODING 7812
SWIDTH 720 0
DWIDTH 6 0
BBX 5 8 0 0
BITMAP
50
00
88
88
A8
A8
A8
50
ENDCHAR
STARTCHAR 1E85
ENCODING 7813
SWIDTH 720 0
DWIDTH 6 0
BBX 5 6 0 0
BITMAP
50
00
88
A8
F0
A0
ENDCHAR
STARTCHAR 1E9E
ENCODING 7838
SWIDTH 600 0
DWIDTH 5 0
BBX 4 6 0 0
BITMAP
60
90
A0
90
90
A0
ENDCHAR
STARTCHAR 1ECF
ENCODING 7887
SWIDTH 960 0
DWIDTH 8 0
BBX 5 7 1 -1
BITMAP
60
10
20
70
88
88
70
ENDCHAR
STARTCHAR 1EF2
ENCODING 7922
SWIDTH 600 0
DWIDTH 5 0
BBX 4 9 0 0
BITMAP
40
20
00
90
90
70
10
20
C0
ENDCHAR
STARTCHAR 1EF3
ENCODING 7923
SWIDTH 480 0
DWIDTH 4 0
BBX 3 8 0 -1
BITMAP
80
40
00
A0
A0
60
20
C0
ENDCHAR
STARTCHAR 1FC0
ENCODING 8128
SWIDTH 960 0
DWIDTH 8 0
BBX 5 2 1 4
BITMAP
68
90
ENDCHAR
STARTCHAR 2000
ENCODING 8192
SWIDTH 480 0
DWIDTH 4 0
BBX 0 0 0 0
BITMAP
ENDCHAR
STARTCHAR 2001
ENCODING 8193
SWIDTH 480 0
DWIDTH 4 0
BBX 0 0 0 0
BITMAP
ENDCHAR
STARTCHAR 2002
ENCODING 8194
SWIDTH 480 0
DWIDTH 4 0
BBX 0 0 0 0
BITMAP
ENDCHAR
STARTCHAR 2003
ENCODING 8195
SWIDTH 960 0
DWIDTH 8 0
BBX 0 0 0 0
BITMAP
ENDCHAR
STARTCHAR 2004
ENCODING 8196
SWIDTH 480 0
DWIDTH 4 0
BBX 0 0 0 0
BITMAP
ENDCHAR
STARTCHAR 2005
ENCODING 8197
SWIDTH 480 0
DWIDTH 4 0
BBX 0 0 0 0
BITMAP
ENDCHAR
STARTCHAR 2006
ENCODING 8198
SWIDTH 480 0
DWIDTH 4 0
BBX 0 0 0 0
BITMAP
ENDCHAR
STARTCHAR 2007
ENCODING 8199
SWIDTH 480 0
DWIDTH 4 0
BBX 0 0 0 0
BITMAP
ENDCHAR
STARTCHAR 2008
ENCODING 8200
SWIDTH 480 0
DWIDTH 4 0
BBX 0 0 0 0
BITMAP
ENDCHAR
STARTCHAR 2009
ENCODING 8201
SWIDTH 480 0
DWIDTH 4 0
BBX 0 0 0 0
BITMAP
ENDCHAR
STARTCHAR 200A
ENCODING 8202
SWIDTH 480 0
DWIDTH 4 0
BBX 0 0 0 0
BITMAP
ENDCHAR
STARTCHAR 2010
ENCODING 8208
SWIDTH 960 0
DWIDTH 8 0
BBX 2 1 3 2
BITMAP
C0
ENDCHAR
STARTCHAR 2011
ENCODING 8209
SWIDTH 480 0
DWIDTH 4 0
BBX 2 1 1 2
BITMAP
C0
ENDCHAR
STARTCHAR 2012
ENCODING 8210
SWIDTH 480 0
DWIDTH 4 0
BBX 3 1 0 2
BITMAP
E0
ENDCHAR
STARTCHAR 2013
ENCODING 8211
SWIDTH 960 0
DWIDTH 8 0
BBX 4 1 2 2
BITMAP
F0
ENDCHAR
STARTCHAR 2014
ENCODING 8212
SWIDTH 960 0
DWIDTH 8 0
BBX 7 1 0 2
BITMAP
FE
ENDCHAR
STARTCHAR 2015
ENCODING 8213
SWIDTH 960 0
DWIDTH 8 0
BBX 8 1 0 2
BITMAP
FF
ENDCHAR
STARTCHAR 2016
ENCODING 8214
SWIDTH 960 0
DWIDTH 8 0
BBX 3 7 2 -1
BITMAP
A0
A0
A0
A0
A0
A0
A0
ENDCHAR
STARTCHAR 2018
ENCODING 8216
SWIDTH 960 0
DWIDTH 8 0
BBX 2 3 4 3
BITMAP
40
80
C0
ENDCHAR
STARTCHAR 2019
ENCODING 8217
SWIDTH 960 0
DWIDTH 8 0
BBX 2 3 1 3
BITMAP
C0
40
80
ENDCHAR
STARTCHAR 201A
ENCODING 8218
SWIDTH 960 0
DWIDTH 8 0
BBX 2 3 0 -1
BITMAP
40
40
80
ENDCHAR
STARTCHAR 201C
ENCODING 8220
SWIDTH 960 0
DWIDTH 8 0
BBX 5 3 1 3
BITMAP
48
90
D8
ENDCHAR
STARTCHAR 201D
ENCODING 8221
SWIDTH 960 0
DWIDTH 8 0
BBX 5 3 1 3
BITMAP
D8
48
90
ENDCHAR
STARTCHAR 201E
ENCODING 8222
SWIDTH 960 0
DWIDTH 8 0
BBX 4 3 0 -1
BITMAP
50
50
A0
ENDCHAR
STARTCHAR 2020
ENCODING 8224
SWIDTH 960 0
DWIDTH 8 0
BBX 3 7 2 -1
BITMAP
40
E0
40
40
40
40
40
ENDCHAR
STARTCHAR 2021
ENCODING 8225
SWIDTH 960 0
DWIDTH 8 0
BBX 3 7 2 -1
BITMAP
40
E0
40
40
40
E0
40
ENDCHAR
STARTCHAR 2022
ENCODING 8226
SWIDTH 960 0
DWIDTH 8 0
BBX 3 3 2 1
BITMAP
40
E0
40
ENDCHAR
STARTCHAR 2025
ENCODING 8229
SWIDTH 960 0
DWIDTH 8 0
BBX 5 1 1 2
BITMAP
88
ENDCHAR
STARTCHAR 2026
ENCODING 8230
SWIDTH 960 0
DWIDTH 8 0
BBX 7 1 0 2
BITMAP
92
ENDCHAR
STARTCHAR 2027
ENCODING 8231
SWIDTH 960 0
DWIDTH 8 0
BBX 1 1 3 2
BITMAP
80
ENDCHAR
STARTCHAR 2030
ENCODING 8240
SWIDTH 960 0
DWIDTH 8 0
BBX 7 7 0 -1
BITMAP
44
A8
50
20
54
AA
14
ENDCHAR
STARTCHAR 2032
ENCODING 8242
SWIDTH 960 0
DWIDTH 8 0
BBX 2 3 1 3
BITMAP
40
40
80
ENDCHAR
STARTCHAR 2033
ENCODING 8243
SWIDTH 960 0
DWIDTH 8 0
BBX 4 3 1 3
BITMAP
50
50
A0
ENDCHAR
STARTCHAR 2034
ENCODING 8244
SWIDTH 960 0
DWIDTH 8 0
BBX 6 3 0 3
BITMAP
54
54
A8
ENDCHAR
STARTCHAR 2035
ENCODING 8245
SWIDTH 960 0
DWIDTH 8 0
BBX 2 2 3 4
BITMAP
80
40
ENDCHAR
STARTCHAR 2037
ENCODING 8247
SWIDTH 960 0
DWIDTH 8 0
BBX 6 3 1 3
BITMAP
A8
A8
54
ENDCHAR
STARTCHAR 2038
ENCODING 8248
SWIDTH 960 0
DWIDTH 8 0
BBX 5 4 1 -1
BITMAP
20
50
50
88
ENDCHAR
STARTCHAR 2039
ENCODING 8249
SWIDTH 480 0
DWIDTH 4 0
BBX 2 4 1 1
BITMAP
40
80
80
40
ENDCHAR
STARTCHAR 203A
ENCODING 8250
SWIDTH 480 0
DWIDTH 4 0
BBX 2 4 1 1
BITMAP
80
40
40
80
ENDCHAR
STARTCHAR 203B
ENCODING 8251
SWIDTH 960 0
DWIDTH 8 0
BBX 7 7 0 -1
BITMAP
92
44
28
92
28
44
92
ENDCHAR
STARTCHAR 203C
ENCODING 8252
SWIDTH 960 0
DWIDTH 8 0
BBX 3 7 2 -1
BITMAP
A0
A0
A0
A0
A0
00
A0
ENDCHAR
STARTCHAR 203E
ENCODING 8254
SWIDTH 960 0
DWIDTH 8 0
BBX 7 1 0 5
BITMAP
FE
ENDCHAR
STARTCHAR 203F
ENCODING 8255
SWIDTH 960 0
DWIDTH 8 0
BBX 7 2 0 -1
BITMAP
82
7C
ENDCHAR
STARTCHAR 2044
ENCODING 8260
SWIDTH 960 0
DWIDTH 8 0
BBX 5 7 1 -1
BITMAP
08
10
10
20
40
40
80
ENDCHAR
STARTCHAR 2070
ENCODING 8304
SWIDTH 960 0
DWIDTH 8 0
BBX 3 4 2 2
BITMAP
40
A0
A0
40
ENDCHAR
STARTCHAR 207D
ENCODING 8317
SWIDTH 960 0
DWIDTH 8 0
BBX 2 4 2 2
BITMAP
40
80
80
40
ENDCHAR
STARTCHAR 207E
ENCODING 8318
SWIDTH 960 0
DWIDTH 8 0
BBX 2 4 2 2
BITMAP
80
40
40
80
ENDCHAR
STARTCHAR 2080
ENCODING 8320
SWIDTH 960 0
DWIDTH 8 0
BBX 3 4 2 -1
BITMAP
40
A0
A0
40
ENDCHAR
STARTCHAR 2083
ENCODING 8323
SWIDTH 960 0
DWIDTH 8 0
BBX 3 4 2 -1
BITMAP
E0
40
20
C0
ENDCHAR
STARTCHAR 208D
ENCODING 8333
SWIDTH 960 0
DWIDTH 8 0
BBX 2 4 3 -1
BITMAP
40
80
80
40
ENDCHAR
STARTCHAR 208E
ENCODING 8334
SWIDTH 960 0
DWIDTH 8 0
BBX 2 4 2 -1
BITMAP
80
40
40
80
ENDCHAR
STARTCHAR 20AC
ENCODING 8364
SWIDTH 840 0
DWIDTH 7 0
BBX 6 7 0 -1
BITMAP
38
44
F0
40
F0
40
3C
ENDCHAR
STARTCHAR 20DD
ENCODING 8413
SWIDTH 960 0
DWIDTH 8 0
BBX 7 7 0 -1
BITMAP
38
44
82
82
82
44
38
ENDCHAR
STARTCHAR 2103
ENCODING 8451
SWIDTH 960 0
DWIDTH 8 0
BBX 7 7 0 -1
BITMAP
40
AC
52
10
10
12
0C
ENDCHAR
STARTCHAR 2105
ENCODING 8453
SWIDTH 960 0
DWIDTH 8 0
BBX 7 7 0 -1
BITMAP
62
84
68
10
2C
52
8C
ENDCHAR
STARTCHAR 2109
ENCODING 8457
SWIDTH 960 0
DWIDTH 8 0
BBX 7 7 0 -1
BITMAP
40
BE
50
1E
10
10
10
ENDCHAR
STARTCHAR 2116
ENCODING 8470
SWIDTH 960 0
DWIDTH 8 0
BBX 7 7 0 -1
BITMAP
94
9A
DA
BA
94
90
96
ENDCHAR
STARTCHAR 2121
ENCODING 8481
SWIDTH 960 0
DWIDTH 8 0
BBX 7 7 0 -1
BITMAP
E2
42
4A
56
5A
52
4A
ENDCHAR
STARTCHAR 2122
ENCODING 8482
SWIDTH 960 0
DWIDTH 8 0
BBX 6 3 0 3
BITMAP
F4
5C
54
ENDCHAR
STARTCHAR 212B
ENCODING 8491
SWIDTH 960 0
DWIDTH 8 0
BBX 7 7 0 -1
BITMAP
10
28
10
28
44
7C
82
ENDCHAR
STARTCHAR 2160
ENCODING 8544
SWIDTH 960 0
DWIDTH 8 0
BBX 1 7 3 -1
BITMAP
80
80
80
80
80
80
80
ENDCHAR
STARTCHAR 2161
ENCODING 8545
SWIDTH 960 0
DWIDTH 8 0
BBX 3 7 2 -1
BITMAP
A0
A0
A0
A0
A0
A0
A0
ENDCHAR
STARTCHAR 2162
ENCODING 8546
SWIDTH 960 0
DWIDTH 8 0
BBX 5 7 1 -1
BITMAP
A8
A8
A8
A8
A8
A8
A8
ENDCHAR
STARTCHAR 2163
ENCODING 8547
SWIDTH 960 0
DWIDTH 8 0
BBX 7 7 0 -1
BITMAP
A2
A2
94
94
94
88
88
ENDCHAR
STARTCHAR 2164
ENCODING 8548
SWIDTH 960 0
DWIDTH 8 0
BBX 5 7 1 -1
BITMAP
88
88
50
50
50
20
20
ENDCHAR
STARTCHAR 2165
ENCODING 8549
SWIDTH 960 0
DWIDTH 8 0
BBX 7 7 0 -1
BITMAP
8A
8A
52
52
52
22
22
ENDCHAR
STARTCHAR 2166
ENCODING 8550
SWIDTH 960 0
DWIDTH 8 0
BBX 7 7 0 -1
BITMAP
AA
AA
AA
AA
AA
4A
4A
ENDCHAR
STARTCHAR 2167
ENCODING 8551
SWIDTH 960 0
DWIDTH 8 0
BBX 7 7 0 -1
BITMAP
BA
BA
BA
BA
5A
5A
5A
ENDCHAR
STARTCHAR 2168
ENCODING 8552
SWIDTH 960 0
DWIDTH 8 0
BBX 7 7 0 -1
BITMAP
A2
94
94
88
94
94
A2
ENDCHAR
STARTCHAR 2169
ENCODING 8553
SWIDTH 960 0
DWIDTH 8 0
BBX 5 7 1 -1
BITMAP
88
50
50
20
50
50
88
ENDCHAR
STARTCHAR 216A
ENCODING 8554
SWIDTH 960 0
DWIDTH 8 0
BBX 7 7 0 -1
BITMAP
DE
54
24
24
24
54
DE
ENDCHAR
STARTCHAR 216B
ENCODING 8555
SWIDTH 960 0
DWIDTH 8 0
BBX 7 7 0 -1
BITMAP
AA
AA
4A
4A
4A
AA
AA
ENDCHAR
STARTCHAR 2170
ENCODING 8560
SWIDTH 960 0
DWIDTH 8 0
BBX 1 7 3 -1
BITMAP
80
00
80
80
80
80
80
ENDCHAR
STARTCHAR 2171
ENCODING 8561
SWIDTH 960 0
DWIDTH 8 0
BBX 4 7 2 -1
BITMAP
90
00
90
90
90
90
90
ENDCHAR
STARTCHAR 2172
ENCODING 8562
SWIDTH 960 0
DWIDTH 8 0
BBX 5 7 1 -1
BITMAP
A8
00
A8
A8
A8
A8
A8
ENDCHAR
STARTCHAR 2173
ENCODING 8563
SWIDTH 960 0
DWIDTH 8 0
BBX 5 7 1 -1
BITMAP
80
00
A8
A8
A8
90
90
ENDCHAR
STARTCHAR 2174
ENCODING 8564
SWIDTH 960 0
DWIDTH 8 0
BBX 5 5 1 -1
BITMAP
88
88
50
50
20
ENDCHAR
STARTCHAR 2175
ENCODING 8565
SWIDTH 960 0
DWIDTH 8 0
BBX 5 7 1 -1
BITMAP
08
00
A8
A8
A8
48
48
ENDCHAR
STARTCHAR 2176
ENCODING 8566
SWIDTH 960 0
DWIDTH 8 0
BBX 7 7 0 -1
BITMAP
0A
00
AA
AA
AA
4A
4A
ENDCHAR
STARTCHAR 2177
ENCODING 8567
SWIDTH 960 0
DWIDTH 8 0
BBX 7 7 0 -1
BITMAP
2A
00
AA
AA
AA
4A
4A
ENDCHAR
STARTCHAR 2178
ENCODING 8568
SWIDTH 960 0
DWIDTH 8 0
BBX 5 7 1 -1
BITMAP
80
00
A8
A8
90
A8
A8
ENDCHAR
STARTCHAR 2179
ENCODING 8569
SWIDTH 960 0
DWIDTH 8 0
BBX 5 5 1 -1
BITMAP
88
50
20
50
88
ENDCHAR
STARTCHAR 2181
ENCODING 8577
SWIDTH 960 0
DWIDTH 8 0
BBX 6 7 1 -1
BITMAP
F0
48
64
54
64
48
F0
ENDCHAR
STARTCHAR 2182
ENCODING 8578
SWIDTH 960 0
DWIDTH 8 0
BBX 7 7 0 -1
BITMAP
38
54
AA
AA
AA
54
38
ENDCHAR
STARTCHAR 2190
ENCODING 8592
SWIDTH 960 0
DWIDTH 8 0
BBX 7 5 0 0
BITMAP
20
40
FE
40
20
ENDCHAR
STARTCHAR 2191
ENCODING 8593
SWIDTH 960 0
DWIDTH 8 0
BBX 5 7 1 -1
BITMAP
20
70
A8
20
20
20
20
ENDCHAR
STARTCHAR 2192
ENCODING 8594
SWIDTH 960 0
DWIDTH 8 0
BBX 7 5 0 0
BITMAP
08
04
FE
04
08
ENDCHAR
STARTCHAR 2193
ENCODING 8595
SWIDTH 960 0
DWIDTH 8 0
BBX 5 7 1 -1
BITMAP
20
20
20
20
A8
70
20
ENDCHAR
STARTCHAR 2194
ENCODING 8596
SWIDTH 960 0
DWIDTH 8 0
BBX 7 5 0 0
BITMAP
28
44
FE
44
28
ENDCHAR
STARTCHAR 2195
ENCODING 8597
SWIDTH 960 0
DWIDTH 8 0
BBX 5 7 1 -1
BITMAP
20
70
A8
20
A8
70
20
ENDCHAR
STARTCHAR 2196
ENCODING 8598
SWIDTH 960 0
DWIDTH 8 0
BBX 7 7 0 -1
BITMAP
F0
C0
A0
90
08
04
02
ENDCHAR
STARTCHAR 2197
ENCODING 8599
SWIDTH 960 0
DWIDTH 8 0
BBX 7 7 0 -1
BITMAP
1E
06
0A
12
20
40
80
ENDCHAR
STARTCHAR 2198
ENCODING 8600
SWIDTH 960 0
DWIDTH 8 0
BBX 7 7 0 -1
BITMAP
80
40
20
12
0A
06
1E
ENDCHAR
STARTCHAR 2199
ENCODING 8601
SWIDTH 960 0
DWIDTH 8 0
BBX 7 7 0 -1
BITMAP
02
04
08
90
A0
C0
F0
ENDCHAR
STARTCHAR 21B8
ENCODING 8632
SWIDTH 960 0
DWIDTH 8 0
BBX 7 7 0 -1
BITMAP
FE
00
70
60
50
08
04
ENDCHAR
STARTCHAR 21B9
ENCODING 8633
SWIDTH 960 0
DWIDTH 8 0
BBX 7 7 0 -1
BITMAP
90
BE
90
00
12
FA
12
ENDCHAR
STARTCHAR 21CE
ENCODING 8654
SWIDTH 960 0
DWIDTH 8 0
BBX 7 7 0 -1
BITMAP
02
2C
64
FE
4C
68
80
ENDCHAR
STARTCHAR 21D2
ENCODING 8658
SWIDTH 960 0
DWIDTH 8 0
BBX 7 5 0 0
BITMAP
08
FC
02
FC
08
ENDCHAR
STARTCHAR 21D4
ENCODING 8660
SWIDTH 960 0
DWIDTH 8 0
BBX 7 5 0 0
BITMAP
28
7C
82
7C
28
ENDCHAR
STARTCHAR 21E7
ENCODING 8679
SWIDTH 960 0
DWIDTH 8 0
BBX 7 7 0 -1
BITMAP
10
28
44
82
EE
28
38
ENDCHAR
STARTCHAR 2200
ENCODING 8704
SWIDTH 960 0
DWIDTH 8 0
BBX 7 7 0 -1
BITMAP
82
82
7C
44
28
28
10
ENDCHAR
STARTCHAR 2202
ENCODING 8706
SWIDTH 960 0
DWIDTH 8 0
BBX 5 7 1 -1
BITMAP
30
48
08
68
90
90
60
ENDCHAR
STARTCHAR 2203
ENCODING 8707
SWIDTH 960 0
DWIDTH 8 0
BBX 6 7 1 -1
BITMAP
FC
04
04
FC
04
04
FC
ENDCHAR
STARTCHAR 2207
ENCODING 8711
SWIDTH 960 0
DWIDTH 8 0
BBX 7 7 0 -1
BITMAP
FE
82
44
44
28
28
10
ENDCHAR
STARTCHAR 2208
ENCODING 8712
SWIDTH 960 0
DWIDTH 8 0
BBX 6 5 1 0
BITMAP
7C
80
FC
80
7C
ENDCHAR
STARTCHAR 220B
ENCODING 8715
SWIDTH 960 0
DWIDTH 8 0
BBX 6 5 1 0
BITMAP
F8
04
FC
04
F8
ENDCHAR
STARTCHAR 220F
ENCODING 8719
SWIDTH 960 0
DWIDTH 8 0
BBX 7 7 0 -1
BITMAP
FE
44
44
44
44
44
EE
ENDCHAR
STARTCHAR 2211
ENCODING 8721
SWIDTH 960 0
DWIDTH 8 0
BBX 6 7 1 -1
BITMAP
FC
40
20
10
20
40
FC
ENDCHAR
STARTCHAR 2212
ENCODING 8722
SWIDTH 480 0
DWIDTH 4 0
BBX 3 1 0 2
BITMAP
E0
ENDCHAR
STARTCHAR 2215
ENCODING 8725
SWIDTH 960 0
DWIDTH 8 0
BBX 4 7 2 -1
BITMAP
10
10
20
20
40
40
80
ENDCHAR
STARTCHAR 2219
ENCODING 8729
SWIDTH 960 0
DWIDTH 8 0
BBX 1 1 3 2
BITMAP
80
ENDCHAR
STARTCHAR 221A
ENCODING 8730
SWIDTH 960 0
DWIDTH 8 0
BBX 7 7 0 -1
BITMAP
1E
10
20
20
E0
40
40
ENDCHAR
STARTCHAR 221D
ENCODING 8733
SWIDTH 960 0
DWIDTH 8 0
BBX 7 5 0 0
BITMAP
6C
92
90
92
6C
ENDCHAR
STARTCHAR 221E
ENCODING 8734
SWIDTH 960 0
DWIDTH 8 0
BBX 7 5 0 0
BITMAP
6C
92
92
92
6C
ENDCHAR
STARTCHAR 221F
ENCODING 8735
SWIDTH 960 0
DWIDTH 8 0
BBX 6 6 1 -1
BITMAP
80
80
80
80
80
FC
ENDCHAR
STARTCHAR 2220
ENCODING 8736
SWIDTH 960 0
DWIDTH 8 0
BBX 6 6 1 -1
BITMAP
04
08
10
20
40
FC
ENDCHAR
STARTCHAR 2223
ENCODING 8739
SWIDTH 960 0
DWIDTH 8 0
BBX 1 5 3 0
BITMAP
80
80
80
80
80
ENDCHAR
STARTCHAR 2225
ENCODING 8741
SWIDTH 960 0
DWIDTH 8 0
BBX 5 7 1 -1
BITMAP
28
28
50
50
50
A0
A0
ENDCHAR
STARTCHAR 2227
ENCODING 8743
SWIDTH 960 0
DWIDTH 8 0
BBX 7 7 0 -1
BITMAP
10
10
28
28
44
44
82
ENDCHAR
STARTCHAR 2228
ENCODING 8744
SWIDTH 960 0
DWIDTH 8 0
BBX 7 7 0 -1
BITMAP
82
44
44
28
28
10
10
ENDCHAR
STARTCHAR 2229
ENCODING 8745
SWIDTH 960 0
DWIDTH 8 0
BBX 6 6 1 -1
BITMAP
78
84
84
84
84
84
ENDCHAR
STARTCHAR 222A
ENCODING 8746
SWIDTH 960 0
DWIDTH 8 0
BBX 6 6 1 0
BITMAP
84
84
84
84
84
78
ENDCHAR
STARTCHAR 222B
ENCODING 8747
SWIDTH 960 0
DWIDTH 8 0
BBX 3 7 2 -1
BITMAP
60
80
80
40
20
20
C0
ENDCHAR
STARTCHAR 222C
ENCODING 8748
SWIDTH 960 0
DWIDTH 8 0
BBX 6 7 1 -1
BITMAP
6C
90
90
48
24
24
D8
ENDCHAR
STARTCHAR 222E
ENCODING 8750
SWIDTH 960 0
DWIDTH 8 0
BBX 5 7 1 -1
BITMAP
30
40
70
A8
70
10
60
ENDCHAR
STARTCHAR 2234
ENCODING 8756
SWIDTH 960 0
DWIDTH 8 0
BBX 5 5 1 0
BITMAP
20
00
00
00
88
ENDCHAR
STARTCHAR 2235
ENCODING 8757
SWIDTH 960 0
DWIDTH 8 0
BBX 5 5 1 0
BITMAP
88
00
00
00
20
ENDCHAR
STARTCHAR 2236
ENCODING 8758
SWIDTH 960 0
DWIDTH 8 0
BBX 1 5 3 0
BITMAP
80
00
00
00
80
ENDCHAR
STARTCHAR 2237
ENCODING 8759
SWIDTH 960 0
DWIDTH 8 0
BBX 3 3 2 1
BITMAP
A0
00
A0
ENDCHAR
STARTCHAR 223C
ENCODING 8764
SWIDTH 600 0
DWIDTH 5 0
BBX 4 2 0 2
BITMAP
50
A0
ENDCHAR
STARTCHAR 223D
ENCODING 8765
SWIDTH 960 0
DWIDTH 8 0
BBX 7 5 0 0
BITMAP
4C
92
92
92
64
ENDCHAR
STARTCHAR 2248
ENCODING 8776
SWIDTH 960 0
DWIDTH 8 0
BBX 6 5 1 0
BITMAP
64
98
00
64
98
ENDCHAR
STARTCHAR 224C
ENCODING 8780
SWIDTH 960 0
DWIDTH 8 0
BBX 7 7 0 -1
BITMAP
4C
92
64
00
FE
00
FE
ENDCHAR
STARTCHAR 2252
ENCODING 8786
SWIDTH 960 0
DWIDTH 8 0
BBX 7 7 0 -1
BITMAP
40
00
FE
00
FE
00
04
ENDCHAR
STARTCHAR 2256
ENCODING 8790
SWIDTH 960 0
DWIDTH 8 0
BBX 7 5 0 0
BITMAP
FE
28
44
28
FE
ENDCHAR
STARTCHAR 225D
ENCODING 8797
SWIDTH 960 0
DWIDTH 8 0
BBX 7 7 0 -1
BITMAP
46
D4
DC
00
FE
00
FE
ENDCHAR
STARTCHAR 2260
ENCODING 8800
SWIDTH 960 0
DWIDTH 8 0
BBX 7 5 0 0
BITMAP
04
FE
10
FE
40
ENDCHAR
STARTCHAR 2261
ENCODING 8801
SWIDTH 960 0
DWIDTH 8 0
BBX 6 5 1 0
BITMAP
FC
00
FC
00
FC
ENDCHAR
STARTCHAR 2264
ENCODING 8804
SWIDTH 960 0
DWIDTH 8 0
BBX 7 7 0 -1
BITMAP
06
38
C0
38
06
00
FE
ENDCHAR
STARTCHAR 2265
ENCODING 8805
SWIDTH 960 0
DWIDTH 8 0
BBX 7 7 0 -1
BITMAP
C0
38
06
38
C0
00
FE
ENDCHAR
STARTCHAR 2266
ENCODING 8806
SWIDTH 960 0
DWIDTH 8 0
BBX 7 7 0 -1
BITMAP
06
38
C0
38
06
00
FE
ENDCHAR
STARTCHAR 2267
ENCODING 8807
SWIDTH 960 0
DWIDTH 8 0
BBX 7 7 0 -1
BITMAP
C0
38
06
38
C0
00
FE
ENDCHAR
STARTCHAR 226A
ENCODING 8810
SWIDTH 960 0
DWIDTH 8 0
BBX 6 5 0 0
BITMAP
24
48
90
48
24
ENDCHAR
STARTCHAR 226B
ENCODING 8811
SWIDTH 960 0
DWIDTH 8 0
BBX 6 5 1 0
BITMAP
90
48
24
48
90
ENDCHAR
STARTCHAR 226E
ENCODING 8814
SWIDTH 960 0
DWIDTH 8 0
BBX 7 7 0 -1
BITMAP
08
0E
38
C8
38
0E
08
ENDCHAR
STARTCHAR 226F
ENCODING 8815
SWIDTH 960 0
DWIDTH 8 0
BBX 7 7 0 -1
BITMAP
20
E0
38
26
38
E0
20
ENDCHAR
STARTCHAR 227C
ENCODING 8828
SWIDTH 960 0
DWIDTH 8 0
BBX 7 7 0 -1
BITMAP
06
38
C0
38
06
F0
0E
ENDCHAR
STARTCHAR 227D
ENCODING 8829
SWIDTH 960 0
DWIDTH 8 0
BBX 7 7 0 -1
BITMAP
C0
38
06
38
C0
1E
E0
ENDCHAR
STARTCHAR 2282
ENCODING 8834
SWIDTH 960 0
DWIDTH 8 0
BBX 6 5 1 0
BITMAP
7C
80
80
80
7C
ENDCHAR
STARTCHAR 2283
ENCODING 8835
SWIDTH 960 0
DWIDTH 8 0
BBX 6 5 1 0
BITMAP
F8
04
04
04
F8
ENDCHAR
STARTCHAR 2286
ENCODING 8838
SWIDTH 960 0
DWIDTH 8 0
BBX 6 7 1 -1
BITMAP
7C
80
80
80
7C
00
FC
ENDCHAR
STARTCHAR 2287
ENCODING 8839
SWIDTH 960 0
DWIDTH 8 0
BBX 6 7 1 -1
BITMAP
F8
04
04
04
F8
00
FC
ENDCHAR
STARTCHAR 2295
ENCODING 8853
SWIDTH 960 0
DWIDTH 8 0
BBX 5 5 1 0
BITMAP
70
A8
F8
A8
70
ENDCHAR
STARTCHAR 2296
ENCODING 8854
SWIDTH 960 0
DWIDTH 8 0
BBX 7 7 0 -1
BITMAP
38
44
82
FE
82
44
38
ENDCHAR
STARTCHAR 2299
ENCODING 8857
SWIDTH 960 0
DWIDTH 8 0
BBX 7 7 0 -1
BITMAP
38
44
82
92
82
44
38
ENDCHAR
STARTCHAR 229C
ENCODING 8860
SWIDTH 960 0
DWIDTH 8 0
BBX 7 7 0 -1
BITMAP
38
44
BA
82
BA
44
38
ENDCHAR
STARTCHAR 22A5
ENCODING 8869
SWIDTH 960 0
DWIDTH 8 0
BBX 7 6 0 -1
BITMAP
10
10
10
10
10
FE
ENDCHAR
STARTCHAR 22B9
ENCODING 8889
SWIDTH 960 0
DWIDTH 8 0
BBX 7 7 0 -1
BITMAP
10
10
00
C6
00
10
10
ENDCHAR
STARTCHAR 22BF
ENCODING 8895
SWIDTH 960 0
DWIDTH 8 0
BBX 6 6 1 -1
BITMAP
04
0C
14
24
44
FC
ENDCHAR
STARTCHAR 22C3
ENCODING 8899
SWIDTH 960 0
DWIDTH 8 0
BBX 7 7 0 -1
BITMAP
82
82
82
82
82
44
38
ENDCHAR
STARTCHAR 22DA
ENCODING 8922
SWIDTH 960 0
DWIDTH 8 0
BBX 7 7 0 -1
BITMAP
1E
E0
18
FE
30
0E
F0
ENDCHAR
STARTCHAR 22DB
ENCODING 8923
SWIDTH 960 0
DWIDTH 8 0
BBX 7 7 0 -1
BITMAP
F0
0E
30
FE
18
E0
1E
ENDCHAR
STARTCHAR 2312
ENCODING 8978
SWIDTH 960 0
DWIDTH 8 0
BBX 7 2 0 4
BITMAP
7C
82
ENDCHAR
STARTCHAR 239B
ENCODING 9115
SWIDTH 960 0
DWIDTH 8 0
BBX 2 7 3 -1
BITMAP
40
80
80
80
80
80
80
ENDCHAR
STARTCHAR 239D
ENCODING 9117
SWIDTH 960 0
DWIDTH 8 0
BBX 2 7 3 -1
BITMAP
80
80
80
80
80
80
40
ENDCHAR
STARTCHAR 239E
ENCODING 9118
SWIDTH 960 0
DWIDTH 8 0
BBX 2 7 2 -1
BITMAP
80
40
40
40
40
40
40
ENDCHAR
STARTCHAR 23A0
ENCODING 9120
SWIDTH 960 0
DWIDTH 8 0
BBX 2 7 2 -1
BITMAP
40
40
40
40
40
40
80
ENDCHAR
STARTCHAR 23A9
ENCODING 9129
SWIDTH 960 0
DWIDTH 8 0
BBX 3 7 2 -1
BITMAP
80
80
80
80
80
40
20
ENDCHAR
STARTCHAR 23AD
ENCODING 9133
SWIDTH 960 0
DWIDTH 8 0
BBX 3 7 2 -1
BITMAP
20
20
20
20
20
40
80
ENDCHAR
STARTCHAR 23DA
ENCODING 9178
SWIDTH 960 0
DWIDTH 8 0
BBX 7 7 0 -1
BITMAP
10
10
FE
00
7C
00
7C
ENDCHAR
STARTCHAR 23DB
ENCODING 9179
SWIDTH 960 0
DWIDTH 8 0
BBX 7 5 0 0
BITMAP
7C
44
FE
44
7C
ENDCHAR
STARTCHAR 2460
ENCODING 9312
SWIDTH 960 0
DWIDTH 8 0
BBX 7 7 0 -1
BITMAP
7C
92
B2
92
92
92
7C
ENDCHAR
STARTCHAR 2461
ENCODING 9313
SWIDTH 960 0
DWIDTH 8 0
BBX 7 7 0 -1
BITMAP
7C
B2
8A
92
A2
BA
7C
ENDCHAR
STARTCHAR 2462
ENCODING 9314
SWIDTH 960 0
DWIDTH 8 0
BBX 7 7 0 -1
BITMAP
7C
B2
8A
92
8A
B2
7C
ENDCHAR
STARTCHAR 2463
ENCODING 9315
SWIDTH 960 0
DWIDTH 8 0
BBX 7 7 0 -1
BITMAP
7C
8A
9A
AA
BA
8A
7C
ENDCHAR
STARTCHAR 2464
ENCODING 9316
SWIDTH 960 0
DWIDTH 8 0
BBX 7 7 0 -1
BITMAP
7C
BA
A2
B2
8A
B2
7C
ENDCHAR
STARTCHAR 2465
ENCODING 9317
SWIDTH 960 0
DWIDTH 8 0
BBX 7 7 0 -1
BITMAP
7C
92
A2
B2
AA
92
7C
ENDCHAR
STARTCHAR 2466
ENCODING 9318
SWIDTH 960 0
DWIDTH 8 0
BBX 7 7 0 -1
BITMAP
7C
BA
8A
92
92
92
7C
ENDCHAR
STARTCHAR 2467
ENCODING 9319
SWIDTH 960 0
DWIDTH 8 0
BBX 7 7 0 -1
BITMAP
7C
92
AA
92
AA
92
7C
ENDCHAR
STARTCHAR 2468
ENCODING 9320
SWIDTH 960 0
DWIDTH 8 0
BBX 7 7 0 -1
BITMAP
7C
92
AA
9A
8A
92
7C
ENDCHAR
STARTCHAR 2469
ENCODING 9321
SWIDTH 960 0
DWIDTH 8 0
BBX 7 7 0 -1
BITMAP
7C
A2
EE
AA
AE
A2
7C
ENDCHAR
STARTCHAR 246A
ENCODING 9322
SWIDTH 960 0
DWIDTH 8 0
BBX 7 7 0 -1
BITMAP
7C
A6
EE
A6
A6
A6
7C
ENDCHAR
STARTCHAR 246B
ENCODING 9323
SWIDTH 960 0
DWIDTH 8 0
BBX 7 7 0 -1
BITMAP
7C
AA
E6
AE
AA
AE
7C
ENDCHAR
STARTCHAR 246C
ENCODING 9324
SWIDTH 960 0
DWIDTH 8 0
BBX 7 7 0 -1
BITMAP
7C
AA
E6
AA
A6
AA
7C
ENDCHAR
STARTCHAR 246D
ENCODING 9325
SWIDTH 960 0
DWIDTH 8 0
BBX 7 7 0 -1
BITMAP
7C
AA
EA
AE
AE
A6
7C
ENDCHAR
STARTCHAR 246E
ENCODING 9326
SWIDTH 960 0
DWIDTH 8 0
BBX 7 7 0 -1
BITMAP
7C
AE
EA
AE
A6
AA
7C
ENDCHAR
STARTCHAR 246F
ENCODING 9327
SWIDTH 960 0
DWIDTH 8 0
BBX 7 7 0 -1
BITMAP
7C
A6
EA
AE
AE
AE
7C
ENDCHAR
STARTCHAR 2470
ENCODING 9328
SWIDTH 960 0
DWIDTH 8 0
BBX 7 7 0 -1
BITMAP
7C
AE
E6
AA
AA
AA
7C
ENDCHAR
STARTCHAR 2471
ENCODING 9329
SWIDTH 960 0
DWIDTH 8 0
BBX 7 7 0 -1
BITMAP
7C
AE
EE
A2
AE
AE
7C
ENDCHAR
STARTCHAR 2472
ENCODING 9330
SWIDTH 960 0
DWIDTH 8 0
BBX 7 7 0 -1
BITMAP
7C
AE
EE
AE
A6
AA
7C
ENDCHAR
STARTCHAR 2473
ENCODING 9331
SWIDTH 960 0
DWIDTH 8 0
BBX 7 7 0 -1
BITMAP
7C
E2
AE
EA
CE
E2
7C
ENDCHAR
STARTCHAR 2474
ENCODING 9332
SWIDTH 960 0
DWIDTH 8 0
BBX 7 7 0 -1
BITMAP
44
92
B2
92
92
BA
44
ENDCHAR
STARTCHAR 2475
ENCODING 9333
SWIDTH 960 0
DWIDTH 8 0
BBX 7 7 0 -1
BITMAP
44
B2
8A
92
A2
BA
44
ENDCHAR
STARTCHAR 2476
ENCODING 9334
SWIDTH 960 0
DWIDTH 8 0
BBX 7 7 0 -1
BITMAP
44
B2
8A
92
8A
B2
44
ENDCHAR
STARTCHAR 2477
ENCODING 9335
SWIDTH 960 0
DWIDTH 8 0
BBX 7 7 0 -1
BITMAP
44
8A
9A
AA
BA
8A
44
ENDCHAR
STARTCHAR 2478
ENCODING 9336
SWIDTH 960 0
DWIDTH 8 0
BBX 7 7 0 -1
BITMAP
44
BA
A2
B2
8A
B2
44
ENDCHAR
STARTCHAR 2479
ENCODING 9337
SWIDTH 960 0
DWIDTH 8 0
BBX 7 7 0 -1
BITMAP
44
92
A2
B2
AA
92
44
ENDCHAR
STARTCHAR 247A
ENCODING 9338
SWIDTH 960 0
DWIDTH 8 0
BBX 7 7 0 -1
BITMAP
44
BA
8A
92
92
92
44
ENDCHAR
STARTCHAR 247B
ENCODING 9339
SWIDTH 960 0
DWIDTH 8 0
BBX 7 7 0 -1
BITMAP
44
92
AA
92
AA
92
44
ENDCHAR
STARTCHAR 247C
ENCODING 9340
SWIDTH 960 0
DWIDTH 8 0
BBX 7 7 0 -1
BITMAP
44
92
AA
9A
8A
92
44
ENDCHAR
STARTCHAR 247D
ENCODING 9341
SWIDTH 960 0
DWIDTH 8 0
BBX 7 7 0 -1
BITMAP
44
A2
EE
AA
AE
A2
44
ENDCHAR
STARTCHAR 247E
ENCODING 9342
SWIDTH 960 0
DWIDTH 8 0
BBX 7 7 0 -1
BITMAP
44
A6
EE
A6
A6
A6
44
ENDCHAR
STARTCHAR 247F
ENCODING 9343
SWIDTH 960 0
DWIDTH 8 0
BBX 7 7 0 -1
BITMAP
44
AA
E6
AE
AA
AE
44
ENDCHAR
STARTCHAR 2480
ENCODING 9344
SWIDTH 960 0
DWIDTH 8 0
BBX 7 7 0 -1
BITMAP
44
AA
E6
AA
A6
AA
44
ENDCHAR
STARTCHAR 2481
ENCODING 9345
SWIDTH 960 0
DWIDTH 8 0
BBX 7 7 0 -1
BITMAP
44
AA
EA
AE
A6
A6
44
ENDCHAR
STARTCHAR 2482
ENCODING 9346
SWIDTH 960 0
DWIDTH 8 0
BBX 7 7 0 -1
BITMAP
44
AE
EA
AE
A6
AA
44
ENDCHAR
STARTCHAR 2483
ENCODING 9347
SWIDTH 960 0
DWIDTH 8 0
BBX 7 7 0 -1
BITMAP
44
A6
EA
AE
AE
AE
44
ENDCHAR
STARTCHAR 2484
ENCODING 9348
SWIDTH 960 0
DWIDTH 8 0
BBX 7 7 0 -1
BITMAP
44
AE
E6
AA
AA
AA
44
ENDCHAR
STARTCHAR 2485
ENCODING 9349
SWIDTH 960 0
DWIDTH 8 0
BBX 7 7 0 -1
BITMAP
44
AE
EE
A2
AE
AE
44
ENDCHAR
STARTCHAR 2486
ENCODING 9350
SWIDTH 960 0
DWIDTH 8 0
BBX 7 7 0 -1
BITMAP
44
AE
EE
AE
A6
AA
44
ENDCHAR
STARTCHAR 2487
ENCODING 9351
SWIDTH 960 0
DWIDTH 8 0
BBX 7 7 0 -1
BITMAP
44
E2
AE
EA
CE
E2
44
ENDCHAR
STARTCHAR 2488
ENCODING 9352
SWIDTH 960 0
DWIDTH 8 0
BBX 5 7 2 -1
BITMAP
40
C0
40
40
40
40
E8
ENDCHAR
STARTCHAR 2489
ENCODING 9353
SWIDTH 960 0
DWIDTH 8 0
BBX 5 7 2 -1
BITMAP
C0
20
20
40
80
80
E8
ENDCHAR
STARTCHAR 248A
ENCODING 9354
SWIDTH 960 0
DWIDTH 8 0
BBX 5 7 2 -1
BITMAP
C0
20
20
40
20
20
C8
ENDCHAR
STARTCHAR 248B
ENCODING 9355
SWIDTH 960 0
DWIDTH 8 0
BBX 5 7 2 -1
BITMAP
20
60
A0
A0
A0
E0
28
ENDCHAR
STARTCHAR 248C
ENCODING 9356
SWIDTH 960 0
DWIDTH 8 0
BBX 5 7 2 -1
BITMAP
E0
80
C0
20
20
20
C8
ENDCHAR
STARTCHAR 248D
ENCODING 9357
SWIDTH 960 0
DWIDTH 8 0
BBX 5 7 2 -1
BITMAP
40
80
C0
A0
A0
A0
48
ENDCHAR
STARTCHAR 248E
ENCODING 9358
SWIDTH 960 0
DWIDTH 8 0
BBX 5 7 2 -1
BITMAP
E0
20
20
40
40
40
48
ENDCHAR
STARTCHAR 248F
ENCODING 9359
SWIDTH 960 0
DWIDTH 8 0
BBX 5 7 2 -1
BITMAP
40
A0
A0
40
A0
A0
48
ENDCHAR
STARTCHAR 2490
ENCODING 9360
SWIDTH 960 0
DWIDTH 8 0
BBX 5 7 2 -1
BITMAP
40
A0
A0
A0
60
20
48
ENDCHAR
STARTCHAR 2491
ENCODING 9361
SWIDTH 960 0
DWIDTH 8 0
BBX 7 7 0 -1
BITMAP
48
D4
54
54
54
54
4A
ENDCHAR
STARTCHAR 2492
ENCODING 9362
SWIDTH 960 0
DWIDTH 8 0
BBX 7 7 0 -1
BITMAP
48
D8
48
48
48
48
4A
ENDCHAR
STARTCHAR 2493
ENCODING 9363
SWIDTH 960 0
DWIDTH 8 0
BBX 7 7 0 -1
BITMAP
58
C4
44
48
50
50
5A
ENDCHAR
STARTCHAR 2494
ENCODING 9364
SWIDTH 960 0
DWIDTH 8 0
BBX 7 7 0 -1
BITMAP
58
C4
44
48
44
44
5A
ENDCHAR
STARTCHAR 2495
ENCODING 9365
SWIDTH 960 0
DWIDTH 8 0
BBX 7 7 0 -1
BITMAP
48
D8
68
68
68
78
4A
ENDCHAR
STARTCHAR 2496
ENCODING 9366
SWIDTH 960 0
DWIDTH 8 0
BBX 7 7 0 -1
BITMAP
5C
D0
58
44
44
44
5A
ENDCHAR
STARTCHAR 2497
ENCODING 9367
SWIDTH 960 0
DWIDTH 8 0
BBX 7 7 0 -1
BITMAP
48
D0
58
54
54
54
4A
ENDCHAR
STARTCHAR 2498
ENCODING 9368
SWIDTH 960 0
DWIDTH 8 0
BBX 7 7 0 -1
BITMAP
5C
C4
44
48
48
48
4A
ENDCHAR
STARTCHAR 2499
ENCODING 9369
SWIDTH 960 0
DWIDTH 8 0
BBX 7 7 0 -1
BITMAP
48
D4
54
48
54
54
4A
ENDCHAR
STARTCHAR 249A
ENCODING 9370
SWIDTH 960 0
DWIDTH 8 0
BBX 7 7 0 -1
BITMAP
48
D4
54
54
4C
44
4A
ENDCHAR
STARTCHAR 249B
ENCODING 9371
SWIDTH 960 0
DWIDTH 8 0
BBX 7 7 0 -1
BITMAP
C8
34
34
54
94
94
EA
ENDCHAR
STARTCHAR 249C
ENCODING 9372
SWIDTH 960 0
DWIDTH 8 0
BBX 7 7 0 -1
BITMAP
44
82
9A
AA
AA
9A
44
ENDCHAR
STARTCHAR 249D
ENCODING 9373
SWIDTH 960 0
DWIDTH 8 0
BBX 7 7 0 -1
BITMAP
44
A2
A2
B2
AA
B2
44
ENDCHAR
STARTCHAR 249E
ENCODING 9374
SWIDTH 960 0
DWIDTH 8 0
BBX 7 7 0 -1
BITMAP
44
82
9A
A2
A2
9A
44
ENDCHAR
STARTCHAR 249F
ENCODING 9375
SWIDTH 960 0
DWIDTH 8 0
BBX 7 7 0 -1
BITMAP
44
8A
8A
9A
AA
9A
44
ENDCHAR
STARTCHAR 24A0
ENCODING 9376
SWIDTH 960 0
DWIDTH 8 0
BBX 7 7 0 -1
BITMAP
44
82
9A
BA
A2
9A
44
ENDCHAR
STARTCHAR 24A1
ENCODING 9377
SWIDTH 960 0
DWIDTH 8 0
BBX 7 7 0 -1
BITMAP
44
9A
92
BA
92
92
44
ENDCHAR
STARTCHAR 24A2
ENCODING 9378
SWIDTH 960 0
DWIDTH 8 0
BBX 7 7 0 -1
BITMAP
44
9A
AA
9A
8A
B2
44
ENDCHAR
STARTCHAR 24A3
ENCODING 9379
SWIDTH 960 0
DWIDTH 8 0
BBX 7 7 0 -1
BITMAP
44
A2
A2
B2
AA
AA
44
ENDCHAR
STARTCHAR 24A4
ENCODING 9380
SWIDTH 960 0
DWIDTH 8 0
BBX 7 7 0 -1
BITMAP
44
92
82
92
92
92
44
ENDCHAR
STARTCHAR 24A5
ENCODING 9381
SWIDTH 960 0
DWIDTH 8 0
BBX 7 7 0 -1
BITMAP
44
92
82
92
92
B2
44
ENDCHAR
STARTCHAR 24A6
ENCODING 9382
SWIDTH 960 0
DWIDTH 8 0
BBX 7 7 0 -1
BITMAP
44
A2
A2
AA
B2
AA
44
ENDCHAR
STARTCHAR 24A7
ENCODING 9383
SWIDTH 960 0
DWIDTH 8 0
BBX 7 7 0 -1
BITMAP
44
B2
92
92
92
92
44
ENDCHAR
STARTCHAR 24A8
ENCODING 9384
SWIDTH 960 0
DWIDTH 8 0
BBX 7 7 0 -1
BITMAP
44
82
B2
BA
BA
AA
44
ENDCHAR
STARTCHAR 24A9
ENCODING 9385
SWIDTH 960 0
DWIDTH 8 0
BBX 7 7 0 -1
BITMAP
44
82
B2
AA
AA
AA
44
ENDCHAR
STARTCHAR 24AA
ENCODING 9386
SWIDTH 960 0
DWIDTH 8 0
BBX 7 7 0 -1
BITMAP
44
82
92
AA
AA
92
44
ENDCHAR
STARTCHAR 24AB
ENCODING 9387
SWIDTH 960 0
DWIDTH 8 0
BBX 7 7 0 -1
BITMAP
44
B2
AA
B2
A2
A2
44
ENDCHAR
STARTCHAR 24AC
ENCODING 9388
SWIDTH 960 0
DWIDTH 8 0
BBX 7 7 0 -1
BITMAP
44
9A
AA
9A
8A
8A
44
ENDCHAR
STARTCHAR 24AD
ENCODING 9389
SWIDTH 960 0
DWIDTH 8 0
BBX 7 7 0 -1
BITMAP
44
82
AA
B2
A2
A2
44
ENDCHAR
STARTCHAR 24AE
ENCODING 9390
SWIDTH 960 0
DWIDTH 8 0
BBX 7 7 0 -1
BITMAP
44
82
9A
B2
9A
B2
44
ENDCHAR
STARTCHAR 24AF
ENCODING 9391
SWIDTH 960 0
DWIDTH 8 0
BBX 7 7 0 -1
BITMAP
44
92
BA
92
92
9A
44
ENDCHAR
STARTCHAR 24B0
ENCODING 9392
SWIDTH 960 0
DWIDTH 8 0
BBX 7 7 0 -1
BITMAP
44
82
AA
AA
AA
BA
44
ENDCHAR
STARTCHAR 24B1
ENCODING 9393
SWIDTH 960 0
DWIDTH 8 0
BBX 7 7 0 -1
BITMAP
44
82
AA
AA
B2
A2
44
ENDCHAR
STARTCHAR 24B2
ENCODING 9394
SWIDTH 960 0
DWIDTH 8 0
BBX 7 7 0 -1
BITMAP
44
82
AA
AA
BA
BA
44
ENDCHAR
STARTCHAR 24B3
ENCODING 9395
SWIDTH 960 0
DWIDTH 8 0
BBX 7 7 0 -1
BITMAP
44
82
AA
92
92
AA
44
ENDCHAR
STARTCHAR 24B4
ENCODING 9396
SWIDTH 960 0
DWIDTH 8 0
BBX 7 7 0 -1
BITMAP
44
AA
AA
9A
8A
B2
44
ENDCHAR
STARTCHAR 24B5
ENCODING 9397
SWIDTH 960 0
DWIDTH 8 0
BBX 7 7 0 -1
BITMAP
44
BA
8A
92
A2
BA
44
ENDCHAR
STARTCHAR 24BE
ENCODING 9406
SWIDTH 960 0
DWIDTH 8 0
BBX 7 7 0 -1
BITMAP
7C
92
92
92
92
92
7C
ENDCHAR
STARTCHAR 24D4
ENCODING 9428
SWIDTH 960 0
DWIDTH 8 0
BBX 7 7 0 -1
BITMAP
7C
82
9A
BA
A2
9A
7C
ENDCHAR
STARTCHAR 24DB
ENCODING 9435
SWIDTH 960 0
DWIDTH 8 0
BBX 7 7 0 -1
BITMAP
7C
92
92
92
92
92
7C
ENDCHAR
STARTCHAR 24DE
ENCODING 9438
SWIDTH 960 0
DWIDTH 8 0
BBX 7 7 0 -1
BITMAP
38
44
92
AA
92
44
38
ENDCHAR
STARTCHAR 24E5
ENCODING 9445
SWIDTH 960 0
DWIDTH 8 0
BBX 7 7 0 -1
BITMAP
7C
C6
AA
AA
AA
92
7C
ENDCHAR
STARTCHAR 24EA
ENCODING 9450
SWIDTH 960 0
DWIDTH 8 0
BBX 7 7 0 -1
BITMAP
7C
92
AA
AA
AA
92
7C
ENDCHAR
STARTCHAR 2500
ENCODING 9472
SWIDTH 960 0
DWIDTH 8 0
BBX 8 1 0 2
BITMAP
FF
ENDCHAR
STARTCHAR 2501
ENCODING 9473
SWIDTH 960 0
DWIDTH 8 0
BBX 8 2 0 1
BITMAP
FF
FF
ENDCHAR
STARTCHAR 2502
ENCODING 9474
SWIDTH 960 0
DWIDTH 8 0
BBX 1 8 3 -2
BITMAP
80
80
80
80
80
80
80
80
ENDCHAR
STARTCHAR 2503
ENCODING 9475
SWIDTH 960 0
DWIDTH 8 0
BBX 2 8 3 -2
BITMAP
C0
C0
C0
C0
C0
C0
C0
C0
ENDCHAR
STARTCHAR 2504
ENCODING 9476
SWIDTH 960 0
DWIDTH 8 0
BBX 8 1 0 2
BITMAP
DB
ENDCHAR
STARTCHAR 2505
ENCODING 9477
SWIDTH 960 0
DWIDTH 8 0
BBX 8 2 0 2
BITMAP
DB
DB
ENDCHAR
STARTCHAR 2506
ENCODING 9478
SWIDTH 960 0
DWIDTH 8 0
BBX 1 8 3 -2
BITMAP
80
80
00
80
80
00
80
80
ENDCHAR
STARTCHAR 2507
ENCODING 9479
SWIDTH 960 0
DWIDTH 8 0
BBX 2 8 3 -2
BITMAP
C0
C0
00
C0
C0
00
C0
C0
ENDCHAR
STARTCHAR 2508
ENCODING 9480
SWIDTH 960 0
DWIDTH 8 0
BBX 7 1 0 2
BITMAP
AA
ENDCHAR
STARTCHAR 2509
ENCODING 9481
SWIDTH 960 0
DWIDTH 8 0
BBX 7 2 0 2
BITMAP
AA
AA
ENDCHAR
STARTCHAR 250A
ENCODING 9482
SWIDTH 960 0
DWIDTH 8 0
BBX 1 7 3 -1
BITMAP
80
00
80
00
80
00
80
ENDCHAR
STARTCHAR 250B
ENCODING 9483
SWIDTH 960 0
DWIDTH 8 0
BBX 2 7 3 -1
BITMAP
C0
00
C0
00
C0
00
C0
ENDCHAR
STARTCHAR 250C
ENCODING 9484
SWIDTH 960 0
DWIDTH 8 0
BBX 5 5 3 -2
BITMAP
F8
80
80
80
80
ENDCHAR
STARTCHAR 250D
ENCODING 9485
SWIDTH 960 0
DWIDTH 8 0
BBX 5 5 3 -2
BITMAP
F8
F8
80
80
80
ENDCHAR
STARTCHAR 250E
ENCODING 9486
SWIDTH 960 0
DWIDTH 8 0
BBX 5 5 3 -2
BITMAP
F8
C0
C0
C0
C0
ENDCHAR
STARTCHAR 250F
ENCODING 9487
SWIDTH 960 0
DWIDTH 8 0
BBX 5 5 3 -2
BITMAP
F8
F8
C0
C0
C0
ENDCHAR
STARTCHAR 2510
ENCODING 9488
SWIDTH 960 0
DWIDTH 8 0
BBX 4 5 0 -2
BITMAP
F0
10
10
10
10
ENDCHAR
STARTCHAR 2511
ENCODING 9489
SWIDTH 960 0
DWIDTH 8 0
BBX 4 5 0 -1
BITMAP
F0
F0
10
10
10
ENDCHAR
STARTCHAR 2512
ENCODING 9490
SWIDTH 960 0
DWIDTH 8 0
BBX 5 5 0 -2
BITMAP
F8
18
18
18
18
ENDCHAR
STARTCHAR 2513
ENCODING 9491
SWIDTH 960 0
DWIDTH 8 0
BBX 5 5 0 -2
BITMAP
F8
F8
18
18
18
ENDCHAR
STARTCHAR 2514
ENCODING 9492
SWIDTH 960 0
DWIDTH 8 0
BBX 5 4 3 2
BITMAP
80
80
80
F8
ENDCHAR
STARTCHAR 2515
ENCODING 9493
SWIDTH 960 0
DWIDTH 8 0
BBX 5 5 3 1
BITMAP
80
80
80
F8
F8
ENDCHAR
STARTCHAR 2516
ENCODING 9494
SWIDTH 960 0
DWIDTH 8 0
BBX 5 4 3 2
BITMAP
C0
C0
C0
F8
ENDCHAR
STARTCHAR 2517
ENCODING 9495
SWIDTH 960 0
DWIDTH 8 0
BBX 5 5 3 1
BITMAP
C0
C0
C0
F8
F8
ENDCHAR
STARTCHAR 2518
ENCODING 9496
SWIDTH 960 0
DWIDTH 8 0
BBX 4 4 0 2
BITMAP
10
10
10
F0
ENDCHAR
STARTCHAR 2519
ENCODING 9497
SWIDTH 960 0
DWIDTH 8 0
BBX 4 5 0 1
BITMAP
10
10
10
F0
F0
ENDCHAR
STARTCHAR 251A
ENCODING 9498
SWIDTH 960 0
DWIDTH 8 0
BBX 5 4 0 2
BITMAP
18
18
18
F8
ENDCHAR
STARTCHAR 251B
ENCODING 9499
SWIDTH 960 0
DWIDTH 8 0
BBX 5 5 0 1
BITMAP
18
18
18
F8
F8
ENDCHAR
STARTCHAR 251C
ENCODING 9500
SWIDTH 960 0
DWIDTH 8 0
BBX 5 8 3 -2
BITMAP
80
80
80
F8
80
80
80
80
ENDCHAR
STARTCHAR 251D
ENCODING 9501
SWIDTH 960 0
DWIDTH 8 0
BBX 5 8 3 -2
BITMAP
80
80
80
F8
F8
80
80
80
ENDCHAR
STARTCHAR 251E
ENCODING 9502
SWIDTH 960 0
DWIDTH 8 0
BBX 5 8 3 -2
BITMAP
C0
C0
C0
F8
80
80
80
80
ENDCHAR
STARTCHAR 251F
ENCODING 9503
SWIDTH 960 0
DWIDTH 8 0
BBX 5 8 3 -2
BITMAP
80
80
80
F8
C0
C0
C0
C0
ENDCHAR
STARTCHAR 2520
ENCODING 9504
SWIDTH 960 0
DWIDTH 8 0
BBX 5 8 3 -2
BITMAP
C0
C0
C0
F8
C0
C0
C0
C0
ENDCHAR
STARTCHAR 2521
ENCODING 9505
SWIDTH 960 0
DWIDTH 8 0
BBX 5 8 3 -2
BITMAP
C0
C0
C0
F8
F8
80
80
80
ENDCHAR
STARTCHAR 2522
ENCODING 9506
SWIDTH 960 0
DWIDTH 8 0
BBX 5 8 3 -2
BITMAP
80
80
80
F8
F8
C0
C0
C0
ENDCHAR
STARTCHAR 2523
ENCODING 9507
SWIDTH 960 0
DWIDTH 8 0
BBX 5 8 3 -2
BITMAP
C0
C0
C0
F8
F8
C0
C0
C0
ENDCHAR
STARTCHAR 2524
ENCODING 9508
SWIDTH 960 0
DWIDTH 8 0
BBX 4 8 0 -2
BITMAP
10
10
10
F0
10
10
10
10
ENDCHAR
STARTCHAR 2525
ENCODING 9509
SWIDTH 960 0
DWIDTH 8 0
BBX 4 8 0 -2
BITMAP
10
10
10
F0
F0
10
10
10
ENDCHAR
STARTCHAR 2526
ENCODING 9510
SWIDTH 960 0
DWIDTH 8 0
BBX 5 8 0 -2
BITMAP
18
18
18
F8
10
10
10
10
ENDCHAR
STARTCHAR 2527
ENCODING 9511
SWIDTH 960 0
DWIDTH 8 0
BBX 5 8 0 -2
BITMAP
10
10
10
F8
18
18
18
18
ENDCHAR
STARTCHAR 2528
ENCODING 9512
SWIDTH 960 0
DWIDTH 8 0
BBX 5 8 0 -2
BITMAP
18
18
18
F8
18
18
18
18
ENDCHAR
STARTCHAR 2529
ENCODING 9513
SWIDTH 960 0
DWIDTH 8 0
BBX 4 8 0 -2
BITMAP
30
30
30
F0
10
10
10
10
ENDCHAR
STARTCHAR 252A
ENCODING 9514
SWIDTH 960 0
DWIDTH 8 0
BBX 5 8 0 -2
BITMAP
10
10
10
F8
18
18
18
18
ENDCHAR
STARTCHAR 252B
ENCODING 9515
SWIDTH 960 0
DWIDTH 8 0
BBX 5 8 0 -2
BITMAP
18
18
18
F8
F8
18
18
18
ENDCHAR
STARTCHAR 252C
ENCODING 9516
SWIDTH 960 0
DWIDTH 8 0
BBX 8 5 0 -2
BITMAP
FF
10
10
10
10
ENDCHAR
STARTCHAR 252D
ENCODING 9517
SWIDTH 960 0
DWIDTH 8 0
BBX 7 5 0 -1
BITMAP
E0
FE
10
10
10
ENDCHAR
STARTCHAR 252E
ENCODING 9518
SWIDTH 960 0
DWIDTH 8 0
BBX 7 5 0 -1
BITMAP
0E
FE
10
10
10
ENDCHAR
STARTCHAR 252F
ENCODING 9519
SWIDTH 960 0
DWIDTH 8 0
BBX 8 5 0 -2
BITMAP
FF
FF
10
10
10
ENDCHAR
STARTCHAR 2530
ENCODING 9520
SWIDTH 960 0
DWIDTH 8 0
BBX 8 5 0 -2
BITMAP
FF
18
18
18
18
ENDCHAR
STARTCHAR 2531
ENCODING 9521
SWIDTH 960 0
DWIDTH 8 0
BBX 5 6 1 -1
BITMAP
E0
F8
E0
60
60
60
ENDCHAR
STARTCHAR 2532
ENCODING 9522
SWIDTH 960 0
DWIDTH 8 0
BBX 5 6 1 -1
BITMAP
38
F8
38
30
30
30
ENDCHAR
STARTCHAR 2533
ENCODING 9523
SWIDTH 960 0
DWIDTH 8 0
BBX 8 5 0 -2
BITMAP
FF
FF
18
18
18
ENDCHAR
STARTCHAR 2534
ENCODING 9524
SWIDTH 960 0
DWIDTH 8 0
BBX 8 4 0 2
BITMAP
10
10
10
FF
ENDCHAR
STARTCHAR 2535
ENCODING 9525
SWIDTH 960 0
DWIDTH 8 0
BBX 8 5 0 1
BITMAP
10
10
10
FF
F0
ENDCHAR
STARTCHAR 2536
ENCODING 9526
SWIDTH 960 0
DWIDTH 8 0
BBX 8 5 0 1
BITMAP
10
10
10
FF
1F
ENDCHAR
STARTCHAR 2537
ENCODING 9527
SWIDTH 960 0
DWIDTH 8 0
BBX 8 5 0 1
BITMAP
10
10
10
FF
FF
ENDCHAR
STARTCHAR 2538
ENCODING 9528
SWIDTH 960 0
DWIDTH 8 0
BBX 8 4 0 2
BITMAP
18
18
18
FF
ENDCHAR
STARTCHAR 2539
ENCODING 9529
SWIDTH 960 0
DWIDTH 8 0
BBX 8 5 0 1
BITMAP
18
18
18
FF
F8
ENDCHAR
STARTCHAR 253A
ENCODING 9530
SWIDTH 960 0
DWIDTH 8 0
BBX 8 5 0 1
BITMAP
18
18
18
FF
1F
ENDCHAR
STARTCHAR 253B
ENCODING 9531
SWIDTH 960 0
DWIDTH 8 0
BBX 8 5 0 1
BITMAP
18
18
18
FF
FF
ENDCHAR
STARTCHAR 253C
ENCODING 9532
SWIDTH 960 0
DWIDTH 8 0
BBX 8 8 0 -2
BITMAP
10
10
10
FF
10
10
10
10
ENDCHAR
STARTCHAR 253D
ENCODING 9533
SWIDTH 960 0
DWIDTH 8 0
BBX 8 8 0 -2
BITMAP
10
10
10
FF
F0
10
10
10
ENDCHAR
STARTCHAR 253E
ENCODING 9534
SWIDTH 960 0
DWIDTH 8 0
BBX 8 8 0 -2
BITMAP
10
10
10
FF
1F
10
10
10
ENDCHAR
STARTCHAR 253F
ENCODING 9535
SWIDTH 960 0
DWIDTH 8 0
BBX 8 8 0 -2
BITMAP
10
10
10
FF
FF
10
10
10
ENDCHAR
STARTCHAR 2540
ENCODING 9536
SWIDTH 960 0
DWIDTH 8 0
BBX 8 8 0 -2
BITMAP
18
18
18
FF
10
10
10
10
ENDCHAR
STARTCHAR 2541
ENCODING 9537
SWIDTH 960 0
DWIDTH 8 0
BBX 8 8 0 -2
BITMAP
10
10
10
FF
18
18
18
18
ENDCHAR
STARTCHAR 2542
ENCODING 9538
SWIDTH 960 0
DWIDTH 8 0
BBX 8 8 0 -2
BITMAP
18
18
18
FF
18
18
18
18
ENDCHAR
STARTCHAR 2543
ENCODING 9539
SWIDTH 960 0
DWIDTH 8 0
BBX 8 8 0 -2
BITMAP
18
18
18
FF
10
10
10
10
ENDCHAR
STARTCHAR 2544
ENCODING 9540
SWIDTH 960 0
DWIDTH 8 0
BBX 8 8 0 -2
BITMAP
18
18
18
FF
1F
10
10
10
ENDCHAR
STARTCHAR 2545
ENCODING 9541
SWIDTH 960 0
DWIDTH 8 0
BBX 8 8 0 -2
BITMAP
10
10
10
FF
F8
18
18
18
ENDCHAR
STARTCHAR 2546
ENCODING 9542
SWIDTH 960 0
DWIDTH 8 0
BBX 8 8 0 -2
BITMAP
10
10
10
FF
1F
18
18
18
ENDCHAR
STARTCHAR 2547
ENCODING 9543
SWIDTH 960 0
DWIDTH 8 0
BBX 8 8 0 -2
BITMAP
18
18
18
FF
FF
10
10
10
ENDCHAR
STARTCHAR 2548
ENCODING 9544
SWIDTH 960 0
DWIDTH 8 0
BBX 8 8 0 -2
BITMAP
10
10
10
FF
FF
18
18
18
ENDCHAR
STARTCHAR 2549
ENCODING 9545
SWIDTH 960 0
DWIDTH 8 0
BBX 8 8 0 -2
BITMAP
18
18
18
FF
F8
18
18
18
ENDCHAR
STARTCHAR 254A
ENCODING 9546
SWIDTH 960 0
DWIDTH 8 0
BBX 8 8 0 -2
BITMAP
18
18
18
FF
1F
18
18
18
ENDCHAR
STARTCHAR 254B
ENCODING 9547
SWIDTH 960 0
DWIDTH 8 0
BBX 8 8 0 -2
BITMAP
18
18
18
FF
FF
18
18
18
ENDCHAR
STARTCHAR 2550
ENCODING 9552
SWIDTH 960 0
DWIDTH 8 0
BBX 8 3 0 1
BITMAP
FF
00
FF
ENDCHAR
STARTCHAR 2551
ENCODING 9553
SWIDTH 960 0
DWIDTH 8 0
BBX 3 8 2 -2
BITMAP
A0
A0
A0
A0
A0
A0
A0
A0
ENDCHAR
STARTCHAR 2552
ENCODING 9554
SWIDTH 960 0
DWIDTH 8 0
BBX 5 6 3 -2
BITMAP
F8
80
F8
80
80
80
ENDCHAR
STARTCHAR 2553
ENCODING 9555
SWIDTH 960 0
DWIDTH 8 0
BBX 5 5 3 -2
BITMAP
F8
A0
A0
A0
A0
ENDCHAR
STARTCHAR 2554
ENCODING 9556
SWIDTH 960 0
DWIDTH 8 0
BBX 6 6 2 -2
BITMAP
FC
80
BC
A0
A0
A0
ENDCHAR
STARTCHAR 2555
ENCODING 9557
SWIDTH 960 0
DWIDTH 8 0
BBX 4 6 0 -2
BITMAP
F0
10
F0
10
10
10
ENDCHAR
STARTCHAR 2556
ENCODING 9558
SWIDTH 960 0
DWIDTH 8 0
BBX 5 5 0 -2
BITMAP
F8
28
28
28
28
ENDCHAR
STARTCHAR 2557
ENCODING 9559
SWIDTH 960 0
DWIDTH 8 0
BBX 5 6 0 -2
BITMAP
F8
08
E8
28
28
28
ENDCHAR
STARTCHAR 2558
ENCODING 9560
SWIDTH 960 0
DWIDTH 8 0
BBX 5 5 3 1
BITMAP
80
80
F8
80
F8
ENDCHAR
STARTCHAR 2559
ENCODING 9561
SWIDTH 960 0
DWIDTH 8 0
BBX 6 4 2 2
BITMAP
A0
A0
A0
FC
ENDCHAR
STARTCHAR 255A
ENCODING 9562
SWIDTH 960 0
DWIDTH 8 0
BBX 6 5 2 1
BITMAP
A0
A0
BC
80
FC
ENDCHAR
STARTCHAR 255B
ENCODING 9563
SWIDTH 960 0
DWIDTH 8 0
BBX 4 5 0 1
BITMAP
10
10
F0
10
F0
ENDCHAR
STARTCHAR 255C
ENCODING 9564
SWIDTH 960 0
DWIDTH 8 0
BBX 5 4 0 2
BITMAP
28
28
28
F8
ENDCHAR
STARTCHAR 255D
ENCODING 9565
SWIDTH 960 0
DWIDTH 8 0
BBX 5 5 0 1
BITMAP
28
28
E8
08
F8
ENDCHAR
STARTCHAR 255E
ENCODING 9566
SWIDTH 960 0
DWIDTH 8 0
BBX 5 8 3 -2
BITMAP
80
80
F8
80
F8
80
80
80
ENDCHAR
STARTCHAR 255F
ENCODING 9567
SWIDTH 960 0
DWIDTH 8 0
BBX 6 8 2 -2
BITMAP
A0
A0
A0
BC
A0
A0
A0
A0
ENDCHAR
STARTCHAR 2560
ENCODING 9568
SWIDTH 960 0
DWIDTH 8 0
BBX 6 8 2 -2
BITMAP
A0
A0
BC
80
BC
A0
A0
A0
ENDCHAR
STARTCHAR 2561
ENCODING 9569
SWIDTH 960 0
DWIDTH 8 0
BBX 4 8 0 -2
BITMAP
10
10
F0
10
F0
10
10
10
ENDCHAR
STARTCHAR 2562
ENCODING 9570
SWIDTH 960 0
DWIDTH 8 0
BBX 5 8 0 -2
BITMAP
28
28
28
E8
28
28
28
28
ENDCHAR
STARTCHAR 2563
ENCODING 9571
SWIDTH 960 0
DWIDTH 8 0
BBX 5 8 0 -2
BITMAP
28
28
E8
08
E8
28
28
28
ENDCHAR
STARTCHAR 2564
ENCODING 9572
SWIDTH 960 0
DWIDTH 8 0
BBX 8 6 0 -2
BITMAP
FF
00
FF
10
10
10
ENDCHAR
STARTCHAR 2565
ENCODING 9573
SWIDTH 960 0
DWIDTH 8 0
BBX 5 5 1 -1
BITMAP
F8
50
50
50
10
ENDCHAR
STARTCHAR 2566
ENCODING 9574
SWIDTH 960 0
DWIDTH 8 0
BBX 8 6 0 -2
BITMAP
FF
00
EF
28
28
28
ENDCHAR
STARTCHAR 2567
ENCODING 9575
SWIDTH 960 0
DWIDTH 8 0
BBX 3 5 2 1
BITMAP
40
40
E0
00
E0
ENDCHAR
STARTCHAR 2568
ENCODING 9576
SWIDTH 960 0
DWIDTH 8 0
BBX 8 4 0 2
BITMAP
28
28
28
FF
ENDCHAR
STARTCHAR 2569
ENCODING 9577
SWIDTH 960 0
DWIDTH 8 0
BBX 8 5 0 1
BITMAP
28
28
EF
00
FF
ENDCHAR
STARTCHAR 256A
ENCODING 9578
SWIDTH 960 0
DWIDTH 8 0
BBX 8 8 0 -2
BITMAP
10
10
FF
10
FF
10
10
10
ENDCHAR
STARTCHAR 256B
ENCODING 9579
SWIDTH 960 0
DWIDTH 8 0
BBX 8 8 0 -2
BITMAP
28
28
28
FF
28
28
28
28
ENDCHAR
STARTCHAR 256C
ENCODING 9580
SWIDTH 960 0
DWIDTH 8 0
BBX 5 7 1 -1
BITMAP
50
50
D8
00
D8
50
50
ENDCHAR
STARTCHAR 256D
ENCODING 9581
SWIDTH 960 0
DWIDTH 8 0
BBX 5 5 3 -2
BITMAP
38
40
80
80
80
ENDCHAR
STARTCHAR 256E
ENCODING 9582
SWIDTH 960 0
DWIDTH 8 0
BBX 4 5 0 -2
BITMAP
C0
20
10
10
10
ENDCHAR
STARTCHAR 256F
ENCODING 9583
SWIDTH 960 0
DWIDTH 8 0
BBX 4 4 0 2
BITMAP
10
10
20
C0
ENDCHAR
STARTCHAR 2570
ENCODING 9584
SWIDTH 960 0
DWIDTH 8 0
BBX 5 4 3 2
BITMAP
80
80
40
38
ENDCHAR
STARTCHAR 2571
ENCODING 9585
SWIDTH 960 0
DWIDTH 8 0
BBX 8 8 0 -2
BITMAP
01
02
04
08
10
20
40
80
ENDCHAR
STARTCHAR 2572
ENCODING 9586
SWIDTH 960 0
DWIDTH 8 0
BBX 8 8 0 -2
BITMAP
80
40
20
10
08
04
02
01
ENDCHAR
STARTCHAR 2573
ENCODING 9587
SWIDTH 960 0
DWIDTH 8 0
BBX 8 8 0 -2
BITMAP
81
42
24
18
18
24
42
81
ENDCHAR
STARTCHAR 2579
ENCODING 9593
SWIDTH 960 0
DWIDTH 8 0
BBX 1 3 3 3
BITMAP
80
80
80
ENDCHAR
STARTCHAR 2580
ENCODING 9600
SWIDTH 960 0
DWIDTH 8 0
BBX 7 3 0 3
BITMAP
FE
FE
FE
ENDCHAR
STARTCHAR 2581
ENCODING 9601
SWIDTH 960 0
DWIDTH 8 0
BBX 8 1 0 -2
BITMAP
FF
ENDCHAR
STARTCHAR 2582
ENCODING 9602
SWIDTH 960 0
DWIDTH 8 0
BBX 8 2 0 -2
BITMAP
FF
FF
ENDCHAR
STARTCHAR 2583
ENCODING 9603
SWIDTH 960 0
DWIDTH 8 0
BBX 8 3 0 -2
BITMAP
FF
FF
FF
ENDCHAR
STARTCHAR 2584
ENCODING 9604
SWIDTH 960 0
DWIDTH 8 0
BBX 8 4 0 -2
BITMAP
FF
FF
FF
FF
ENDCHAR
STARTCHAR 2585
ENCODING 9605
SWIDTH 960 0
DWIDTH 8 0
BBX 8 5 0 -2
BITMAP
FF
FF
FF
FF
FF
ENDCHAR
STARTCHAR 2586
ENCODING 9606
SWIDTH 960 0
DWIDTH 8 0
BBX 8 6 0 -2
BITMAP
FF
FF
FF
FF
FF
FF
ENDCHAR
STARTCHAR 2587
ENCODING 9607
SWIDTH 960 0
DWIDTH 8 0
BBX 8 7 0 -2
BITMAP
FF
FF
FF
FF
FF
FF
FF
ENDCHAR
STARTCHAR 2588
ENCODING 9608
SWIDTH 960 0
DWIDTH 8 0
BBX 8 8 0 -2
BITMAP
FF
FF
FF
FF
FF
FF
FF
FF
ENDCHAR
STARTCHAR 2589
ENCODING 9609
SWIDTH 960 0
DWIDTH 8 0
BBX 7 8 0 -2
BITMAP
FE
FE
FE
FE
FE
FE
FE
FE
ENDCHAR
STARTCHAR 258A
ENCODING 9610
SWIDTH 960 0
DWIDTH 8 0
BBX 6 8 0 -2
BITMAP
FC
FC
FC
FC
FC
FC
FC
FC
ENDCHAR
STARTCHAR 258B
ENCODING 9611
SWIDTH 960 0
DWIDTH 8 0
BBX 5 8 0 -2
BITMAP
F8
F8
F8
F8
F8
F8
F8
F8
ENDCHAR
STARTCHAR 258C
ENCODING 9612
SWIDTH 960 0
DWIDTH 8 0
BBX 4 8 0 -2
BITMAP
F0
F0
F0
F0
F0
F0
F0
F0
ENDCHAR
STARTCHAR 258D
ENCODING 9613
SWIDTH 960 0
DWIDTH 8 0
BBX 3 8 0 -2
BITMAP
E0
E0
E0
E0
E0
E0
E0
E0
ENDCHAR
STARTCHAR 258E
ENCODING 9614
SWIDTH 960 0
DWIDTH 8 0
BBX 2 8 0 -2
BITMAP
C0
C0
C0
C0
C0
C0
C0
C0
ENDCHAR
STARTCHAR 258F
ENCODING 9615
SWIDTH 960 0
DWIDTH 8 0
BBX 1 8 0 -2
BITMAP
80
80
80
80
80
80
80
80
ENDCHAR
STARTCHAR 2590
ENCODING 9616
SWIDTH 960 0
DWIDTH 8 0
BBX 4 7 3 -1
BITMAP
F0
F0
F0
F0
F0
F0
F0
ENDCHAR
STARTCHAR 2591
ENCODING 9617
SWIDTH 960 0
DWIDTH 8 0
BBX 7 7 0 -1
BITMAP
AA
00
AA
00
AA
00
AA
ENDCHAR
STARTCHAR 2592
ENCODING 9618
SWIDTH 960 0
DWIDTH 8 0
BBX 7 7 0 -1
BITMAP
54
AA
54
AA
54
AA
54
ENDCHAR
STARTCHAR 2593
ENCODING 9619
SWIDTH 960 0
DWIDTH 8 0
BBX 7 7 0 -1
BITMAP
54
FE
54
FE
54
FE
54
ENDCHAR
STARTCHAR 2594
ENCODING 9620
SWIDTH 960 0
DWIDTH 8 0
BBX 8 1 0 5
BITMAP
FF
ENDCHAR
STARTCHAR 2595
ENCODING 9621
SWIDTH 960 0
DWIDTH 8 0
BBX 1 8 7 -2
BITMAP
80
80
80
80
80
80
80
80
ENDCHAR
STARTCHAR 25A0
ENCODING 9632
SWIDTH 960 0
DWIDTH 8 0
BBX 7 7 0 -1
BITMAP
FE
FE
FE
FE
FE
FE
FE
ENDCHAR
STARTCHAR 25A1
ENCODING 9633
SWIDTH 960 0
DWIDTH 8 0
BBX 7 7 0 -1
BITMAP
FE
82
82
82
82
82
FE
ENDCHAR
STARTCHAR 25A3
ENCODING 9635
SWIDTH 960 0
DWIDTH 8 0
BBX 7 7 0 -1
BITMAP
FE
82
BA
BA
BA
82
FE
ENDCHAR
STARTCHAR 25A4
ENCODING 9636
SWIDTH 960 0
DWIDTH 8 0
BBX 7 7 0 -1
BITMAP
FE
82
FE
82
FE
82
FE
ENDCHAR
STARTCHAR 25A5
ENCODING 9637
SWIDTH 960 0
DWIDTH 8 0
BBX 7 7 0 -1
BITMAP
FE
AA
AA
AA
AA
AA
FE
ENDCHAR
STARTCHAR 25A6
ENCODING 9638
SWIDTH 960 0
DWIDTH 8 0
BBX 7 7 0 -1
BITMAP
FE
AA
FE
AA
FE
AA
FE
ENDCHAR
STARTCHAR 25A7
ENCODING 9639
SWIDTH 960 0
DWIDTH 8 0
BBX 7 7 0 -1
BITMAP
FE
CA
A6
92
CA
A6
FE
ENDCHAR
STARTCHAR 25A8
ENCODING 9640
SWIDTH 960 0
DWIDTH 8 0
BBX 7 7 0 -1
BITMAP
FE
A6
CA
92
A6
CA
FE
ENDCHAR
STARTCHAR 25A9
ENCODING 9641
SWIDTH 960 0
DWIDTH 8 0
BBX 7 7 0 -1
BITMAP
FE
AA
D6
AA
D6
AA
FE
ENDCHAR
STARTCHAR 25AA
ENCODING 9642
SWIDTH 960 0
DWIDTH 8 0
BBX 3 3 2 1
BITMAP
E0
E0
E0
ENDCHAR
STARTCHAR 25AB
ENCODING 9643
SWIDTH 960 0
DWIDTH 8 0
BBX 5 5 1 0
BITMAP
F8
88
88
88
F8
ENDCHAR
STARTCHAR 25AC
ENCODING 9644
SWIDTH 960 0
DWIDTH 8 0
BBX 7 3 0 1
BITMAP
FE
FE
FE
ENDCHAR
STARTCHAR 25B0
ENCODING 9648
SWIDTH 960 0
DWIDTH 8 0
BBX 7 5 0 0
BITMAP
3E
3E
7C
F8
F8
ENDCHAR
STARTCHAR 25B2
ENCODING 9650
SWIDTH 960 0
DWIDTH 8 0
BBX 7 7 0 -1
BITMAP
10
10
38
38
7C
7C
FE
ENDCHAR
STARTCHAR 25B3
ENCODING 9651
SWIDTH 960 0
DWIDTH 8 0
BBX 7 7 0 -1
BITMAP
10
10
28
28
44
44
FE
ENDCHAR
STARTCHAR 25B6
ENCODING 9654
SWIDTH 960 0
DWIDTH 8 0
BBX 7 7 0 -1
BITMAP
C0
F0
FC
FE
FC
F0
C0
ENDCHAR
STARTCHAR 25B7
ENCODING 9655
SWIDTH 960 0
DWIDTH 8 0
BBX 7 7 0 -1
BITMAP
C0
B0
8C
82
8C
B0
C0
ENDCHAR
STARTCHAR 25BA
ENCODING 9658
SWIDTH 960 0
DWIDTH 8 0
BBX 7 5 0 0
BITMAP
C0
F8
FE
F8
C0
ENDCHAR
STARTCHAR 25BB
ENCODING 9659
SWIDTH 960 0
DWIDTH 8 0
BBX 8 5 0 0
BITMAP
E0
9C
83
9C
E0
ENDCHAR
STARTCHAR 25BC
ENCODING 9660
SWIDTH 960 0
DWIDTH 8 0
BBX 7 7 0 -1
BITMAP
FE
7C
7C
38
38
10
10
ENDCHAR
STARTCHAR 25BD
ENCODING 9661
SWIDTH 960 0
DWIDTH 8 0
BBX 7 7 0 -1
BITMAP
FE
44
44
28
28
10
10
ENDCHAR
STARTCHAR 25C0
ENCODING 9664
SWIDTH 960 0
DWIDTH 8 0
BBX 7 7 0 -1
BITMAP
06
1E
7E
FE
7E
1E
06
ENDCHAR
STARTCHAR 25C1
ENCODING 9665
SWIDTH 960 0
DWIDTH 8 0
BBX 7 7 0 -1
BITMAP
06
1A
62
82
62
1A
06
ENDCHAR
STARTCHAR 25C4
ENCODING 9668
SWIDTH 960 0
DWIDTH 8 0
BBX 7 5 0 0
BITMAP
06
3E
FE
3E
06
ENDCHAR
STARTCHAR 25C6
ENCODING 9670
SWIDTH 960 0
DWIDTH 8 0
BBX 7 7 0 -1
BITMAP
10
38
7C
FE
7C
38
10
ENDCHAR
STARTCHAR 25C7
ENCODING 9671
SWIDTH 960 0
DWIDTH 8 0
BBX 7 7 0 -1
BITMAP
10
28
44
82
44
28
10
ENDCHAR
STARTCHAR 25C8
ENCODING 9672
SWIDTH 960 0
DWIDTH 8 0
BBX 7 7 0 -1
BITMAP
10
28
54
BA
54
28
10
ENDCHAR
STARTCHAR 25C9
ENCODING 9673
SWIDTH 960 0
DWIDTH 8 0
BBX 7 7 0 -1
BITMAP
38
44
BA
BA
BA
44
38
ENDCHAR
STARTCHAR 25CA
ENCODING 9674
SWIDTH 960 0
DWIDTH 8 0
BBX 7 7 0 -1
BITMAP
10
28
44
82
44
28
10
ENDCHAR
STARTCHAR 25CB
ENCODING 9675
SWIDTH 960 0
DWIDTH 8 0
BBX 7 7 0 -1
BITMAP
38
44
82
82
82
44
38
ENDCHAR
STARTCHAR 25CD
ENCODING 9677
SWIDTH 960 0
DWIDTH 8 0
BBX 7 7 0 -1
BITMAP
7C
AA
AA
AA
AA
AA
7C
ENDCHAR
STARTCHAR 25CE
ENCODING 9678
SWIDTH 960 0
DWIDTH 8 0
BBX 7 7 0 -1
BITMAP
38
44
BA
AA
BA
44
38
ENDCHAR
STARTCHAR 25CF
ENCODING 9679
SWIDTH 960 0
DWIDTH 8 0
BBX 7 7 0 -1
BITMAP
38
7C
FE
FE
FE
7C
38
ENDCHAR
STARTCHAR 25D0
ENCODING 9680
SWIDTH 960 0
DWIDTH 8 0
BBX 7 7 0 -1
BITMAP
38
64
E2
E2
E2
64
38
ENDCHAR
STARTCHAR 25D1
ENCODING 9681
SWIDTH 960 0
DWIDTH 8 0
BBX 7 7 0 -1
BITMAP
38
4C
8E
8E
8E
4C
38
ENDCHAR
STARTCHAR 25D3
ENCODING 9683
SWIDTH 960 0
DWIDTH 8 0
BBX 7 7 0 -1
BITMAP
38
7C
FE
82
82
44
38
ENDCHAR
STARTCHAR 25D4
ENCODING 9684
SWIDTH 960 0
DWIDTH 8 0
BBX 7 7 0 -1
BITMAP
38
5C
9E
9E
82
44
38
ENDCHAR
STARTCHAR 25D5
ENCODING 9685
SWIDTH 960 0
DWIDTH 8 0
BBX 7 7 0 -1
BITMAP
38
4C
8E
8E
FE
7C
38
ENDCHAR
STARTCHAR 25D8
ENCODING 9688
SWIDTH 960 0
DWIDTH 8 0
BBX 3 7 2 -1
BITMAP
E0
E0
E0
A0
E0
E0
E0
ENDCHAR
STARTCHAR 25D9
ENCODING 9689
SWIDTH 960 0
DWIDTH 8 0
BBX 7 7 0 -1
BITMAP
FE
C6
BA
BA
BA
C6
FE
ENDCHAR
STARTCHAR 25DB
ENCODING 9691
SWIDTH 960 0
DWIDTH 8 0
BBX 7 4 0 -1
BITMAP
FE
BA
C6
FE
ENDCHAR
STARTCHAR 25DC
ENCODING 9692
SWIDTH 960 0
DWIDTH 8 0
BBX 4 4 0 2
BITMAP
30
40
80
80
ENDCHAR
STARTCHAR 25DD
ENCODING 9693
SWIDTH 960 0
DWIDTH 8 0
BBX 4 4 3 2
BITMAP
C0
20
10
10
ENDCHAR
STARTCHAR 25DE
ENCODING 9694
SWIDTH 960 0
DWIDTH 8 0
BBX 4 4 3 -1
BITMAP
10
10
20
C0
ENDCHAR
STARTCHAR 25DF
ENCODING 9695
SWIDTH 960 0
DWIDTH 8 0
BBX 4 4 0 -1
BITMAP
80
80
40
30
ENDCHAR
STARTCHAR 25E1
ENCODING 9697
SWIDTH 960 0
DWIDTH 8 0
BBX 7 4 0 -1
BITMAP
82
82
44
38
ENDCHAR
STARTCHAR 25E2
ENCODING 9698
SWIDTH 960 0
DWIDTH 8 0
BBX 8 8 0 -2
BITMAP
01
03
07
0F
1F
3F
7F
FF
ENDCHAR
STARTCHAR 25E3
ENCODING 9699
SWIDTH 960 0
DWIDTH 8 0
BBX 8 8 0 -2
BITMAP
80
C0
E0
F0
F8
FC
FE
FF
ENDCHAR
STARTCHAR 25E4
ENCODING 9700
SWIDTH 960 0
DWIDTH 8 0
BBX 8 8 0 -2
BITMAP
FF
FE
FC
F8
F0
E0
C0
80
ENDCHAR
STARTCHAR 25E5
ENCODING 9701
SWIDTH 960 0
DWIDTH 8 0
BBX 8 8 0 -2
BITMAP
FF
7F
3F
1F
0F
07
03
01
ENDCHAR
STARTCHAR 25E6
ENCODING 9702
SWIDTH 960 0
DWIDTH 8 0
BBX 3 3 2 1
BITMAP
40
A0
40
ENDCHAR
STARTCHAR 25E8
ENCODING 9704
SWIDTH 960 0
DWIDTH 8 0
BBX 7 7 0 -1
BITMAP
FE
9E
9E
9E
9E
9E
FE
ENDCHAR
STARTCHAR 25EF
ENCODING 9711
SWIDTH 960 0
DWIDTH 8 0
BBX 7 7 0 -1
BITMAP
7C
82
82
82
82
82
7C
ENDCHAR
STARTCHAR 2600
ENCODING 9728
SWIDTH 960 0
DWIDTH 8 0
BBX 7 7 0 -1
BITMAP
10
44
10
BA
10
44
10
ENDCHAR
STARTCHAR 2601
ENCODING 9729
SWIDTH 960 0
DWIDTH 8 0
BBX 7 4 0 1
BITMAP
38
7C
FE
58
ENDCHAR
STARTCHAR 2602
ENCODING 9730
SWIDTH 960 0
DWIDTH 8 0
BBX 7 7 0 -1
BITMAP
10
7C
FE
FE
10
10
30
ENDCHAR
STARTCHAR 2603
ENCODING 9731
SWIDTH 960 0
DWIDTH 8 0
BBX 7 7 0 -1
BITMAP
28
82
38
44
38
44
38
ENDCHAR
STARTCHAR 2604
ENCODING 9732
SWIDTH 960 0
DWIDTH 8 0
BBX 7 7 0 -1
BITMAP
10
24
48
12
44
A8
40
ENDCHAR
STARTCHAR 2605
ENCODING 9733
SWIDTH 960 0
DWIDTH 8 0
BBX 7 7 0 -1
BITMAP
10
10
FE
38
38
6C
44
ENDCHAR
STARTCHAR 2606
ENCODING 9734
SWIDTH 960 0
DWIDTH 8 0
BBX 7 7 0 -1
BITMAP
10
10
FE
28
38
6C
44
ENDCHAR
STARTCHAR 2607
ENCODING 9735
SWIDTH 960 0
DWIDTH 8 0
BBX 4 7 2 -1
BITMAP
10
20
40
90
50
30
F0
ENDCHAR
STARTCHAR 2608
ENCODING 9736
SWIDTH 960 0
DWIDTH 8 0
BBX 7 7 0 -1
BITMAP
FE
84
88
92
8A
86
9E
ENDCHAR
STARTCHAR 2609
ENCODING 9737
SWIDTH 960 0
DWIDTH 8 0
BBX 5 5 1 0
BITMAP
70
88
A8
88
70
ENDCHAR
STARTCHAR 260A
ENCODING 9738
SWIDTH 960 0
DWIDTH 8 0
BBX 7 7 0 -1
BITMAP
7C
82
44
44
44
AA
44
ENDCHAR
STARTCHAR 260B
ENCODING 9739
SWIDTH 960 0
DWIDTH 8 0
BBX 7 7 0 -1
BITMAP
44
AA
44
44
44
82
7C
ENDCHAR
STARTCHAR 260C
ENCODING 9740
SWIDTH 960 0
DWIDTH 8 0
BBX 7 7 0 -1
BITMAP
02
04
08
70
90
90
60
ENDCHAR
STARTCHAR 260D
ENCODING 9741
SWIDTH 960 0
DWIDTH 8 0
BBX 7 7 0 -1
BITMAP
0C
12
12
7C
90
90
60
ENDCHAR
STARTCHAR 260E
ENCODING 9742
SWIDTH 960 0
DWIDTH 8 0
BBX 5 7 1 -1
BITMAP
70
88
00
70
F8
D8
F8
ENDCHAR
STARTCHAR 260F
ENCODING 9743
SWIDTH 960 0
DWIDTH 8 0
BBX 5 7 1 -1
BITMAP
70
88
00
70
88
A8
F8
ENDCHAR
STARTCHAR 2611
ENCODING 9745
SWIDTH 960 0
DWIDTH 8 0
BBX 7 7 0 -1
BITMAP
FE
86
8A
D2
A2
82
FE
ENDCHAR
STARTCHAR 2612
ENCODING 9746
SWIDTH 960 0
DWIDTH 8 0
BBX 7 7 0 -1
BITMAP
FE
C6
AA
92
AA
C6
FE
ENDCHAR
STARTCHAR 261C
ENCODING 9756
SWIDTH 960 0
DWIDTH 8 0
BBX 7 5 0 0
BITMAP
7E
82
7A
32
3E
ENDCHAR
STARTCHAR 261E
ENCODING 9758
SWIDTH 960 0
DWIDTH 8 0
BBX 7 5 0 0
BITMAP
FC
82
BC
98
F8
ENDCHAR
STARTCHAR 262D
ENCODING 9773
SWIDTH 960 0
DWIDTH 8 0
BBX 7 7 0 -1
BITMAP
20
74
E2
52
0C
4C
B2
ENDCHAR
STARTCHAR 262E
ENCODING 9774
SWIDTH 960 0
DWIDTH 8 0
BBX 7 7 0 -1
BITMAP
7C
92
92
BA
D6
92
7C
ENDCHAR
STARTCHAR 262F
ENCODING 9775
SWIDTH 960 0
DWIDTH 8 0
BBX 7 7 0 -1
BITMAP
7C
82
A2
D2
F6
FE
7C
ENDCHAR
STARTCHAR 2639
ENCODING 9785
SWIDTH 960 0
DWIDTH 8 0
BBX 7 7 0 -1
BITMAP
7C
82
AA
82
92
AA
7C
ENDCHAR
STARTCHAR 263A
ENCODING 9786
SWIDTH 960 0
DWIDTH 8 0
BBX 7 7 0 -1
BITMAP
7C
82
AA
82
AA
92
7C
ENDCHAR
STARTCHAR 263B
ENCODING 9787
SWIDTH 960 0
DWIDTH 8 0
BBX 7 7 0 -1
BITMAP
7C
FE
D6
FE
BA
C6
7C
ENDCHAR
STARTCHAR 263C
ENCODING 9788
SWIDTH 960 0
DWIDTH 8 0
BBX 7 7 0 -1
BITMAP
10
44
10
AA
10
44
10
ENDCHAR
STARTCHAR 263D
ENCODING 9789
SWIDTH 960 0
DWIDTH 8 0
BBX 4 7 2 -1
BITMAP
C0
A0
E0
50
E0
A0
C0
ENDCHAR
STARTCHAR 263E
ENCODING 9790
SWIDTH 960 0
DWIDTH 8 0
BBX 4 7 1 -1
BITMAP
30
50
70
A0
70
50
30
ENDCHAR
STARTCHAR 2640
ENCODING 9792
SWIDTH 960 0
DWIDTH 8 0
BBX 5 7 1 -1
BITMAP
70
88
88
70
20
F8
20
ENDCHAR
STARTCHAR 2642
ENCODING 9794
SWIDTH 960 0
DWIDTH 8 0
BBX 7 7 0 -1
BITMAP
1E
06
0A
72
90
90
60
ENDCHAR
STARTCHAR 2660
ENCODING 9824
SWIDTH 960 0
DWIDTH 8 0
BBX 7 7 0 -1
BITMAP
10
38
7C
FE
FE
10
38
ENDCHAR
STARTCHAR 2661
ENCODING 9825
SWIDTH 960 0
DWIDTH 8 0
BBX 7 7 0 -1
BITMAP
6C
92
82
82
44
28
10
ENDCHAR
STARTCHAR 2662
ENCODING 9826
SWIDTH 960 0
DWIDTH 8 0
BBX 7 7 0 -1
BITMAP
10
28
44
82
44
28
10
ENDCHAR
STARTCHAR 2663
ENCODING 9827
SWIDTH 960 0
DWIDTH 8 0
BBX 7 7 0 -1
BITMAP
38
38
FE
FE
D6
10
38
ENDCHAR
STARTCHAR 2664
ENCODING 9828
SWIDTH 960 0
DWIDTH 8 0
BBX 7 7 0 -1
BITMAP
10
28
44
82
EE
10
38
ENDCHAR
STARTCHAR 2665
ENCODING 9829
SWIDTH 960 0
DWIDTH 8 0
BBX 7 7 0 -1
BITMAP
6C
FE
FE
FE
7C
38
10
ENDCHAR
STARTCHAR 2666
ENCODING 9830
SWIDTH 960 0
DWIDTH 8 0
BBX 7 7 0 -1
BITMAP
10
38
7C
FE
7C
38
10
ENDCHAR
STARTCHAR 2667
ENCODING 9831
SWIDTH 960 0
DWIDTH 8 0
BBX 7 7 0 -1
BITMAP
38
28
D6
BA
D6
10
38
ENDCHAR
STARTCHAR 2668
ENCODING 9832
SWIDTH 960 0
DWIDTH 8 0
BBX 7 7 0 -1
BITMAP
28
50
50
28
AA
82
7C
ENDCHAR
STARTCHAR 2669
ENCODING 9833
SWIDTH 960 0
DWIDTH 8 0
BBX 3 7 2 -1
BITMAP
20
20
20
20
60
E0
40
ENDCHAR
STARTCHAR 266A
ENCODING 9834
SWIDTH 960 0
DWIDTH 8 0
BBX 5 7 1 -1
BITMAP
20
30
28
28
60
E0
C0
ENDCHAR
STARTCHAR 266B
ENCODING 9835
SWIDTH 960 0
DWIDTH 8 0
BBX 6 7 0 -1
BITMAP
0C
74
44
44
4C
CC
C0
ENDCHAR
STARTCHAR 266C
ENCODING 9836
SWIDTH 960 0
DWIDTH 8 0
BBX 6 7 0 -1
BITMAP
1C
64
5C
64
4C
CC
C0
ENDCHAR
STARTCHAR 266D
ENCODING 9837
SWIDTH 960 0
DWIDTH 8 0
BBX 4 7 2 -1
BITMAP
80
80
A0
D0
90
A0
C0
ENDCHAR
STARTCHAR 266F
ENCODING 9839
SWIDTH 960 0
DWIDTH 8 0
BBX 6 7 1 -1
BITMAP
08
4C
78
CC
78
C8
40
ENDCHAR
STARTCHAR 2686
ENCODING 9862
SWIDTH 960 0
DWIDTH 8 0
BBX 7 7 0 -1
BITMAP
38
44
82
8A
82
44
38
ENDCHAR
STARTCHAR 2702
ENCODING 9986
SWIDTH 960 0
DWIDTH 8 0
BBX 7 7 0 -1
BITMAP
42
A4
68
10
68
A4
42
ENDCHAR
STARTCHAR 2708
ENCODING 9992
SWIDTH 960 0
DWIDTH 8 0
BBX 7 7 0 -1
BITMAP
40
30
9C
FE
9C
30
40
ENDCHAR
STARTCHAR 2709
ENCODING 9993
SWIDTH 960 0
DWIDTH 8 0
BBX 7 5 0 0
BITMAP
FE
C6
BA
92
FE
ENDCHAR
STARTCHAR 2713
ENCODING 10003
SWIDTH 960 0
DWIDTH 8 0
BBX 7 6 0 -1
BITMAP
02
02
04
88
50
20
ENDCHAR
STARTCHAR 2715
ENCODING 10005
SWIDTH 960 0
DWIDTH 8 0
BBX 7 7 0 -1
BITMAP
82
44
28
10
28
44
82
ENDCHAR
STARTCHAR 2716
ENCODING 10006
SWIDTH 960 0
DWIDTH 8 0
BBX 5 5 1 0
BITMAP
88
50
20
50
88
ENDCHAR
STARTCHAR 2717
ENCODING 10007
SWIDTH 960 0
DWIDTH 8 0
BBX 7 7 0 -1
BITMAP
04
44
28
10
28
46
80
ENDCHAR
STARTCHAR 271A
ENCODING 10010
SWIDTH 960 0
DWIDTH 8 0
BBX 5 5 1 0
BITMAP
20
20
F8
20
20
ENDCHAR
STARTCHAR 2721
ENCODING 10017
SWIDTH 960 0
DWIDTH 8 0
BBX 7 7 0 -1
BITMAP
10
FE
AA
54
AA
FE
10
ENDCHAR
STARTCHAR 2726
ENCODING 10022
SWIDTH 960 0
DWIDTH 8 0
BBX 7 7 0 -1
BITMAP
10
10
38
FE
38
10
10
ENDCHAR
STARTCHAR 2727
ENCODING 10023
SWIDTH 960 0
DWIDTH 8 0
BBX 7 7 0 -1
BITMAP
10
28
6C
82
6C
28
10
ENDCHAR
STARTCHAR 2728
ENCODING 10024
SWIDTH 960 0
DWIDTH 8 0
BBX 7 7 0 -1
BITMAP
04
4A
44
A0
48
54
08
ENDCHAR
STARTCHAR 272A
ENCODING 10026
SWIDTH 960 0
DWIDTH 8 0
BBX 7 7 0 -1
BITMAP
7C
EE
82
C6
EE
92
7C
ENDCHAR
STARTCHAR 273D
ENCODING 10045
SWIDTH 960 0
DWIDTH 8 0
BBX 7 7 0 -1
BITMAP
92
54
38
10
38
54
92
ENDCHAR
STARTCHAR 273F
ENCODING 10047
SWIDTH 960 0
DWIDTH 8 0
BBX 7 7 0 -1
BITMAP
38
BA
D6
D6
28
EE
C6
ENDCHAR
STARTCHAR 2740
ENCODING 10048
SWIDTH 960 0
DWIDTH 8 0
BBX 7 7 0 -1
BITMAP
10
6C
AA
54
6C
BA
44
ENDCHAR
STARTCHAR 2742
ENCODING 10050
SWIDTH 960 0
DWIDTH 8 0
BBX 7 7 0 -1
BITMAP
6C
BA
EE
44
EE
BA
6C
ENDCHAR
STARTCHAR 2744
ENCODING 10052
SWIDTH 960 0
DWIDTH 8 0
BBX 7 7 0 -1
BITMAP
54
38
10
10
AA
44
AA
ENDCHAR
STARTCHAR 2756
ENCODING 10070
SWIDTH 960 0
DWIDTH 8 0
BBX 7 7 0 -1
BITMAP
10
38
54
EE
54
38
10
ENDCHAR
STARTCHAR 29F8
ENCODING 10744
SWIDTH 960 0
DWIDTH 8 0
BBX 3 7 2 -1
BITMAP
20
20
40
40
40
80
80
ENDCHAR
STARTCHAR 29F9
ENCODING 10745
SWIDTH 960 0
DWIDTH 8 0
BBX 3 7 2 -1
BITMAP
80
80
40
40
40
20
20
ENDCHAR
STARTCHAR 2E3A
ENCODING 11834
SWIDTH 2040 0
DWIDTH 17 0
BBX 16 1 0 2
BITMAP
FFFF
ENDCHAR
STARTCHAR 2E81
ENCODING 11905
SWIDTH 960 0
DWIDTH 8 0
BBX 7 7 0 -1
BITMAP
7E
40
40
40
40
40
80
ENDCHAR
STARTCHAR 2E84
ENCODING 11908
SWIDTH 960 0
DWIDTH 8 0
BBX 7 7 0 -1
BITMAP
F8
08
08
08
08
0A
04
ENDCHAR
STARTCHAR 2E88
ENCODING 11912
SWIDTH 960 0
DWIDTH 8 0
BBX 6 3 0 3
BITMAP
20
7C
88
ENDCHAR
STARTCHAR 2E8B
ENCODING 11915
SWIDTH 960 0
DWIDTH 8 0
BBX 7 5 0 -1
BITMAP
F8
88
9A
82
FE
ENDCHAR
STARTCHAR 2E8C
ENCODING 11916
SWIDTH 960 0
DWIDTH 8 0
BBX 7 3 0 3
BITMAP
10
92
54
ENDCHAR
STARTCHAR 2E97
ENCODING 11927
SWIDTH 960 0
DWIDTH 8 0
BBX 7 5 0 -1
BITMAP
20
20
AA
AA
60
ENDCHAR
STARTCHAR 2EA7
ENCODING 11943
SWIDTH 960 0
DWIDTH 8 0
BBX 7 5 0 1
BITMAP
50
7E
90
10
FE
ENDCHAR
STARTCHAR 2EAA
ENCODING 11946
SWIDTH 960 0
DWIDTH 8 0
BBX 4 7 0 -1
BITMAP
F0
10
A0
B0
A0
A0
F0
ENDCHAR
STARTCHAR 2EAE
ENCODING 11950
SWIDTH 960 0
DWIDTH 8 0
BBX 7 3 0 3
BITMAP
48
6E
B4
ENDCHAR
STARTCHAR 2EB3
ENCODING 11955
SWIDTH 960 0
DWIDTH 8 0
BBX 7 4 0 2
BITMAP
FE
AA
28
CE
ENDCHAR
STARTCHAR 2EB6
ENCODING 11958
SWIDTH 960 0
DWIDTH 8 0
BBX 7 7 0 -1
BITMAP
44
FE
10
FE
20
FE
40
ENDCHAR
STARTCHAR 2EB7
ENCODING 11959
SWIDTH 960 0
DWIDTH 8 0
BBX 7 6 0 0
BITMAP
28
FE
10
FE
10
FE
ENDCHAR
STARTCHAR 2EBB
ENCODING 11963
SWIDTH 960 0
DWIDTH 8 0
BBX 7 6 0 0
BITMAP
10
7C
16
7C
10
FE
ENDCHAR
STARTCHAR 2EBE
ENCODING 11966
SWIDTH 960 0
DWIDTH 8 0
BBX 7 3 0 3
BITMAP
28
FE
28
ENDCHAR
STARTCHAR 2ECA
ENCODING 11978
SWIDTH 960 0
DWIDTH 8 0
BBX 4 7 0 -1
BITMAP
F0
90
F0
20
B0
A0
F0
ENDCHAR
STARTCHAR 2ECC
ENCODING 11980
SWIDTH 960 0
DWIDTH 8 0
BBX 7 7 0 -1
BITMAP
80
40
00
C0
40
40
BE
ENDCHAR
STARTCHAR 2ECD
ENCODING 11981
SWIDTH 960 0
DWIDTH 8 0
BBX 7 7 0 -1
BITMAP
80
00
80
00
C0
40
BE
ENDCHAR
STARTCHAR 2ECE
ENCODING 11982
SWIDTH 960 0
DWIDTH 8 0
BBX 7 7 0 -1
BITMAP
80
00
C0
40
80
40
BE
ENDCHAR
STARTCHAR 2EDC
ENCODING 11996
SWIDTH 960 0
DWIDTH 8 0
BBX 7 7 0 -1
BITMAP
FA
08
0C
0A
08
0A
06
ENDCHAR
STARTCHAR 2F33
ENCODING 12083
SWIDTH 960 0
DWIDTH 8 0
BBX 7 7 0 -1
BITMAP
10
10
64
28
10
24
FA
ENDCHAR
STARTCHAR 2F3E
ENCODING 12094
SWIDTH 960 0
DWIDTH 8 0
BBX 7 7 0 -1
BITMAP
04
7C
42
7E
40
40
80
ENDCHAR
STARTCHAR 2FA1
ENCODING 12193
SWIDTH 960 0
DWIDTH 8 0
BBX 7 7 0 -1
BITMAP
02
FC
7C
10
5C
50
BE
ENDCHAR
STARTCHAR 2FC8
ENCODING 12232
SWIDTH 960 0
DWIDTH 8 0
BBX 7 7 0 -1
BITMAP
44
FE
7C
FE
54
7C
C6
ENDCHAR
STARTCHAR 2FCA
ENCODING 12234
SWIDTH 960 0
DWIDTH 8 0
BBX 7 7 0 -1
BITMAP
7C
54
7C
10
7C
00
AA
ENDCHAR
STARTCHAR 2FF0
ENCODING 12272
SWIDTH 960 0
DWIDTH 8 0
BBX 7 7 0 -1
BITMAP
AA
10
82
10
82
10
AA
ENDCHAR
STARTCHAR 2FF1
ENCODING 12273
SWIDTH 960 0
DWIDTH 8 0
BBX 7 7 0 -1
BITMAP
AA
00
82
54
82
00
AA
ENDCHAR
STARTCHAR 2FF2
ENCODING 12274
SWIDTH 960 0
DWIDTH 8 0
BBX 7 7 0 -1
BITMAP
AA
28
82
28
82
28
AA
ENDCHAR
STARTCHAR 2FF3
ENCODING 12275
SWIDTH 960 0
DWIDTH 8 0
BBX 7 7 0 -1
BITMAP
AA
00
D6
00
D6
00
AA
ENDCHAR
STARTCHAR 2FF4
ENCODING 12276
SWIDTH 960 0
DWIDTH 8 0
BBX 7 7 0 -1
BITMAP
AA
00
BA
28
BA
00
AA
ENDCHAR
STARTCHAR 2FF5
ENCODING 12277
SWIDTH 960 0
DWIDTH 8 0
BBX 7 7 0 -1
BITMAP
AA
00
BA
28
82
28
AA
ENDCHAR
STARTCHAR 2FF6
ENCODING 12278
SWIDTH 960 0
DWIDTH 8 0
BBX 7 7 0 -1
BITMAP
AA
00
AA
38
82
00
AA
ENDCHAR
STARTCHAR 2FF7
ENCODING 12279
SWIDTH 960 0
DWIDTH 8 0
BBX 7 7 0 -1
BITMAP
AA
00
9A
10
9A
00
AA
ENDCHAR
STARTCHAR 2FF8
ENCODING 12280
SWIDTH 960 0
DWIDTH 8 0
BBX 7 7 0 -1
BITMAP
AA
00
B6
20
82
20
AA
ENDCHAR
STARTCHAR 2FF9
ENCODING 12281
SWIDTH 960 0
DWIDTH 8 0
BBX 7 7 0 -1
BITMAP
AA
00
DA
08
82
08
AA
ENDCHAR
STARTCHAR 2FFA
ENCODING 12282
SWIDTH 960 0
DWIDTH 8 0
BBX 7 7 0 -1
BITMAP
AA
20
82
20
B6
00
AA
ENDCHAR
STARTCHAR 2FFB
ENCODING 12283
SWIDTH 960 0
DWIDTH 8 0
BBX 7 7 0 -1
BITMAP
A8
00
AA
00
AA
00
2A
ENDCHAR
STARTCHAR 3000
ENCODING 12288
SWIDTH 960 0
DWIDTH 8 0
BBX 0 0 0 0
BITMAP
ENDCHAR
STARTCHAR 3001
ENCODING 12289
SWIDTH 960 0
DWIDTH 8 0
BBX 2 2 2 1
BITMAP
80
40
ENDCHAR
STARTCHAR 3002
ENCODING 12290
SWIDTH 960 0
DWIDTH 8 0
BBX 3 3 2 1
BITMAP
40
A0
40
ENDCHAR
STARTCHAR 3003
ENCODING 12291
SWIDTH 960 0
DWIDTH 8 0
BBX 5 4 1 0
BITMAP
48
48
48
90
ENDCHAR
STARTCHAR 3004
ENCODING 12292
SWIDTH 960 0
DWIDTH 8 0
BBX 7 7 0 -1
BITMAP
44
96
96
BA
D2
A2
64
ENDCHAR
STARTCHAR 3005
ENCODING 12293
SWIDTH 960 0
DWIDTH 8 0
BBX 6 6 0 -1
BITMAP
20
3C
44
A8
10
08
ENDCHAR
STARTCHAR 3006
ENCODING 12294
SWIDTH 960 0
DWIDTH 8 0
BBX 7 7 0 -1
BITMAP
02
34
48
94
A4
C0
80
ENDCHAR
STARTCHAR 3007
ENCODING 12295
SWIDTH 960 0
DWIDTH 8 0
BBX 7 6 0 -1
BITMAP
38
44
82
82
44
38
ENDCHAR
STARTCHAR 3008
ENCODING 12296
SWIDTH 960 0
DWIDTH 8 0
BBX 4 7 2 -1
BITMAP
10
20
40
80
40
20
10
ENDCHAR
STARTCHAR 3009
ENCODING 12297
SWIDTH 960 0
DWIDTH 8 0
BBX 4 7 1 -1
BITMAP
80
40
20
10
20
40
80
ENDCHAR
STARTCHAR 300A
ENCODING 12298
SWIDTH 960 0
DWIDTH 8 0
BBX 6 7 1 -1
BITMAP
14
28
50
A0
50
28
14
ENDCHAR
STARTCHAR 300B
ENCODING 12299
SWIDTH 960 0
DWIDTH 8 0
BBX 6 7 0 -1
BITMAP
A0
50
28
14
28
50
A0
ENDCHAR
STARTCHAR 300C
ENCODING 12300
SWIDTH 960 0
DWIDTH 8 0
BBX 4 6 3 0
BITMAP
F0
80
80
80
80
80
ENDCHAR
STARTCHAR 300D
ENCODING 12301
SWIDTH 960 0
DWIDTH 8 0
BBX 4 6 0 -1
BITMAP
10
10
10
10
10
F0
ENDCHAR
STARTCHAR 300E
ENCODING 12302
SWIDTH 960 0
DWIDTH 8 0
BBX 5 6 2 0
BITMAP
F8
88
B8
A0
A0
E0
ENDCHAR
STARTCHAR 300F
ENCODING 12303
SWIDTH 960 0
DWIDTH 8 0
BBX 5 6 0 -1
BITMAP
38
28
28
E8
88
F8
ENDCHAR
STARTCHAR 3010
ENCODING 12304
SWIDTH 960 0
DWIDTH 8 0
BBX 3 7 3 -1
BITMAP
E0
C0
80
80
80
C0
E0
ENDCHAR
STARTCHAR 3011
ENCODING 12305
SWIDTH 960 0
DWIDTH 8 0
BBX 3 7 1 -1
BITMAP
E0
60
20
20
20
60
E0
ENDCHAR
STARTCHAR 3012
ENCODING 12306
SWIDTH 960 0
DWIDTH 8 0
BBX 7 7 0 -1
BITMAP
FE
00
FE
10
10
10
10
ENDCHAR
STARTCHAR 3013
ENCODING 12307
SWIDTH 960 0
DWIDTH 8 0
BBX 7 5 0 0
BITMAP
FE
FE
00
FE
FE
ENDCHAR
STARTCHAR 3014
ENCODING 12308
SWIDTH 960 0
DWIDTH 8 0
BBX 4 7 2 -1
BITMAP
30
C0
80
80
80
C0
30
ENDCHAR
STARTCHAR 3015
ENCODING 12309
SWIDTH 960 0
DWIDTH 8 0
BBX 4 7 1 -1
BITMAP
C0
30
10
10
10
30
C0
ENDCHAR
STARTCHAR 3016
ENCODING 12310
SWIDTH 960 0
DWIDTH 8 0
BBX 4 7 2 -1
BITMAP
F0
A0
C0
C0
C0
A0
F0
ENDCHAR
STARTCHAR 3017
ENCODING 12311
SWIDTH 960 0
DWIDTH 8 0
BBX 4 7 1 -1
BITMAP
F0
50
30
30
30
50
F0
ENDCHAR
STARTCHAR 301C
ENCODING 12316
SWIDTH 960 0
DWIDTH 8 0
BBX 7 3 0 1
BITMAP
60
92
0C
ENDCHAR
STARTCHAR 301D
ENCODING 12317
SWIDTH 960 0
DWIDTH 8 0
BBX 4 3 3 3
BITMAP
A0
A0
50
ENDCHAR
STARTCHAR 301E
ENCODING 12318
SWIDTH 960 0
DWIDTH 8 0
BBX 5 2 0 4
BITMAP
48
90
ENDCHAR
STARTCHAR 301F
ENCODING 12319
SWIDTH 960 0
DWIDTH 8 0
BBX 4 3 0 -1
BITMAP
A0
50
50
ENDCHAR
STARTCHAR 3020
ENCODING 12320
SWIDTH 960 0
DWIDTH 8 0
BBX 7 7 0 -1
BITMAP
FE
00
FE
54
10
82
7C
ENDCHAR
STARTCHAR 3021
ENCODING 12321
SWIDTH 960 0
DWIDTH 8 0
BBX 1 7 3 -1
BITMAP
80
80
80
80
80
80
80
ENDCHAR
STARTCHAR 3022
ENCODING 12322
SWIDTH 960 0
DWIDTH 8 0
BBX 5 7 1 -1
BITMAP
08
88
88
88
88
88
08
ENDCHAR
STARTCHAR 3023
ENCODING 12323
SWIDTH 960 0
DWIDTH 8 0
BBX 5 7 1 -1
BITMAP
88
A8
A8
A8
A8
A8
88
ENDCHAR
STARTCHAR 3024
ENCODING 12324
SWIDTH 960 0
DWIDTH 8 0
BBX 7 7 0 -1
BITMAP
02
64
14
08
14
22
C2
ENDCHAR
STARTCHAR 3025
ENCODING 12325
SWIDTH 960 0
DWIDTH 8 0
BBX 6 7 1 -1
BITMAP
4C
90
A0
50
88
88
70
ENDCHAR
STARTCHAR 3026
ENCODING 12326
SWIDTH 960 0
DWIDTH 8 0
BBX 7 2 0 2
BITMAP
10
FE
ENDCHAR
STARTCHAR 3027
ENCODING 12327
SWIDTH 960 0
DWIDTH 8 0
BBX 7 5 0 0
BITMAP
10
FE
00
00
FE
ENDCHAR
STARTCHAR 3028
ENCODING 12328
SWIDTH 960 0
DWIDTH 8 0
BBX 7 6 0 0
BITMAP
10
FE
00
FE
00
FE
ENDCHAR
STARTCHAR 3029
ENCODING 12329
SWIDTH 960 0
DWIDTH 8 0
BBX 6 7 1 -1
BITMAP
40
7C
88
28
10
28
C8
ENDCHAR
STARTCHAR 303E
ENCODING 12350
SWIDTH 960 0
DWIDTH 8 0
BBX 7 7 0 -1
BITMAP
AA
00
BA
10
BA
00
AA
ENDCHAR
STARTCHAR 3041
ENCODING 12353
SWIDTH 960 0
DWIDTH 8 0
BBX 6 6 1 -1
BITMAP
20
78
20
78
B4
64
ENDCHAR
STARTCHAR 3042
ENCODING 12354
SWIDTH 960 0
DWIDTH 8 0
BBX 7 7 0 -1
BITMAP
20
7C
20
3C
6A
B2
64
ENDCHAR
STARTCHAR 3043
ENCODING 12355
SWIDTH 960 0
DWIDTH 8 0
BBX 5 5 1 -1
BITMAP
90
88
88
A0
40
ENDCHAR
STARTCHAR 3044
ENCODING 12356
SWIDTH 960 0
DWIDTH 8 0
BBX 7 6 0 -1
BITMAP
88
84
82
82
50
20
ENDCHAR
STARTCHAR 3045
ENCODING 12357
SWIDTH 960 0
DWIDTH 8 0
BBX 5 6 1 -1
BITMAP
70
00
70
88
10
60
ENDCHAR
STARTCHAR 3046
ENCODING 12358
SWIDTH 960 0
DWIDTH 8 0
BBX 6 7 1 -1
BITMAP
78
00
78
84
04
08
70
ENDCHAR
STARTCHAR 3047
ENCODING 12359
SWIDTH 960 0
DWIDTH 8 0
BBX 5 6 1 -1
BITMAP
70
00
F0
20
60
98
ENDCHAR
STARTCHAR 3048
ENCODING 12360
SWIDTH 960 0
DWIDTH 8 0
BBX 6 7 1 -1
BITMAP
78
00
F8
10
30
50
8C
ENDCHAR
STARTCHAR 3049
ENCODING 12361
SWIDTH 960 0
DWIDTH 8 0
BBX 5 6 1 -1
BITMAP
40
E8
40
70
C8
50
ENDCHAR
STARTCHAR 304A
ENCODING 12362
SWIDTH 960 0
DWIDTH 8 0
BBX 7 7 0 -1
BITMAP
20
F4
22
3C
62
A2
6C
ENDCHAR
STARTCHAR 304B
ENCODING 12363
SWIDTH 960 0
DWIDTH 8 0
BBX 7 7 0 -1
BITMAP
20
20
F4
2A
4A
48
B0
ENDCHAR
STARTCHAR 304C
ENCODING 12364
SWIDTH 960 0
DWIDTH 8 0
BBX 7 7 0 -1
BITMAP
2A
20
F4
2A
4A
48
B0
ENDCHAR
STARTCHAR 304D
ENCODING 12365
SWIDTH 960 0
DWIDTH 8 0
BBX 6 7 1 -1
BITMAP
20
F8
10
FC
48
80
78
ENDCHAR
STARTCHAR 304E
ENCODING 12366
SWIDTH 960 0
DWIDTH 8 0
BBX 6 7 1 -1
BITMAP
28
F8
10
FC
48
80
78
ENDCHAR
STARTCHAR 304F
ENCODING 12367
SWIDTH 960 0
DWIDTH 8 0
BBX 5 7 1 -1
BITMAP
08
10
60
80
60
10
08
ENDCHAR
STARTCHAR 3050
ENCODING 12368
SWIDTH 960 0
DWIDTH 8 0
BBX 5 7 1 -1
BITMAP
08
10
68
80
60
10
08
ENDCHAR
STARTCHAR 3051
ENCODING 12369
SWIDTH 960 0
DWIDTH 8 0
BBX 7 7 0 -1
BITMAP
88
88
BE
88
88
88
10
ENDCHAR
STARTCHAR 3052
ENCODING 12370
SWIDTH 960 0
DWIDTH 8 0
BBX 7 7 0 -1
BITMAP
8A
88
BE
88
88
88
10
ENDCHAR
STARTCHAR 3053
ENCODING 12371
SWIDTH 960 0
DWIDTH 8 0
BBX 6 6 1 -1
BITMAP
78
00
00
40
80
7C
ENDCHAR
STARTCHAR 3054
ENCODING 12372
SWIDTH 960 0
DWIDTH 8 0
BBX 6 7 1 -1
BITMAP
14
78
00
00
40
80
7C
ENDCHAR
STARTCHAR 3055
ENCODING 12373
SWIDTH 960 0
DWIDTH 8 0
BBX 6 7 1 -1
BITMAP
10
10
FC
08
48
80
78
ENDCHAR
STARTCHAR 3056
ENCODING 12374
SWIDTH 960 0
DWIDTH 8 0
BBX 6 7 1 -1
BITMAP
14
10
FC
08
48
80
78
ENDCHAR
STARTCHAR 3057
ENCODING 12375
SWIDTH 960 0
DWIDTH 8 0
BBX 5 7 2 -1
BITMAP
80
80
80
80
80
88
70
ENDCHAR
STARTCHAR 3058
ENCODING 12376
SWIDTH 960 0
DWIDTH 8 0
BBX 5 7 2 -1
BITMAP
A8
80
80
80
80
88
70
ENDCHAR
STARTCHAR 3059
ENCODING 12377
SWIDTH 960 0
DWIDTH 8 0
BBX 7 7 0 -1
BITMAP
08
FE
18
28
18
08
10
ENDCHAR
STARTCHAR 305A
ENCODING 12378
SWIDTH 960 0
DWIDTH 8 0
BBX 7 7 0 -1
BITMAP
0A
FE
18
28
18
08
10
ENDCHAR
STARTCHAR 305B
ENCODING 12379
SWIDTH 960 0
DWIDTH 8 0
BBX 7 7 0 -1
BITMAP
24
24
FE
24
2C
20
1E
ENDCHAR
STARTCHAR 305C
ENCODING 12380
SWIDTH 960 0
DWIDTH 8 0
BBX 7 7 0 -1
BITMAP
2A
24
FE
24
2C
20
1E
ENDCHAR
STARTCHAR 305D
ENCODING 12381
SWIDTH 960 0
DWIDTH 8 0
BBX 6 7 1 -1
BITMAP
78
10
20
FC
20
20
18
ENDCHAR
STARTCHAR 305E
ENCODING 12382
SWIDTH 960 0
DWIDTH 8 0
BBX 6 7 1 -1
BITMAP
78
14
20
FC
20
20
18
ENDCHAR
STARTCHAR 305F
ENCODING 12383
SWIDTH 960 0
DWIDTH 8 0
BBX 7 7 0 -1
BITMAP
20
F0
2E
40
48
50
8E
ENDCHAR
STARTCHAR 3060
ENCODING 12384
SWIDTH 960 0
DWIDTH 8 0
BBX 7 7 0 -1
BITMAP
2A
F0
2E
40
48
50
8E
ENDCHAR
STARTCHAR 3061
ENCODING 12385
SWIDTH 960 0
DWIDTH 8 0
BBX 6 7 1 -1
BITMAP
10
FC
20
38
44
04
38
ENDCHAR
STARTCHAR 3062
ENCODING 12386
SWIDTH 960 0
DWIDTH 8 0
BBX 6 7 1 -1
BITMAP
14
FC
20
38
44
04
38
ENDCHAR
STARTCHAR 3063
ENCODING 12387
SWIDTH 960 0
DWIDTH 8 0
BBX 5 4 1 -1
BITMAP
30
C8
08
30
ENDCHAR
STARTCHAR 3064
ENCODING 12388
SWIDTH 960 0
DWIDTH 8 0
BBX 7 5 0 0
BITMAP
3C
C2
02
02
1C
ENDCHAR
STARTCHAR 3065
ENCODING 12389
SWIDTH 960 0
DWIDTH 8 0
BBX 7 6 0 0
BITMAP
0A
3C
C2
02
02
1C
ENDCHAR
STARTCHAR 3066
ENCODING 12390
SWIDTH 960 0
DWIDTH 8 0
BBX 6 7 1 -1
BITMAP
1C
E8
10
20
20
10
0C
ENDCHAR
STARTCHAR 3067
ENCODING 12391
SWIDTH 960 0
DWIDTH 8 0
BBX 6 7 1 -1
BITMAP
1C
E8
14
20
20
10
0C
ENDCHAR
STARTCHAR 3068
ENCODING 12392
SWIDTH 960 0
DWIDTH 8 0
BBX 6 7 1 -1
BITMAP
40
40
48
30
40
80
7C
ENDCHAR
STARTCHAR 3069
ENCODING 12393
SWIDTH 960 0
DWIDTH 8 0
BBX 6 7 1 -1
BITMAP
54
40
48
30
40
80
7C
ENDCHAR
STARTCHAR 306A
ENCODING 12394
SWIDTH 960 0
DWIDTH 8 0
BBX 7 7 0 -1
BITMAP
20
F4
22
44
9C
26
18
ENDCHAR
STARTCHAR 306B
ENCODING 12395
SWIDTH 960 0
DWIDTH 8 0
BBX 7 7 0 -1
BITMAP
80
9C
80
80
90
A0
9E
ENDCHAR
STARTCHAR 306C
ENCODING 12396
SWIDTH 960 0
DWIDTH 8 0
BBX 7 7 0 -1
BITMAP
08
48
5C
6A
B2
A6
56
ENDCHAR
STARTCHAR 306D
ENCODING 12397
SWIDTH 960 0
DWIDTH 8 0
BBX 7 7 0 -1
BITMAP
20
2C
F2
22
66
AA
26
ENDCHAR
STARTCHAR 306E
ENCODING 12398
SWIDTH 960 0
DWIDTH 8 0
BBX 7 6 0 -1
BITMAP
38
54
92
A2
44
18
ENDCHAR
STARTCHAR 306F
ENCODING 12399
SWIDTH 960 0
DWIDTH 8 0
BBX 7 7 0 -1
BITMAP
84
84
BE
84
9C
A4
9A
ENDCHAR
STARTCHAR 3070
ENCODING 12400
SWIDTH 960 0
DWIDTH 8 0
BBX 7 7 0 -1
BITMAP
8A
84
BE
84
9C
A4
9A
ENDCHAR
STARTCHAR 3071
ENCODING 12401
SWIDTH 960 0
DWIDTH 8 0
BBX 7 7 0 -1
BITMAP
84
8A
BE
84
9C
A4
9A
ENDCHAR
STARTCHAR 3072
ENCODING 12402
SWIDTH 960 0
DWIDTH 8 0
BBX 7 7 0 -1
BITMAP
28
E4
26
44
44
44
38
ENDCHAR
STARTCHAR 3073
ENCODING 12403
SWIDTH 960 0
DWIDTH 8 0
BBX 7 7 0 -1
BITMAP
2A
E4
26
44
44
44
38
ENDCHAR
STARTCHAR 3074
ENCODING 12404
SWIDTH 960 0
DWIDTH 8 0
BBX 7 7 0 -1
BITMAP
2C
EA
26
44
44
44
38
ENDCHAR
STARTCHAR 3075
ENCODING 12405
SWIDTH 960 0
DWIDTH 8 0
BBX 7 7 0 -1
BITMAP
10
08
10
10
4C
4A
B2
ENDCHAR
STARTCHAR 3076
ENCODING 12406
SWIDTH 960 0
DWIDTH 8 0
BBX 7 7 0 -1
BITMAP
10
0A
10
10
4C
4A
B2
ENDCHAR
STARTCHAR 3077
ENCODING 12407
SWIDTH 960 0
DWIDTH 8 0
BBX 7 7 0 -1
BITMAP
14
0A
14
10
4C
4A
B2
ENDCHAR
STARTCHAR 3078
ENCODING 12408
SWIDTH 960 0
DWIDTH 8 0
BBX 7 4 0 1
BITMAP
20
50
88
06
ENDCHAR
STARTCHAR 3079
ENCODING 12409
SWIDTH 960 0
DWIDTH 8 0
BBX 7 5 0 1
BITMAP
0A
20
50
88
06
ENDCHAR
STARTCHAR 307A
ENCODING 12410
SWIDTH 960 0
DWIDTH 8 0
BBX 7 5 0 1
BITMAP
04
2A
54
88
06
ENDCHAR
STARTCHAR 307B
ENCODING 12411
SWIDTH 960 0
DWIDTH 8 0
BBX 7 7 0 -1
BITMAP
80
BE
88
BE
88
BC
BA
ENDCHAR
STARTCHAR 307C
ENCODING 12412
SWIDTH 960 0
DWIDTH 8 0
BBX 7 7 0 -1
BITMAP
8A
BE
88
BE
88
BC
BA
ENDCHAR
STARTCHAR 307D
ENCODING 12413
SWIDTH 960 0
DWIDTH 8 0
BBX 7 7 0 -1
BITMAP
84
BA
8C
BE
88
BC
BA
ENDCHAR
STARTCHAR 307E
ENCODING 12414
SWIDTH 960 0
DWIDTH 8 0
BBX 6 7 1 -1
BITMAP
10
FC
10
FC
10
F8
F4
ENDCHAR
STARTCHAR 307F
ENCODING 12415
SWIDTH 960 0
DWIDTH 8 0
BBX 7 7 0 -1
BITMAP
70
10
24
7C
A6
C4
18
ENDCHAR
STARTCHAR 3080
ENCODING 12416
SWIDTH 960 0
DWIDTH 8 0
BBX 7 7 0 -1
BITMAP
20
F4
22
60
A0
62
3C
ENDCHAR
STARTCHAR 3081
ENCODING 12417
SWIDTH 960 0
DWIDTH 8 0
BBX 7 7 0 -1
BITMAP
08
48
5C
6A
B2
A2
54
ENDCHAR
STARTCHAR 3082
ENCODING 12418
SWIDTH 960 0
DWIDTH 8 0
BBX 6 7 1 -1
BITMAP
20
F8
40
F8
44
44
38
ENDCHAR
STARTCHAR 3083
ENCODING 12419
SWIDTH 960 0
DWIDTH 8 0
BBX 6 6 1 -1
BITMAP
50
58
E4
28
20
10
ENDCHAR
STARTCHAR 3084
ENCODING 12420
SWIDTH 960 0
DWIDTH 8 0
BBX 7 7 0 -1
BITMAP
48
5C
E2
24
20
10
10
ENDCHAR
STARTCHAR 3085
ENCODING 12421
SWIDTH 960 0
DWIDTH 8 0
BBX 5 6 1 -1
BITMAP
20
B0
E8
A8
30
40
ENDCHAR
STARTCHAR 3086
ENCODING 12422
SWIDTH 960 0
DWIDTH 8 0
BBX 7 7 0 -1
BITMAP
10
BC
D2
92
BC
10
20
ENDCHAR
STARTCHAR 3087
ENCODING 12423
SWIDTH 960 0
DWIDTH 8 0
BBX 5 6 1 -1
BITMAP
10
10
18
70
90
68
ENDCHAR
STARTCHAR 3088
ENCODING 12424
SWIDTH 960 0
DWIDTH 8 0
BBX 6 7 1 -1
BITMAP
10
10
1C
10
70
98
64
ENDCHAR
STARTCHAR 3089
ENCODING 12425
SWIDTH 960 0
DWIDTH 8 0
BBX 6 7 1 -1
BITMAP
60
10
80
B8
C4
04
78
ENDCHAR
STARTCHAR 308A
ENCODING 12426
SWIDTH 960 0
DWIDTH 8 0
BBX 5 7 1 -1
BITMAP
B0
C8
88
88
08
10
60
ENDCHAR
STARTCHAR 308B
ENCODING 12427
SWIDTH 960 0
DWIDTH 8 0
BBX 6 7 1 -1
BITMAP
78
10
20
78
84
64
78
ENDCHAR
STARTCHAR 308C
ENCODING 12428
SWIDTH 960 0
DWIDTH 8 0
BBX 7 7 0 -1
BITMAP
20
2C
F4
24
64
A4
22
ENDCHAR
STARTCHAR 308D
ENCODING 12429
SWIDTH 960 0
DWIDTH 8 0
BBX 6 7 1 -1
BITMAP
78
10
20
78
84
04
78
ENDCHAR
STARTCHAR 308E
ENCODING 12430
SWIDTH 960 0
DWIDTH 8 0
BBX 6 6 1 -1
BITMAP
20
28
F4
64
A4
28
ENDCHAR
STARTCHAR 308F
ENCODING 12431
SWIDTH 960 0
DWIDTH 8 0
BBX 7 7 0 -1
BITMAP
20
2C
F2
22
62
A2
2C
ENDCHAR
STARTCHAR 3090
ENCODING 12432
SWIDTH 960 0
DWIDTH 8 0
BBX 7 7 0 -1
BITMAP
70
10
3C
52
96
AA
46
ENDCHAR
STARTCHAR 3091
ENCODING 12433
SWIDTH 960 0
DWIDTH 8 0
BBX 7 7 0 -1
BITMAP
38
10
38
44
18
6C
92
ENDCHAR
STARTCHAR 3092
ENCODING 12434
SWIDTH 960 0
DWIDTH 8 0
BBX 7 7 0 -1
BITMAP
10
7C
20
76
98
28
1E
ENDCHAR
STARTCHAR 3093
ENCODING 12435
SWIDTH 960 0
DWIDTH 8 0
BBX 7 7 0 -1
BITMAP
10
10
20
20
50
52
8C
ENDCHAR
STARTCHAR 3094
ENCODING 12436
SWIDTH 960 0
DWIDTH 8 0
BBX 6 7 1 -1
BITMAP
74
00
78
84
04
08
70
ENDCHAR
STARTCHAR 309B
ENCODING 12443
SWIDTH 960 0
DWIDTH 8 0
BBX 4 2 0 4
BITMAP
A0
50
ENDCHAR
STARTCHAR 309C
ENCODING 12444
SWIDTH 960 0
DWIDTH 8 0
BBX 3 3 0 3
BITMAP
40
A0
40
ENDCHAR
STARTCHAR 309D
ENCODING 12445
SWIDTH 960 0
DWIDTH 8 0
BBX 4 5 2 0
BITMAP
80
40
20
30
C0
ENDCHAR
STARTCHAR 309E
ENCODING 12446
SWIDTH 960 0
DWIDTH 8 0
BBX 5 6 2 0
BITMAP
28
80
40
20
30
C0
ENDCHAR
STARTCHAR 30A1
ENCODING 12449
SWIDTH 960 0
DWIDTH 8 0
BBX 5 5 1 -1
BITMAP
F8
28
30
20
40
ENDCHAR
STARTCHAR 30A2
ENCODING 12450
SWIDTH 960 0
DWIDTH 8 0
BBX 6 7 1 -1
BITMAP
FC
04
28
30
20
20
40
ENDCHAR
STARTCHAR 30A3
ENCODING 12451
SWIDTH 960 0
DWIDTH 8 0
BBX 5 5 1 -1
BITMAP
08
10
30
D0
10
ENDCHAR
STARTCHAR 30A4
ENCODING 12452
SWIDTH 960 0
DWIDTH 8 0
BBX 6 7 1 -1
BITMAP
04
08
10
30
D0
10
10
ENDCHAR
STARTCHAR 30A5
ENCODING 12453
SWIDTH 960 0
DWIDTH 8 0
BBX 5 5 1 -1
BITMAP
20
F8
88
10
60
ENDCHAR
STARTCHAR 30A6
ENCODING 12454
SWIDTH 960 0
DWIDTH 8 0
BBX 6 7 1 -1
BITMAP
20
FC
84
04
08
10
60
ENDCHAR
STARTCHAR 30A7
ENCODING 12455
SWIDTH 960 0
DWIDTH 8 0
BBX 5 4 1 -1
BITMAP
70
20
20
F8
ENDCHAR
STARTCHAR 30A8
ENCODING 12456
SWIDTH 960 0
DWIDTH 8 0
BBX 7 5 0 0
BITMAP
7C
10
10
10
FE
ENDCHAR
STARTCHAR 30A9
ENCODING 12457
SWIDTH 960 0
DWIDTH 8 0
BBX 5 5 1 -1
BITMAP
10
F8
30
D0
30
ENDCHAR
STARTCHAR 30AA
ENCODING 12458
SWIDTH 960 0
DWIDTH 8 0
BBX 7 7 0 -1
BITMAP
08
FE
08
18
28
C8
18
ENDCHAR
STARTCHAR 30AB
ENCODING 12459
SWIDTH 960 0
DWIDTH 8 0
BBX 6 7 1 -1
BITMAP
20
FC
24
24
24
44
8C
ENDCHAR
STARTCHAR 30AC
ENCODING 12460
SWIDTH 960 0
DWIDTH 8 0
BBX 6 7 1 -1
BITMAP
28
FC
24
24
24
44
8C
ENDCHAR
STARTCHAR 30AD
ENCODING 12461
SWIDTH 960 0
DWIDTH 8 0
BBX 6 7 1 -1
BITMAP
20
F8
20
20
FC
10
10
ENDCHAR
STARTCHAR 30AE
ENCODING 12462
SWIDTH 960 0
DWIDTH 8 0
BBX 6 7 1 -1
BITMAP
28
F8
20
20
FC
10
10
ENDCHAR
STARTCHAR 30AF
ENCODING 12463
SWIDTH 960 0
DWIDTH 8 0
BBX 6 7 1 -1
BITMAP
20
3C
44
84
08
10
60
ENDCHAR
STARTCHAR 30B0
ENCODING 12464
SWIDTH 960 0
DWIDTH 8 0
BBX 6 7 1 -1
BITMAP
28
3C
44
84
08
10
60
ENDCHAR
STARTCHAR 30B1
ENCODING 12465
SWIDTH 960 0
DWIDTH 8 0
BBX 7 7 0 -1
BITMAP
40
7E
48
88
08
10
20
ENDCHAR
STARTCHAR 30B2
ENCODING 12466
SWIDTH 960 0
DWIDTH 8 0
BBX 7 7 0 -1
BITMAP
4A
7E
48
88
08
10
20
ENDCHAR
STARTCHAR 30B3
ENCODING 12467
SWIDTH 960 0
DWIDTH 8 0
BBX 6 6 1 -1
BITMAP
FC
04
04
04
04
FC
ENDCHAR
STARTCHAR 30B4
ENCODING 12468
SWIDTH 960 0
DWIDTH 8 0
BBX 6 7 1 -1
BITMAP
14
FC
04
04
04
04
FC
ENDCHAR
STARTCHAR 30B5
ENCODING 12469
SWIDTH 960 0
DWIDTH 8 0
BBX 7 7 0 -1
BITMAP
24
FE
24
24
04
08
30
ENDCHAR
STARTCHAR 30B6
ENCODING 12470
SWIDTH 960 0
DWIDTH 8 0
BBX 7 7 0 -1
BITMAP
2A
FE
24
24
04
08
30
ENDCHAR
STARTCHAR 30B7
ENCODING 12471
SWIDTH 960 0
DWIDTH 8 0
BBX 6 7 1 -1
BITMAP
80
40
84
44
08
10
E0
ENDCHAR
STARTCHAR 30B8
ENCODING 12472
SWIDTH 960 0
DWIDTH 8 0
BBX 6 7 1 -1
BITMAP
94
40
84
44
08
10
E0
ENDCHAR
STARTCHAR 30B9
ENCODING 12473
SWIDTH 960 0
DWIDTH 8 0
BBX 7 6 0 -1
BITMAP
7C
04
08
08
34
C2
ENDCHAR
STARTCHAR 30BA
ENCODING 12474
SWIDTH 960 0
DWIDTH 8 0
BBX 7 7 0 -1
BITMAP
0A
7C
04
08
08
34
C2
ENDCHAR
STARTCHAR 30BB
ENCODING 12475
SWIDTH 960 0
DWIDTH 8 0
BBX 7 7 0 -1
BITMAP
20
20
FE
22
24
20
1E
ENDCHAR
STARTCHAR 30BC
ENCODING 12476
SWIDTH 960 0
DWIDTH 8 0
BBX 7 7 0 -1
BITMAP
2A
20
FE
22
24
20
1E
ENDCHAR
STARTCHAR 30BD
ENCODING 12477
SWIDTH 960 0
DWIDTH 8 0
BBX 6 7 1 -1
BITMAP
84
44
44
04
08
10
60
ENDCHAR
STARTCHAR 30BE
ENCODING 12478
SWIDTH 960 0
DWIDTH 8 0
BBX 6 7 1 -1
BITMAP
94
40
44
04
08
10
60
ENDCHAR
STARTCHAR 30BF
ENCODING 12479
SWIDTH 960 0
DWIDTH 8 0
BBX 6 7 1 -1
BITMAP
20
3C
44
B4
08
10
60
ENDCHAR
STARTCHAR 30C0
ENCODING 12480
SWIDTH 960 0
DWIDTH 8 0
BBX 6 7 1 -1
BITMAP
28
3C
44
B4
08
10
60
ENDCHAR
STARTCHAR 30C1
ENCODING 12481
SWIDTH 960 0
DWIDTH 8 0
BBX 7 7 0 -1
BITMAP
0C
70
10
FE
10
10
20
ENDCHAR
STARTCHAR 30C2
ENCODING 12482
SWIDTH 960 0
DWIDTH 8 0
BBX 7 7 0 -1
BITMAP
0A
70
10
FE
10
10
20
ENDCHAR
STARTCHAR 30C3
ENCODING 12483
SWIDTH 960 0
DWIDTH 8 0
BBX 5 4 1 -1
BITMAP
A8
A8
10
60
ENDCHAR
STARTCHAR 30C4
ENCODING 12484
SWIDTH 960 0
DWIDTH 8 0
BBX 7 6 0 -1
BITMAP
A2
52
52
04
08
30
ENDCHAR
STARTCHAR 30C5
ENCODING 12485
SWIDTH 960 0
DWIDTH 8 0
BBX 7 7 0 -1
BITMAP
0A
A0
52
52
04
08
30
ENDCHAR
STARTCHAR 30C6
ENCODING 12486
SWIDTH 960 0
DWIDTH 8 0
BBX 7 7 0 -1
BITMAP
7C
00
FE
10
10
10
20
ENDCHAR
STARTCHAR 30C7
ENCODING 12487
SWIDTH 960 0
DWIDTH 8 0
BBX 7 7 0 -1
BITMAP
7A
00
FE
10
10
10
20
ENDCHAR
STARTCHAR 30C8
ENCODING 12488
SWIDTH 960 0
DWIDTH 8 0
BBX 4 7 2 -1
BITMAP
80
80
80
E0
90
80
80
ENDCHAR
STARTCHAR 30C9
ENCODING 12489
SWIDTH 960 0
DWIDTH 8 0
BBX 5 7 2 -1
BITMAP
A8
80
80
E0
90
80
80
ENDCHAR
STARTCHAR 30CA
ENCODING 12490
SWIDTH 960 0
DWIDTH 8 0
BBX 7 7 0 -1
BITMAP
10
10
FE
10
10
20
40
ENDCHAR
STARTCHAR 30CB
ENCODING 12491
SWIDTH 960 0
DWIDTH 8 0
BBX 7 5 0 0
BITMAP
7C
00
00
00
FE
ENDCHAR
STARTCHAR 30CC
ENCODING 12492
SWIDTH 960 0
DWIDTH 8 0
BBX 6 7 0 -1
BITMAP
7C
04
34
08
18
24
C0
ENDCHAR
STARTCHAR 30CD
ENCODING 12493
SWIDTH 960 0
DWIDTH 8 0
BBX 7 7 0 -1
BITMAP
10
7C
08
10
34
D2
10
ENDCHAR
STARTCHAR 30CE
ENCODING 12494
SWIDTH 960 0
DWIDTH 8 0
BBX 6 7 0 -1
BITMAP
04
04
04
08
10
20
C0
ENDCHAR
STARTCHAR 30CF
ENCODING 12495
SWIDTH 960 0
DWIDTH 8 0
BBX 7 6 0 -1
BITMAP
28
24
24
42
42
82
ENDCHAR
STARTCHAR 30D0
ENCODING 12496
SWIDTH 960 0
DWIDTH 8 0
BBX 7 7 0 -1
BITMAP
0A
20
24
24
42
42
82
ENDCHAR
STARTCHAR 30D1
ENCODING 12497
SWIDTH 960 0
DWIDTH 8 0
BBX 7 7 0 -1
BITMAP
04
2A
24
24
42
42
82
ENDCHAR
STARTCHAR 30D2
ENCODING 12498
SWIDTH 960 0
DWIDTH 8 0
BBX 6 7 1 -1
BITMAP
80
80
8C
F0
80
80
7C
ENDCHAR
STARTCHAR 30D3
ENCODING 12499
SWIDTH 960 0
DWIDTH 8 0
BBX 6 7 1 -1
BITMAP
94
80
8C
F0
80
80
7C
ENDCHAR
STARTCHAR 30D4
ENCODING 12500
SWIDTH 960 0
DWIDTH 8 0
BBX 6 7 1 -1
BITMAP
88
94
8C
F0
80
80
7C
ENDCHAR
STARTCHAR 30D5
ENCODING 12501
SWIDTH 960 0
DWIDTH 8 0
BBX 6 6 1 -1
BITMAP
FC
04
04
08
10
60
ENDCHAR
STARTCHAR 30D6
ENCODING 12502
SWIDTH 960 0
DWIDTH 8 0
BBX 6 7 1 -1
BITMAP
14
FC
04
04
08
10
60
ENDCHAR
STARTCHAR 30D7
ENCODING 12503
SWIDTH 960 0
DWIDTH 8 0
BBX 6 7 1 -1
BITMAP
08
F4
0C
04
08
10
60
ENDCHAR
STARTCHAR 30D8
ENCODING 12504
SWIDTH 960 0
DWIDTH 8 0
BBX 7 5 0 0
BITMAP
20
50
88
04
02
ENDCHAR
STARTCHAR 30D9
ENCODING 12505
SWIDTH 960 0
DWIDTH 8 0
BBX 7 6 0 0
BITMAP
0A
20
50
88
04
02
ENDCHAR
STARTCHAR 30DA
ENCODING 12506
SWIDTH 960 0
DWIDTH 8 0
BBX 7 6 0 0
BITMAP
04
2A
54
88
04
02
ENDCHAR
STARTCHAR 30DB
ENCODING 12507
SWIDTH 960 0
DWIDTH 8 0
BBX 7 7 0 -1
BITMAP
10
10
FE
10
54
92
30
ENDCHAR
STARTCHAR 30DC
ENCODING 12508
SWIDTH 960 0
DWIDTH 8 0
BBX 7 7 0 -1
BITMAP
1A
10
FE
10
54
92
30
ENDCHAR
STARTCHAR 30DD
ENCODING 12509
SWIDTH 960 0
DWIDTH 8 0
BBX 7 7 0 -1
BITMAP
14
1A
F4
10
54
92
30
ENDCHAR
STARTCHAR 30DE
ENCODING 12510
SWIDTH 960 0
DWIDTH 8 0
BBX 7 6 0 -1
BITMAP
FE
02
04
28
10
08
ENDCHAR
STARTCHAR 30DF
ENCODING 12511
SWIDTH 960 0
DWIDTH 8 0
BBX 5 7 1 -1
BITMAP
E0
18
40
30
00
E0
18
ENDCHAR
STARTCHAR 30E0
ENCODING 12512
SWIDTH 960 0
DWIDTH 8 0
BBX 7 7 0 -1
BITMAP
10
10
20
20
48
44
FA
ENDCHAR
STARTCHAR 30E1
ENCODING 12513
SWIDTH 960 0
DWIDTH 8 0
BBX 6 7 0 -1
BITMAP
04
04
74
08
14
24
C0
ENDCHAR
STARTCHAR 30E2
ENCODING 12514
SWIDTH 960 0
DWIDTH 8 0
BBX 6 7 1 -1
BITMAP
78
20
20
FC
20
20
1C
ENDCHAR
STARTCHAR 30E3
ENCODING 12515
SWIDTH 960 0
DWIDTH 8 0
BBX 5 5 1 -1
BITMAP
40
78
C8
20
20
ENDCHAR
STARTCHAR 30E4
ENCODING 12516
SWIDTH 960 0
DWIDTH 8 0
BBX 7 7 0 -1
BITMAP
20
2E
F2
24
10
10
10
ENDCHAR
STARTCHAR 30E5
ENCODING 12517
SWIDTH 960 0
DWIDTH 8 0
BBX 5 4 1 -1
BITMAP
70
10
10
F8
ENDCHAR
STARTCHAR 30E6
ENCODING 12518
SWIDTH 960 0
DWIDTH 8 0
BBX 7 5 0 0
BITMAP
78
08
08
08
FE
ENDCHAR
STARTCHAR 30E7
ENCODING 12519
SWIDTH 960 0
DWIDTH 8 0
BBX 4 5 2 -1
BITMAP
F0
10
70
10
F0
ENDCHAR
STARTCHAR 30E8
ENCODING 12520
SWIDTH 960 0
DWIDTH 8 0
BBX 6 6 1 -1
BITMAP
FC
04
7C
04
04
FC
ENDCHAR
STARTCHAR 30E9
ENCODING 12521
SWIDTH 960 0
DWIDTH 8 0
BBX 6 7 1 -1
BITMAP
78
00
FC
04
08
10
60
ENDCHAR
STARTCHAR 30EA
ENCODING 12522
SWIDTH 960 0
DWIDTH 8 0
BBX 5 7 1 -1
BITMAP
88
88
88
88
08
10
60
ENDCHAR
STARTCHAR 30EB
ENCODING 12523
SWIDTH 960 0
DWIDTH 8 0
BBX 7 7 0 -1
BITMAP
08
28
28
28
2A
4C
88
ENDCHAR
STARTCHAR 30EC
ENCODING 12524
SWIDTH 960 0
DWIDTH 8 0
BBX 5 7 2 -1
BITMAP
80
80
80
88
90
A0
C0
ENDCHAR
STARTCHAR 30ED
ENCODING 12525
SWIDTH 960 0
DWIDTH 8 0
BBX 6 6 1 -1
BITMAP
FC
84
84
84
84
FC
ENDCHAR
STARTCHAR 30EE
ENCODING 12526
SWIDTH 960 0
DWIDTH 8 0
BBX 5 5 1 -1
BITMAP
F8
88
08
10
60
ENDCHAR
STARTCHAR 30EF
ENCODING 12527
SWIDTH 960 0
DWIDTH 8 0
BBX 6 6 1 -1
BITMAP
FC
84
04
08
10
60
ENDCHAR
STARTCHAR 30F0
ENCODING 12528
SWIDTH 960 0
DWIDTH 8 0
BBX 7 7 0 -1
BITMAP
04
7E
24
24
FE
04
04
ENDCHAR
STARTCHAR 30F1
ENCODING 12529
SWIDTH 960 0
DWIDTH 8 0
BBX 7 5 0 0
BITMAP
7C
08
10
10
FE
ENDCHAR
STARTCHAR 30F2
ENCODING 12530
SWIDTH 960 0
DWIDTH 8 0
BBX 6 7 1 -1
BITMAP
FC
04
7C
04
08
10
60
ENDCHAR
STARTCHAR 30F3
ENCODING 12531
SWIDTH 960 0
DWIDTH 8 0
BBX 6 7 1 -1
BITMAP
80
40
04
04
08
10
E0
ENDCHAR
STARTCHAR 30F4
ENCODING 12532
SWIDTH 960 0
DWIDTH 8 0
BBX 6 7 1 -1
BITMAP
28
FC
84
04
08
10
60
ENDCHAR
STARTCHAR 30F5
ENCODING 12533
SWIDTH 960 0
DWIDTH 8 0
BBX 5 5 1 -1
BITMAP
20
F8
28
48
98
ENDCHAR
STARTCHAR 30F6
ENCODING 12534
SWIDTH 960 0
DWIDTH 8 0
BBX 5 5 1 -1
BITMAP
40
78
90
10
20
ENDCHAR
STARTCHAR 30FB
ENCODING 12539
SWIDTH 960 0
DWIDTH 8 0
BBX 2 2 2 1
BITMAP
C0
C0
ENDCHAR
STARTCHAR 30FC
ENCODING 12540
SWIDTH 960 0
DWIDTH 8 0
BBX 7 2 0 2
BITMAP
80
7E
ENDCHAR
STARTCHAR 30FD
ENCODING 12541
SWIDTH 960 0
DWIDTH 8 0
BBX 3 4 2 0
BITMAP
80
40
20
20
ENDCHAR
STARTCHAR 30FE
ENCODING 12542
SWIDTH 960 0
DWIDTH 8 0
BBX 5 6 2 0
BITMAP
28
00
80
40
20
20
ENDCHAR
STARTCHAR 3105
ENCODING 12549
SWIDTH 960 0
DWIDTH 8 0
BBX 5 7 1 -1
BITMAP
20
40
F8
08
08
08
30
ENDCHAR
STARTCHAR 3106
ENCODING 12550
SWIDTH 960 0
DWIDTH 8 0
BBX 5 7 1 -1
BITMAP
40
F8
08
50
20
50
88
ENDCHAR
STARTCHAR 3107
ENCODING 12551
SWIDTH 960 0
DWIDTH 8 0
BBX 5 7 1 -1
BITMAP
F8
88
88
88
88
88
88
ENDCHAR
STARTCHAR 3108
ENCODING 12552
SWIDTH 960 0
DWIDTH 8 0
BBX 5 7 1 -1
BITMAP
F8
80
80
80
80
80
F8
ENDCHAR
STARTCHAR 3109
ENCODING 12553
SWIDTH 960 0
DWIDTH 8 0
BBX 5 7 1 -1
BITMAP
80
F8
48
48
48
48
90
ENDCHAR
STARTCHAR 310A
ENCODING 12554
SWIDTH 960 0
DWIDTH 8 0
BBX 5 7 1 -1
BITMAP
20
F8
40
40
90
90
E8
ENDCHAR
STARTCHAR 310B
ENCODING 12555
SWIDTH 960 0
DWIDTH 8 0
BBX 5 7 1 -1
BITMAP
F0
10
20
78
08
08
30
ENDCHAR
STARTCHAR 310C
ENCODING 12556
SWIDTH 960 0
DWIDTH 8 0
BBX 5 7 1 -1
BITMAP
A0
F8
28
28
48
48
90
ENDCHAR
STARTCHAR 310D
ENCODING 12557
SWIDTH 960 0
DWIDTH 8 0
BBX 5 7 1 -1
BITMAP
28
50
50
A0
50
50
28
ENDCHAR
STARTCHAR 310E
ENCODING 12558
SWIDTH 960 0
DWIDTH 8 0
BBX 5 7 1 -1
BITMAP
F8
20
40
78
08
08
30
ENDCHAR
STARTCHAR 310F
ENCODING 12559
SWIDTH 960 0
DWIDTH 8 0
BBX 5 7 1 -1
BITMAP
78
40
40
40
40
40
80
ENDCHAR
STARTCHAR 3110
ENCODING 12560
SWIDTH 960 0
DWIDTH 8 0
BBX 5 7 1 -1
BITMAP
08
88
88
98
E8
08
08
ENDCHAR
STARTCHAR 3111
ENCODING 12561
SWIDTH 960 0
DWIDTH 8 0
BBX 5 7 1 -1
BITMAP
08
30
40
80
40
30
08
ENDCHAR
STARTCHAR 3112
ENCODING 12562
SWIDTH 960 0
DWIDTH 8 0
BBX 5 7 1 -1
BITMAP
F8
20
20
20
20
20
20
ENDCHAR
STARTCHAR 3113
ENCODING 12563
SWIDTH 960 0
DWIDTH 8 0
BBX 5 7 1 -1
BITMAP
20
A8
A8
F8
20
20
F8
ENDCHAR
STARTCHAR 3114
ENCODING 12564
SWIDTH 960 0
DWIDTH 8 0
BBX 4 7 2 -1
BITMAP
10
20
D0
20
E0
20
20
ENDCHAR
STARTCHAR 3115
ENCODING 12565
SWIDTH 960 0
DWIDTH 8 0
BBX 5 7 1 -1
BITMAP
F8
08
08
78
40
40
80
ENDCHAR
STARTCHAR 3116
ENCODING 12566
SWIDTH 960 0
DWIDTH 8 0
BBX 5 7 1 -1
BITMAP
F8
88
C8
A8
98
88
F8
ENDCHAR
STARTCHAR 3117
ENCODING 12567
SWIDTH 960 0
DWIDTH 8 0
BBX 5 7 1 -1
BITMAP
F8
48
48
58
40
40
40
ENDCHAR
STARTCHAR 3118
ENCODING 12568
SWIDTH 960 0
DWIDTH 8 0
BBX 5 7 1 -1
BITMAP
20
F8
40
70
10
10
20
ENDCHAR
STARTCHAR 3119
ENCODING 12569
SWIDTH 960 0
DWIDTH 8 0
BBX 5 7 1 -1
BITMAP
20
20
40
40
90
90
E8
ENDCHAR
STARTCHAR 311A
ENCODING 12570
SWIDTH 960 0
DWIDTH 8 0
BBX 5 7 1 -1
BITMAP
88
50
20
20
20
20
20
ENDCHAR
STARTCHAR 311B
ENCODING 12571
SWIDTH 960 0
DWIDTH 8 0
BBX 5 7 1 -1
BITMAP
F8
20
20
60
80
88
70
ENDCHAR
STARTCHAR 311C
ENCODING 12572
SWIDTH 960 0
DWIDTH 8 0
BBX 5 7 1 -1
BITMAP
20
F8
20
60
80
88
70
ENDCHAR
STARTCHAR 311D
ENCODING 12573
SWIDTH 960 0
DWIDTH 8 0
BBX 5 7 1 -1
BITMAP
50
F8
50
50
40
40
38
ENDCHAR
STARTCHAR 311E
ENCODING 12574
SWIDTH 960 0
DWIDTH 8 0
BBX 5 7 1 -1
BITMAP
F8
A0
F8
28
28
48
90
ENDCHAR
STARTCHAR 311F
ENCODING 12575
SWIDTH 960 0
DWIDTH 8 0
BBX 5 7 1 -1
BITMAP
60
A0
20
20
20
10
08
ENDCHAR
STARTCHAR 3120
ENCODING 12576
SWIDTH 960 0
DWIDTH 8 0
BBX 5 7 1 -1
BITMAP
40
90
D0
20
40
90
E8
ENDCHAR
STARTCHAR 3121
ENCODING 12577
SWIDTH 960 0
DWIDTH 8 0
BBX 5 7 1 -1
BITMAP
F8
08
88
50
20
50
88
ENDCHAR
STARTCHAR 3122
ENCODING 12578
SWIDTH 960 0
DWIDTH 8 0
BBX 5 7 1 -1
BITMAP
F0
50
50
78
08
08
10
ENDCHAR
STARTCHAR 3123
ENCODING 12579
SWIDTH 960 0
DWIDTH 8 0
BBX 5 7 1 -1
BITMAP
40
40
80
F8
08
08
10
ENDCHAR
STARTCHAR 3124
ENCODING 12580
SWIDTH 960 0
DWIDTH 8 0
BBX 5 7 1 -1
BITMAP
20
F8
20
20
50
50
98
ENDCHAR
STARTCHAR 3125
ENCODING 12581
SWIDTH 960 0
DWIDTH 8 0
BBX 5 7 1 -1
BITMAP
20
20
20
40
80
80
F8
ENDCHAR
STARTCHAR 3126
ENCODING 12582
SWIDTH 960 0
DWIDTH 8 0
BBX 5 7 1 -1
BITMAP
50
50
50
50
50
50
98
ENDCHAR
STARTCHAR 3127
ENCODING 12583
SWIDTH 960 0
DWIDTH 8 0
BBX 5 1 1 3
BITMAP
F8
ENDCHAR
STARTCHAR 3128
ENCODING 12584
SWIDTH 960 0
DWIDTH 8 0
BBX 5 7 1 -1
BITMAP
08
88
50
20
20
50
88
ENDCHAR
STARTCHAR 3129
ENCODING 12585
SWIDTH 960 0
DWIDTH 8 0
BBX 5 7 1 -1
BITMAP
88
88
88
88
88
88
F8
ENDCHAR
STARTCHAR 312A
ENCODING 12586
SWIDTH 960 0
DWIDTH 8 0
BBX 5 7 1 -1
BITMAP
F8
40
78
48
48
48
90
ENDCHAR
STARTCHAR 312B
ENCODING 12587
SWIDTH 960 0
DWIDTH 8 0
BBX 5 7 1 -1
BITMAP
F8
50
50
50
50
50
98
ENDCHAR
STARTCHAR 312C
ENCODING 12588
SWIDTH 960 0
DWIDTH 8 0
BBX 5 7 1 -1
BITMAP
20
78
40
40
40
40
80
ENDCHAR
STARTCHAR 312D
ENCODING 12589
SWIDTH 960 0
DWIDTH 8 0
BBX 5 7 1 -1
BITMAP
F8
20
F8
A8
A8
A8
20
ENDCHAR
STARTCHAR 312E
ENCODING 12590
SWIDTH 960 0
DWIDTH 8 0
BBX 5 7 1 -1
BITMAP
20
00
F8
20
60
88
70
ENDCHAR
STARTCHAR 312F
ENCODING 12591
SWIDTH 960 0
DWIDTH 8 0
BBX 5 7 1 -1
BITMAP
F0
10
20
B8
88
88
B0
ENDCHAR
STARTCHAR 3142
ENCODING 12610
SWIDTH 960 0
DWIDTH 8 0
BBX 5 4 1 -1
BITMAP
88
F8
88
F8
ENDCHAR
STARTCHAR 3180
ENCODING 12672
SWIDTH 960 0
DWIDTH 8 0
BBX 7 3 0 1
BITMAP
44
AA
44
ENDCHAR
STARTCHAR 3186
ENCODING 12678
SWIDTH 960 0
DWIDTH 8 0
BBX 7 5 0 0
BITMAP
FE
00
38
44
38
ENDCHAR
STARTCHAR 31A0
ENCODING 12704
SWIDTH 960 0
DWIDTH 8 0
BBX 5 7 1 -1
BITMAP
20
40
F8
08
18
28
10
ENDCHAR
STARTCHAR 31A1
ENCODING 12705
SWIDTH 960 0
DWIDTH 8 0
BBX 5 7 1 -1
BITMAP
F8
48
48
58
40
A0
40
ENDCHAR
STARTCHAR 31A2
ENCODING 12706
SWIDTH 960 0
DWIDTH 8 0
BBX 5 7 1 -1
BITMAP
10
90
B0
D0
10
28
10
ENDCHAR
STARTCHAR 31A3
ENCODING 12707
SWIDTH 960 0
DWIDTH 8 0
BBX 5 7 1 -1
BITMAP
28
50
50
A0
50
68
30
ENDCHAR
STARTCHAR 31A4
ENCODING 12708
SWIDTH 960 0
DWIDTH 8 0
BBX 5 7 1 -1
BITMAP
40
F8
48
50
40
40
38
ENDCHAR
STARTCHAR 31A5
ENCODING 12709
SWIDTH 960 0
DWIDTH 8 0
BBX 5 8 1 -2
BITMAP
40
F8
48
40
50
68
30
10
ENDCHAR
STARTCHAR 31A6
ENCODING 12710
SWIDTH 960 0
DWIDTH 8 0
BBX 5 7 1 -1
BITMAP
F8
20
40
80
80
48
30
ENDCHAR
STARTCHAR 31A7
ENCODING 12711
SWIDTH 960 0
DWIDTH 8 0
BBX 5 8 1 -2
BITMAP
F8
20
40
80
90
68
30
10
ENDCHAR
STARTCHAR 31A8
ENCODING 12712
SWIDTH 960 0
DWIDTH 8 0
BBX 5 6 1 0
BITMAP
08
88
50
38
50
88
ENDCHAR
STARTCHAR 31A9
ENCODING 12713
SWIDTH 960 0
DWIDTH 8 0
BBX 5 7 1 -1
BITMAP
88
50
20
20
60
B0
60
ENDCHAR
STARTCHAR 31AA
ENCODING 12714
SWIDTH 960 0
DWIDTH 8 0
BBX 5 4 1 1
BITMAP
10
28
F8
10
ENDCHAR
STARTCHAR 31AB
ENCODING 12715
SWIDTH 960 0
DWIDTH 8 0
BBX 6 8 1 -2
BITMAP
08
88
50
20
38
54
98
20
ENDCHAR
STARTCHAR 31AC
ENCODING 12716
SWIDTH 960 0
DWIDTH 8 0
BBX 5 7 1 -1
BITMAP
F8
A8
A8
A8
A8
A8
A8
ENDCHAR
STARTCHAR 31AD
ENCODING 12717
SWIDTH 960 0
DWIDTH 8 0
BBX 5 7 1 -1
BITMAP
F8
70
70
70
70
78
A0
ENDCHAR
STARTCHAR 31AE
ENCODING 12718
SWIDTH 960 0
DWIDTH 8 0
BBX 5 8 1 -2
BITMAP
F8
A0
F8
28
68
A8
48
40
ENDCHAR
STARTCHAR 31AF
ENCODING 12719
SWIDTH 960 0
DWIDTH 8 0
BBX 5 8 1 -2
BITMAP
40
90
D0
20
50
A8
F0
08
ENDCHAR
STARTCHAR 31B0
ENCODING 12720
SWIDTH 960 0
DWIDTH 8 0
BBX 5 7 1 -1
BITMAP
88
50
F8
A8
A8
A8
A8
ENDCHAR
STARTCHAR 31B1
ENCODING 12721
SWIDTH 960 0
DWIDTH 8 0
BBX 5 7 1 -1
BITMAP
F8
20
F8
A8
C8
B8
88
ENDCHAR
STARTCHAR 31B2
ENCODING 12722
SWIDTH 960 0
DWIDTH 8 0
BBX 5 7 1 -1
BITMAP
F8
20
20
20
20
20
F8
ENDCHAR
STARTCHAR 31B3
ENCODING 12723
SWIDTH 960 0
DWIDTH 8 0
BBX 4 7 1 -1
BITMAP
20
20
20
20
60
B0
60
ENDCHAR
STARTCHAR 31B4
ENCODING 12724
SWIDTH 960 0
DWIDTH 8 0
BBX 3 4 1 -1
BITMAP
80
E0
20
40
ENDCHAR
STARTCHAR 31B5
ENCODING 12725
SWIDTH 960 0
DWIDTH 8 0
BBX 3 4 1 -1
BITMAP
80
E0
60
A0
ENDCHAR
STARTCHAR 31B6
ENCODING 12726
SWIDTH 960 0
DWIDTH 8 0
BBX 3 4 1 -1
BITMAP
E0
40
20
40
ENDCHAR
STARTCHAR 31B7
ENCODING 12727
SWIDTH 960 0
DWIDTH 8 0
BBX 3 4 1 -1
BITMAP
60
40
40
80
ENDCHAR
STARTCHAR 31B8
ENCODING 12728
SWIDTH 960 0
DWIDTH 8 0
BBX 5 7 1 -1
BITMAP
F8
08
10
20
40
80
F8
ENDCHAR
STARTCHAR 31B9
ENCODING 12729
SWIDTH 960 0
DWIDTH 8 0
BBX 5 5 1 1
BITMAP
80
80
80
80
F8
ENDCHAR
STARTCHAR 31BA
ENCODING 12730
SWIDTH 960 0
DWIDTH 8 0
BBX 5 5 1 0
BITMAP
20
20
F8
20
20
ENDCHAR
STARTCHAR 31BB
ENCODING 12731
SWIDTH 960 0
DWIDTH 8 0
BBX 4 3 1 -1
BITMAP
50
A0
50
ENDCHAR
STARTCHAR 31BC
ENCODING 12732
SWIDTH 960 0
DWIDTH 8 0
BBX 5 7 1 -1
BITMAP
20
40
88
50
20
50
88
ENDCHAR
STARTCHAR 31BD
ENCODING 12733
SWIDTH 960 0
DWIDTH 8 0
BBX 5 7 1 -1
BITMAP
F8
40
88
50
20
50
88
ENDCHAR
STARTCHAR 31BE
ENCODING 12734
SWIDTH 960 0
DWIDTH 8 0
BBX 5 7 1 -1
BITMAP
88
88
50
F8
50
20
20
ENDCHAR
STARTCHAR 31BF
ENCODING 12735
SWIDTH 960 0
DWIDTH 8 0
BBX 5 7 1 -1
BITMAP
10
50
50
48
48
48
88
ENDCHAR
STARTCHAR 31CF
ENCODING 12751
SWIDTH 960 0
DWIDTH 8 0
BBX 4 7 2 -1
BITMAP
80
80
80
40
40
20
10
ENDCHAR
STARTCHAR 3220
ENCODING 12832
SWIDTH 960 0
DWIDTH 8 0
BBX 7 7 0 -1
BITMAP
44
82
82
BA
82
82
44
ENDCHAR
STARTCHAR 3221
ENCODING 12833
SWIDTH 960 0
DWIDTH 8 0
BBX 7 7 0 -1
BITMAP
44
82
BA
82
BA
82
44
ENDCHAR
STARTCHAR 3222
ENCODING 12834
SWIDTH 960 0
DWIDTH 8 0
BBX 7 7 0 -1
BITMAP
44
BA
82
BA
82
BA
44
ENDCHAR
STARTCHAR 3223
ENCODING 12835
SWIDTH 960 0
DWIDTH 8 0
BBX 7 7 0 -1
BITMAP
44
BA
BA
BA
AA
BA
44
ENDCHAR
STARTCHAR 3224
ENCODING 12836
SWIDTH 960 0
DWIDTH 8 0
BBX 7 7 0 -1
BITMAP
44
BA
92
BA
9A
BA
44
ENDCHAR
STARTCHAR 3225
ENCODING 12837
SWIDTH 960 0
DWIDTH 8 0
BBX 7 7 0 -1
BITMAP
44
92
BA
82
AA
AA
44
ENDCHAR
STARTCHAR 3226
ENCODING 12838
SWIDTH 960 0
DWIDTH 8 0
BBX 7 7 0 -1
BITMAP
44
92
9A
B2
92
9A
44
ENDCHAR
STARTCHAR 3227
ENCODING 12839
SWIDTH 960 0
DWIDTH 8 0
BBX 7 7 0 -1
BITMAP
44
9A
8A
AA
AA
AA
44
ENDCHAR
STARTCHAR 3228
ENCODING 12840
SWIDTH 960 0
DWIDTH 8 0
BBX 7 7 0 -1
BITMAP
44
92
B2
92
92
AA
44
ENDCHAR
STARTCHAR 3229
ENCODING 12841
SWIDTH 960 0
DWIDTH 8 0
BBX 7 7 0 -1
BITMAP
44
92
92
BA
92
92
44
ENDCHAR
STARTCHAR 3231
ENCODING 12849
SWIDTH 960 0
DWIDTH 8 0
BBX 7 7 0 -1
BITMAP
44
F2
BE
EA
FE
AA
6C
ENDCHAR
STARTCHAR 3232
ENCODING 12850
SWIDTH 960 0
DWIDTH 8 0
BBX 7 7 0 -1
BITMAP
54
BA
92
BE
D6
9E
54
ENDCHAR
STARTCHAR 3239
ENCODING 12857
SWIDTH 960 0
DWIDTH 8 0
BBX 7 7 0 -1
BITMAP
44
AA
BE
EA
AA
A6
44
ENDCHAR
STARTCHAR 3268
ENCODING 12904
SWIDTH 960 0
DWIDTH 8 0
BBX 7 7 0 -1
BITMAP
38
44
BA
92
AA
44
38
ENDCHAR
STARTCHAR 3280
ENCODING 12928
SWIDTH 960 0
DWIDTH 8 0
BBX 7 7 0 -1
BITMAP
7C
82
82
BA
82
82
7C
ENDCHAR
STARTCHAR 3281
ENCODING 12929
SWIDTH 960 0
DWIDTH 8 0
BBX 7 7 0 -1
BITMAP
7C
82
BA
82
BA
82
7C
ENDCHAR
STARTCHAR 3282
ENCODING 12930
SWIDTH 960 0
DWIDTH 8 0
BBX 7 7 0 -1
BITMAP
7C
BA
82
BA
82
BA
7C
ENDCHAR
STARTCHAR 3283
ENCODING 12931
SWIDTH 960 0
DWIDTH 8 0
BBX 7 7 0 -1
BITMAP
7C
BA
BA
BA
AA
BA
7C
ENDCHAR
STARTCHAR 3284
ENCODING 12932
SWIDTH 960 0
DWIDTH 8 0
BBX 7 7 0 -1
BITMAP
7C
BA
92
BA
9A
BA
7C
ENDCHAR
STARTCHAR 3285
ENCODING 12933
SWIDTH 960 0
DWIDTH 8 0
BBX 7 7 0 -1
BITMAP
7C
92
BA
82
AA
AA
7C
ENDCHAR
STARTCHAR 3286
ENCODING 12934
SWIDTH 960 0
DWIDTH 8 0
BBX 7 7 0 -1
BITMAP
7C
92
9A
B2
92
9A
7C
ENDCHAR
STARTCHAR 3287
ENCODING 12935
SWIDTH 960 0
DWIDTH 8 0
BBX 7 7 0 -1
BITMAP
7C
9A
8A
AA
AA
AA
7C
ENDCHAR
STARTCHAR 3288
ENCODING 12936
SWIDTH 960 0
DWIDTH 8 0
BBX 7 7 0 -1
BITMAP
7C
92
B2
92
92
AA
7C
ENDCHAR
STARTCHAR 3289
ENCODING 12937
SWIDTH 960 0
DWIDTH 8 0
BBX 7 7 0 -1
BITMAP
7C
92
92
BA
92
92
7C
ENDCHAR
STARTCHAR 32A3
ENCODING 12963
SWIDTH 960 0
DWIDTH 8 0
BBX 7 7 0 -1
BITMAP
7C
82
EE
A2
AE
82
7C
ENDCHAR
STARTCHAR 32A4
ENCODING 12964
SWIDTH 960 0
DWIDTH 8 0
BBX 7 7 0 -1
BITMAP
7C
92
9A
92
92
BA
7C
ENDCHAR
STARTCHAR 32A5
ENCODING 12965
SWIDTH 960 0
DWIDTH 8 0
BBX 7 7 0 -1
BITMAP
7C
92
FE
D6
FE
92
7C
ENDCHAR
STARTCHAR 32A6
ENCODING 12966
SWIDTH 960 0
DWIDTH 8 0
BBX 7 7 0 -1
BITMAP
7C
BA
92
9A
92
92
7C
ENDCHAR
STARTCHAR 32A7
ENCODING 12967
SWIDTH 960 0
DWIDTH 8 0
BBX 7 7 0 -1
BITMAP
7C
FA
A2
BA
D2
BA
7C
ENDCHAR
STARTCHAR 32A8
ENCODING 12968
SWIDTH 960 0
DWIDTH 8 0
BBX 7 7 0 -1
BITMAP
7C
A2
FA
A2
DA
9A
7C
ENDCHAR
STARTCHAR 32FF
ENCODING 13055
SWIDTH 960 0
DWIDTH 8 0
BBX 7 7 0 -1
BITMAP
4C
A6
EE
06
EE
6C
44
ENDCHAR
STARTCHAR 3303
ENCODING 13059
SWIDTH 960 0
DWIDTH 8 0
BBX 7 7 0 -1
BITMAP
F0
56
60
80
60
60
B0
ENDCHAR
STARTCHAR 330D
ENCODING 13069
SWIDTH 960 0
DWIDTH 8 0
BBX 7 7 0 -1
BITMAP
EE
6A
AE
00
A0
AE
20
ENDCHAR
STARTCHAR 3314
ENCODING 13076
SWIDTH 960 0
DWIDTH 8 0
BBX 7 7 0 -1
BITMAP
40
E0
40
EE
4A
0A
0E
ENDCHAR
STARTCHAR 3318
ENCODING 13080
SWIDTH 960 0
DWIDTH 8 0
BBX 7 7 0 -1
BITMAP
76
AE
22
CC
20
50
F0
ENDCHAR
STARTCHAR 3322
ENCODING 13090
SWIDTH 960 0
DWIDTH 8 0
BBX 7 7 0 -1
BITMAP
8C
E0
A2
CC
40
E0
40
ENDCHAR
STARTCHAR 3323
ENCODING 13091
SWIDTH 960 0
DWIDTH 8 0
BBX 7 7 0 -1
BITMAP
8C
E0
A2
CC
40
60
40
ENDCHAR
STARTCHAR 3326
ENCODING 13094
SWIDTH 960 0
DWIDTH 8 0
BBX 7 7 0 -1
BITMAP
A8
80
E0
80
14
14
26
ENDCHAR
STARTCHAR 3327
ENCODING 13095
SWIDTH 960 0
DWIDTH 8 0
BBX 7 7 0 -1
BITMAP
80
80
E0
8C
00
02
0C
ENDCHAR
STARTCHAR 332B
ENCODING 13099
SWIDTH 960 0
DWIDTH 8 0
BBX 7 7 0 -1
BITMAP
70
B6
A0
00
94
C6
DC
ENDCHAR
STARTCHAR 3336
ENCODING 13110
SWIDTH 960 0
DWIDTH 8 0
BBX 7 7 0 -1
BITMAP
46
AA
02
6C
BC
4C
96
ENDCHAR
STARTCHAR 333B
ENCODING 13115
SWIDTH 960 0
DWIDTH 8 0
BBX 7 7 0 -1
BITMAP
50
A6
10
C0
D0
20
C0
ENDCHAR
STARTCHAR 3349
ENCODING 13129
SWIDTH 960 0
DWIDTH 8 0
BBX 7 7 0 -1
BITMAP
E0
00
60
0A
EA
02
04
ENDCHAR
STARTCHAR 334A
ENCODING 13130
SWIDTH 960 0
DWIDTH 8 0
BBX 7 7 0 -1
BITMAP
EA
6A
72
00
6C
BC
B6
ENDCHAR
STARTCHAR 334D
ENCODING 13133
SWIDTH 960 0
DWIDTH 8 0
BBX 7 7 0 -1
BITMAP
A0
4E
A0
00
8C
CC
96
ENDCHAR
STARTCHAR 3351
ENCODING 13137
SWIDTH 960 0
DWIDTH 8 0
BBX 7 7 0 -1
BITMAP
A0
AE
22
00
8C
CC
96
ENDCHAR
STARTCHAR 3357
ENCODING 13143
SWIDTH 960 0
DWIDTH 8 0
BBX 7 7 0 -1
BITMAP
E0
AE
22
40
40
60
40
ENDCHAR
STARTCHAR 337B
ENCODING 13179
SWIDTH 960 0
DWIDTH 8 0
BBX 7 7 0 -1
BITMAP
E4
4E
EC
4C
EE
4C
52
ENDCHAR
STARTCHAR 337C
ENCODING 13180
SWIDTH 960 0
DWIDTH 8 0
BBX 7 7 0 -1
BITMAP
6C
E6
EE
A6
8E
6C
64
ENDCHAR
STARTCHAR 337D
ENCODING 13181
SWIDTH 960 0
DWIDTH 8 0
BBX 7 7 0 -1
BITMAP
4E
44
E4
4E
4C
AC
AE
ENDCHAR
STARTCHAR 337E
ENCODING 13182
SWIDTH 960 0
DWIDTH 8 0
BBX 7 7 0 -1
BITMAP
6A
E4
EC
E6
68
6E
AE
ENDCHAR
STARTCHAR 338E
ENCODING 13198
SWIDTH 960 0
DWIDTH 8 0
BBX 7 5 0 -1
BITMAP
C6
EA
E6
E2
AC
ENDCHAR
STARTCHAR 338F
ENCODING 13199
SWIDTH 960 0
DWIDTH 8 0
BBX 7 7 0 -1
BITMAP
80
80
A6
AA
C6
A2
AC
ENDCHAR
STARTCHAR 339C
ENCODING 13212
SWIDTH 960 0
DWIDTH 8 0
BBX 7 5 0 -1
BITMAP
CC
EE
EE
EE
AA
ENDCHAR
STARTCHAR 339D
ENCODING 13213
SWIDTH 960 0
DWIDTH 8 0
BBX 7 5 0 -1
BITMAP
6C
8E
8E
8E
6A
ENDCHAR
STARTCHAR 339E
ENCODING 13214
SWIDTH 960 0
DWIDTH 8 0
BBX 7 7 0 -1
BITMAP
80
80
AC
AE
CE
AE
AA
ENDCHAR
STARTCHAR 33A1
ENCODING 13217
SWIDTH 960 0
DWIDTH 8 0
BBX 7 7 0 -1
BITMAP
06
02
D4
AE
A8
A8
A8
ENDCHAR
STARTCHAR 33C4
ENCODING 13252
SWIDTH 960 0
DWIDTH 8 0
BBX 7 5 0 -1
BITMAP
66
88
88
88
66
ENDCHAR
STARTCHAR 33CD
ENCODING 13261
SWIDTH 960 0
DWIDTH 8 0
BBX 7 7 0 -1
BITMAP
AA
AA
AA
CC
AA
AA
AA
ENDCHAR
STARTCHAR 33CE
ENCODING 13262
SWIDTH 960 0
DWIDTH 8 0
BBX 7 7 0 -1
BITMAP
AA
AE
AE
CE
AA
AA
AA
ENDCHAR
STARTCHAR 33D1
ENCODING 13265
SWIDTH 960 0
DWIDTH 8 0
BBX 5 6 1 0
BITMAP
80
B0
A8
A8
A8
A8
ENDCHAR
STARTCHAR 33D2
ENCODING 13266
SWIDTH 960 0
DWIDTH 8 0
BBX 7 7 0 -1
BITMAP
80
A4
DA
DA
D6
A2
0C
ENDCHAR
STARTCHAR 33D5
ENCODING 13269
SWIDTH 960 0
DWIDTH 8 0
BBX 7 7 0 -1
BITMAP
02
02
8A
C2
EA
EA
AA
ENDCHAR
STARTCHAR 3401
ENCODING 13313
SWIDTH 960 0
DWIDTH 8 0
BBX 7 7 0 -1
BITMAP
FE
10
FE
92
AA
C6
FE
ENDCHAR
STARTCHAR 3451
ENCODING 13393
SWIDTH 960 0
DWIDTH 8 0
BBX 7 7 0 -1
BITMAP
28
5E
D2
5A
5E
52
5E
ENDCHAR
STARTCHAR 34E4
ENCODING 13540
SWIDTH 960 0
DWIDTH 8 0
BBX 7 7 0 -1
BITMAP
22
FA
26
76
06
72
76
ENDCHAR
STARTCHAR 34FE
ENCODING 13566
SWIDTH 960 0
DWIDTH 8 0
BBX 7 7 0 -1
BITMAP
FA
FA
92
DA
B2
BA
D2
ENDCHAR
STARTCHAR 3577
ENCODING 13687
SWIDTH 960 0
DWIDTH 8 0
BBX 7 7 0 -1
BITMAP
08
FE
B2
BE
F2
12
1E
ENDCHAR
STARTCHAR 35A1
ENCODING 13729
SWIDTH 960 0
DWIDTH 8 0
BBX 7 7 0 -1
BITMAP
08
FE
D4
D6
FA
14
1A
ENDCHAR
STARTCHAR 35AD
ENCODING 13741
SWIDTH 960 0
DWIDTH 8 0
BBX 7 7 0 -1
BITMAP
04
D8
FE
D4
E2
08
2A
ENDCHAR
STARTCHAR 35BF
ENCODING 13759
SWIDTH 960 0
DWIDTH 8 0
BBX 7 7 0 -1
BITMAP
3E
D6
DC
DE
D6
3C
04
ENDCHAR
STARTCHAR 35CE
ENCODING 13774
SWIDTH 960 0
DWIDTH 8 0
BBX 7 7 0 -1
BITMAP
16
FE
EE
C8
FE
1C
2A
ENDCHAR
STARTCHAR 35D2
ENCODING 13778
SWIDTH 960 0
DWIDTH 8 0
BBX 7 7 0 -1
BITMAP
08
FE
D4
DC
DA
34
1A
ENDCHAR
STARTCHAR 35F3
ENCODING 13811
SWIDTH 960 0
DWIDTH 8 0
BBX 7 7 0 -1
BITMAP
14
DE
C8
D4
EA
14
1C
ENDCHAR
STARTCHAR 35FE
ENCODING 13822
SWIDTH 960 0
DWIDTH 8 0
BBX 7 7 0 -1
BITMAP
2C
FC
FE
D4
FC
3C
16
ENDCHAR
STARTCHAR 3737
ENCODING 14135
SWIDTH 960 0
DWIDTH 8 0
BBX 7 7 0 -1
BITMAP
FE
5C
AA
6A
FE
28
F6
ENDCHAR
STARTCHAR 39D2
ENCODING 14802
SWIDTH 960 0
DWIDTH 8 0
BBX 7 7 0 -1
BITMAP
48
FE
62
54
D4
52
E2
ENDCHAR
STARTCHAR 39E1
ENCODING 14817
SWIDTH 960 0
DWIDTH 8 0
BBX 7 7 0 -1
BITMAP
44
FE
48
74
CA
44
DA
ENDCHAR
STARTCHAR 39F8
ENCODING 14840
SWIDTH 960 0
DWIDTH 8 0
BBX 7 7 0 -1
BITMAP
48
FE
54
7C
C4
48
D8
ENDCHAR
STARTCHAR 39FE
ENCODING 14846
SWIDTH 960 0
DWIDTH 8 0
BBX 7 7 0 -1
BITMAP
50
FE
4A
6A
D4
52
AE
ENDCHAR
STARTCHAR 3A18
ENCODING 14872
SWIDTH 960 0
DWIDTH 8 0
BBX 7 7 0 -1
BITMAP
48
EA
48
4E
DA
6E
CE
ENDCHAR
STARTCHAR 3A52
ENCODING 14930
SWIDTH 960 0
DWIDTH 8 0
BBX 7 7 0 -1
BITMAP
52
F6
52
68
FE
48
EA
ENDCHAR
STARTCHAR 3A67
ENCODING 14951
SWIDTH 960 0
DWIDTH 8 0
BBX 7 7 0 -1
BITMAP
5E
FE
54
7E
EA
5C
AA
ENDCHAR
STARTCHAR 3A6E
ENCODING 14958
SWIDTH 960 0
DWIDTH 8 0
BBX 7 7 0 -1
BITMAP
56
EA
76
7E
D4
6A
D8
ENDCHAR
STARTCHAR 3B39
ENCODING 15161
SWIDTH 960 0
DWIDTH 8 0
BBX 7 7 0 -1
BITMAP
FC
AA
FC
AE
FC
A4
AC
ENDCHAR
STARTCHAR 3DE7
ENCODING 15847
SWIDTH 960 0
DWIDTH 8 0
BBX 7 7 0 -1
BITMAP
5E
54
FE
DE
54
56
AC
ENDCHAR
STARTCHAR 3DEB
ENCODING 15851
SWIDTH 960 0
DWIDTH 8 0
BBX 7 7 0 -1
BITMAP
2E
FA
64
8A
54
10
EE
ENDCHAR
STARTCHAR 3E03
ENCODING 15875
SWIDTH 960 0
DWIDTH 8 0
BBX 7 7 0 -1
BITMAP
F4
D6
FC
6A
FE
00
AA
ENDCHAR
STARTCHAR 3E74
ENCODING 15988
SWIDTH 960 0
DWIDTH 8 0
BBX 7 7 0 -1
BITMAP
BE
4E
AE
64
AC
24
DA
ENDCHAR
STARTCHAR 4034
ENCODING 16436
SWIDTH 960 0
DWIDTH 8 0
BBX 7 7 0 -1
BITMAP
FE
AA
F4
AA
FE
A4
FE
ENDCHAR
STARTCHAR 4039
ENCODING 16441
SWIDTH 960 0
DWIDTH 8 0
BBX 7 7 0 -1
BITMAP
E8
BE
EC
BC
EA
A8
F6
ENDCHAR
STARTCHAR 4045
ENCODING 16453
SWIDTH 960 0
DWIDTH 8 0
BBX 7 7 0 -1
BITMAP
EC
A4
FE
A8
EC
AC
FE
ENDCHAR
STARTCHAR 4065
ENCODING 16485
SWIDTH 960 0
DWIDTH 8 0
BBX 7 7 0 -1
BITMAP
FE
B4
FE
A8
EE
B6
FE
ENDCHAR
STARTCHAR 406A
ENCODING 16490
SWIDTH 960 0
DWIDTH 8 0
BBX 7 7 0 -1
BITMAP
F2
DC
F8
FE
DA
FA
D2
ENDCHAR
STARTCHAR 40BB
ENCODING 16571
SWIDTH 960 0
DWIDTH 8 0
BBX 7 7 0 -1
BITMAP
FE
50
9C
F0
BE
B4
FA
ENDCHAR
STARTCHAR 40DF
ENCODING 16607
SWIDTH 960 0
DWIDTH 8 0
BBX 7 7 0 -1
BITMAP
D4
7E
9A
FA
DA
DC
DA
ENDCHAR
STARTCHAR 4180
ENCODING 16768
SWIDTH 960 0
DWIDTH 8 0
BBX 7 7 0 -1
BITMAP
DE
6A
FE
48
DC
C0
6A
ENDCHAR
STARTCHAR 4308
ENCODING 17160
SWIDTH 960 0
DWIDTH 8 0
BBX 7 7 0 -1
BITMAP
5C
94
5C
BE
4A
DE
6A
ENDCHAR
STARTCHAR 4491
ENCODING 17553
SWIDTH 960 0
DWIDTH 8 0
BBX 7 3 0 3
BITMAP
44
28
FE
ENDCHAR
STARTCHAR 44EA
ENCODING 17642
SWIDTH 960 0
DWIDTH 8 0
BBX 7 7 0 -1
BITMAP
28
FE
44
7C
FE
52
A6
ENDCHAR
STARTCHAR 45C1
ENCODING 17857
SWIDTH 960 0
DWIDTH 8 0
BBX 7 7 0 -1
BITMAP
48
FE
A8
D4
7E
44
D4
ENDCHAR
STARTCHAR 4606
ENCODING 17926
SWIDTH 960 0
DWIDTH 8 0
BBX 7 7 0 -1
BITMAP
48
FE
AA
FC
5C
52
AE
ENDCHAR
STARTCHAR 463C
ENCODING 17980
SWIDTH 960 0
DWIDTH 8 0
BBX 7 7 0 -1
BITMAP
48
FE
22
4E
F6
4C
56
ENDCHAR
STARTCHAR 47F4
ENCODING 18420
SWIDTH 960 0
DWIDTH 8 0
BBX 7 7 0 -1
BITMAP
FE
B0
FE
50
7E
D4
FA
ENDCHAR
STARTCHAR 492D
ENCODING 18733
SWIDTH 960 0
DWIDTH 8 0
BBX 7 7 0 -1
BITMAP
54
A8
F4
5E
E8
5E
EA
ENDCHAR
STARTCHAR 4951
ENCODING 18769
SWIDTH 960 0
DWIDTH 8 0
BBX 7 7 0 -1
BITMAP
68
9E
FC
56
EA
74
CA
ENDCHAR
STARTCHAR 4A12
ENCODING 18962
SWIDTH 960 0
DWIDTH 8 0
BBX 7 7 0 -1
BITMAP
38
FE
B6
66
AA
66
AA
ENDCHAR
STARTCHAR 4AB4
ENCODING 19124
SWIDTH 960 0
DWIDTH 8 0
BBX 7 7 0 -1
BITMAP
2E
F4
AE
2A
6E
B0
8A
ENDCHAR
STARTCHAR 4ACC
ENCODING 19148
SWIDTH 960 0
DWIDTH 8 0
BBX 7 7 0 -1
BITMAP
4E
F4
9E
FA
4E
F0
2A
ENDCHAR
STARTCHAR 4BCB
ENCODING 19403
SWIDTH 960 0
DWIDTH 8 0
BBX 7 7 0 -1
BITMAP
6A
7E
E8
BE
6A
64
BA
ENDCHAR
STARTCHAR 4C7D
ENCODING 19581
SWIDTH 960 0
DWIDTH 8 0
BBX 7 7 0 -1
BITMAP
68
B4
6E
6C
68
16
A6
ENDCHAR
STARTCHAR 4C81
ENCODING 19585
SWIDTH 960 0
DWIDTH 8 0
BBX 7 7 0 -1
BITMAP
7A
AE
7A
66
7A
12
B6
ENDCHAR
STARTCHAR 4C85
ENCODING 19589
SWIDTH 960 0
DWIDTH 8 0
BBX 7 7 0 -1
BITMAP
D6
7A
D6
FA
D6
14
AA
ENDCHAR
STARTCHAR 4CB3
ENCODING 19635
SWIDTH 960 0
DWIDTH 8 0
BBX 7 7 0 -1
BITMAP
44
EE
0E
E8
AE
B2
AA
ENDCHAR
STARTCHAR 4D08
ENCODING 19720
SWIDTH 960 0
DWIDTH 8 0
BBX 7 7 0 -1
BITMAP
24
FE
AE
D8
FE
52
8A
ENDCHAR
STARTCHAR 4E00
ENCODING 19968
SWIDTH 960 0
DWIDTH 8 0
BBX 7 2 0 2
BITMAP
04
FE
ENDCHAR
STARTCHAR 4E01
ENCODING 19969
SWIDTH 960 0
DWIDTH 8 0
BBX 7 7 0 -1
BITMAP
FE
10
10
10
10
10
30
ENDCHAR
STARTCHAR 4E02
ENCODING 19970
SWIDTH 960 0
DWIDTH 8 0
BBX 7 7 0 -1
BITMAP
FE
20
20
3C
04
04
0C
ENDCHAR
STARTCHAR 4E03
ENCODING 19971
SWIDTH 960 0
DWIDTH 8 0
BBX 7 7 0 -1
BITMAP
20
20
2E
F0
20
22
1E
ENDCHAR
STARTCHAR 4E04
ENCODING 19972
SWIDTH 960 0
DWIDTH 8 0
BBX 7 7 0 -1
BITMAP
10
10
10
10
10
10
FE
ENDCHAR
STARTCHAR 4E05
ENCODING 19973
SWIDTH 960 0
DWIDTH 8 0
BBX 7 7 0 -1
BITMAP
FE
10
10
10
10
10
10
ENDCHAR
STARTCHAR 4E06
ENCODING 19974
SWIDTH 960 0
DWIDTH 8 0
BBX 7 5 0 1
BITMAP
FE
10
10
20
C0
ENDCHAR
STARTCHAR 4E07
ENCODING 19975
SWIDTH 960 0
DWIDTH 8 0
BBX 7 7 0 -1
BITMAP
FE
20
3C
24
24
44
8C
ENDCHAR
STARTCHAR 4E08
ENCODING 19976
SWIDTH 960 0
DWIDTH 8 0
BBX 7 7 0 -1
BITMAP
10
FE
10
30
10
28
C6
ENDCHAR
STARTCHAR 4E09
ENCODING 19977
SWIDTH 960 0
DWIDTH 8 0
BBX 7 7 0 -1
BITMAP
7C
00
00
38
00
04
FE
ENDCHAR
STARTCHAR 4E0A
ENCODING 19978
SWIDTH 960 0
DWIDTH 8 0
BBX 7 7 0 -1
BITMAP
10
10
1C
10
10
10
FE
ENDCHAR
STARTCHAR 4E0B
ENCODING 19979
SWIDTH 960 0
DWIDTH 8 0
BBX 7 7 0 -1
BITMAP
FE
10
18
14
10
10
10
ENDCHAR
STARTCHAR 4E0C
ENCODING 19980
SWIDTH 960 0
DWIDTH 8 0
BBX 7 7 0 -1
BITMAP
FE
28
28
28
28
48
88
ENDCHAR
STARTCHAR 4E0D
ENCODING 19981
SWIDTH 960 0
DWIDTH 8 0
BBX 7 7 0 -1
BITMAP
FE
10
10
34
D2
10
10
ENDCHAR
STARTCHAR 4E0E
ENCODING 19982
SWIDTH 960 0
DWIDTH 8 0
BBX 6 7 0 -1
BITMAP
40
7C
40
7C
04
F4
0C
ENDCHAR
STARTCHAR 4E0F
ENCODING 19983
SWIDTH 960 0
DWIDTH 8 0
BBX 7 7 0 -1
BITMAP
FE
10
5C
54
7C
04
0C
ENDCHAR
STARTCHAR 4E10
ENCODING 19984
SWIDTH 960 0
DWIDTH 8 0
BBX 7 7 0 -1
BITMAP
FE
10
5C
50
7E
02
06
ENDCHAR
STARTCHAR 4E11
ENCODING 19985
SWIDTH 960 0
DWIDTH 8 0
BBX 7 7 0 -1
BITMAP
7C
14
14
FE
24
24
FE
ENDCHAR
STARTCHAR 4E12
ENCODING 19986
SWIDTH 960 0
DWIDTH 8 0
BBX 7 7 0 -1
BITMAP
FE
12
52
22
56
00
FE
ENDCHAR
STARTCHAR 4E13
ENCODING 19987
SWIDTH 960 0
DWIDTH 8 0
BBX 7 7 0 -1
BITMAP
10
7C
FE
20
7C
04
18
ENDCHAR
STARTCHAR 4E14
ENCODING 19988
SWIDTH 960 0
DWIDTH 8 0
BBX 7 7 0 -1
BITMAP
7C
44
7C
44
7C
44
FE
ENDCHAR
STARTCHAR 4E15
ENCODING 19989
SWIDTH 960 0
DWIDTH 8 0
BBX 7 7 0 -1
BITMAP
FE
10
34
D2
10
10
FE
ENDCHAR
STARTCHAR 4E16
ENCODING 19990
SWIDTH 960 0
DWIDTH 8 0
BBX 7 7 0 -1
BITMAP
54
54
FE
54
5C
40
7E
ENDCHAR
STARTCHAR 4E17
ENCODING 19991
SWIDTH 960 0
DWIDTH 8 0
BBX 7 7 0 -1
BITMAP
54
54
FE
54
54
54
7C
ENDCHAR
STARTCHAR 4E18
ENCODING 19992
SWIDTH 960 0
DWIDTH 8 0
BBX 7 7 0 -1
BITMAP
0C
70
40
7C
48
48
FE
ENDCHAR
STARTCHAR 4E19
ENCODING 19993
SWIDTH 960 0
DWIDTH 8 0
BBX 7 7 0 -1
BITMAP
FE
10
FE
92
AA
C2
86
ENDCHAR
STARTCHAR 4E1A
ENCODING 19994
SWIDTH 960 0
DWIDTH 8 0
BBX 7 7 0 -1
BITMAP
28
AA
6A
6C
28
28
FE
ENDCHAR
STARTCHAR 4E1B
ENCODING 19995
SWIDTH 960 0
DWIDTH 8 0
BBX 7 7 0 -1
BITMAP
44
44
44
AA
AA
00
FE
ENDCHAR
STARTCHAR 4E1C
ENCODING 19996
SWIDTH 960 0
DWIDTH 8 0
BBX 7 7 0 -1
BITMAP
20
FE
50
7C
10
54
B2
ENDCHAR
STARTCHAR 4E1D
ENCODING 19997
SWIDTH 960 0
DWIDTH 8 0
BBX 7 7 0 -1
BITMAP
44
AA
44
AA
EE
00
FE
ENDCHAR
STARTCHAR 4E1E
ENCODING 19998
SWIDTH 960 0
DWIDTH 8 0
BBX 7 7 0 -1
BITMAP
7C
08
D2
54
92
30
FE
ENDCHAR
STARTCHAR 4E1F
ENCODING 19999
SWIDTH 960 0
DWIDTH 8 0
BBX 7 7 0 -1
BITMAP
FE
10
7C
FE
20
44
FA
ENDCHAR
STARTCHAR 4E20
ENCODING 20000
SWIDTH 960 0
DWIDTH 8 0
BBX 7 7 0 -1
BITMAP
28
EE
28
EA
2E
00
FE
ENDCHAR
STARTCHAR 4E21
ENCODING 20001
SWIDTH 960 0
DWIDTH 8 0
BBX 7 7 0 -1
BITMAP
FE
10
FE
92
D6
FE
82
ENDCHAR
STARTCHAR 4E22
ENCODING 20002
SWIDTH 960 0
DWIDTH 8 0
BBX 7 7 0 -1
BITMAP
06
F8
7C
10
FE
44
FA
ENDCHAR
STARTCHAR 4E23
ENCODING 20003
SWIDTH 960 0
DWIDTH 8 0
BBX 7 7 0 -1
BITMAP
FE
28
EE
AA
EE
28
48
ENDCHAR
STARTCHAR 4E24
ENCODING 20004
SWIDTH 960 0
DWIDTH 8 0
BBX 7 7 0 -1
BITMAP
FE
28
FE
AA
D6
82
86
ENDCHAR
STARTCHAR 4E25
ENCODING 20005
SWIDTH 960 0
DWIDTH 8 0
BBX 7 7 0 -1
BITMAP
FE
28
AA
28
FE
80
80
ENDCHAR
STARTCHAR 4E26
ENCODING 20006
SWIDTH 960 0
DWIDTH 8 0
BBX 7 7 0 -1
BITMAP
44
FE
28
AA
AC
28
FE
ENDCHAR
STARTCHAR 4E27
ENCODING 20007
SWIDTH 960 0
DWIDTH 8 0
BBX 7 7 0 -1
BITMAP
10
FE
54
FE
54
48
76
ENDCHAR
STARTCHAR 4E28
ENCODING 20008
SWIDTH 960 0
DWIDTH 8 0
BBX 1 7 3 -1
BITMAP
80
80
80
80
80
80
80
ENDCHAR
STARTCHAR 4E29
ENCODING 20009
SWIDTH 960 0
DWIDTH 8 0
BBX 4 7 2 -1
BITMAP
10
90
90
90
F0
10
10
ENDCHAR
STARTCHAR 4E2A
ENCODING 20010
SWIDTH 960 0
DWIDTH 8 0
BBX 7 7 0 -1
BITMAP
10
28
D6
10
10
10
10
ENDCHAR
STARTCHAR 4E2B
ENCODING 20011
SWIDTH 960 0
DWIDTH 8 0
BBX 7 7 0 -1
BITMAP
82
44
28
10
10
10
10
ENDCHAR
STARTCHAR 4E2C
ENCODING 20012
SWIDTH 960 0
DWIDTH 8 0
BBX 3 7 0 -1
BITMAP
20
A0
60
20
60
A0
20
ENDCHAR
STARTCHAR 4E2D
ENCODING 20013
SWIDTH 960 0
DWIDTH 8 0
BBX 7 7 0 -1
BITMAP
10
FE
92
92
FE
10
10
ENDCHAR
STARTCHAR 4E2E
ENCODING 20014
SWIDTH 960 0
DWIDTH 8 0
BBX 7 7 0 -1
BITMAP
FC
24
FC
24
FC
24
22
ENDCHAR
STARTCHAR 4E2F
ENCODING 20015
SWIDTH 960 0
DWIDTH 8 0
BBX 7 7 0 -1
BITMAP
16
38
D6
38
D6
38
D0
ENDCHAR
STARTCHAR 4E30
ENCODING 20016
SWIDTH 960 0
DWIDTH 8 0
BBX 7 7 0 -1
BITMAP
12
7C
10
38
10
FE
10
ENDCHAR
STARTCHAR 4E31
ENCODING 20017
SWIDTH 960 0
DWIDTH 8 0
BBX 7 7 0 -1
BITMAP
28
AA
AA
AA
EE
28
48
ENDCHAR
STARTCHAR 4E32
ENCODING 20018
SWIDTH 960 0
DWIDTH 8 0
BBX 7 7 0 -1
BITMAP
10
7C
7C
10
FE
FE
10
ENDCHAR
STARTCHAR 4E33
ENCODING 20019
SWIDTH 960 0
DWIDTH 8 0
BBX 7 7 0 -1
BITMAP
28
FE
AA
FE
AA
FE
28
ENDCHAR
STARTCHAR 4E34
ENCODING 20020
SWIDTH 960 0
DWIDTH 8 0
BBX 7 7 0 -1
BITMAP
28
2E
B4
A0
BE
2A
3E
ENDCHAR
STARTCHAR 4E35
ENCODING 20021
SWIDTH 960 0
DWIDTH 8 0
BBX 7 7 0 -1
BITMAP
AA
FE
28
7C
10
FE
10
ENDCHAR
STARTCHAR 4E36
ENCODING 20022
SWIDTH 960 0
DWIDTH 8 0
BBX 3 4 2 1
BITMAP
80
40
20
20
ENDCHAR
STARTCHAR 4E37
ENCODING 20023
SWIDTH 960 0
DWIDTH 8 0
BBX 7 3 0 2
BITMAP
82
44
28
ENDCHAR
STARTCHAR 4E38
ENCODING 20024
SWIDTH 960 0
DWIDTH 8 0
BBX 7 7 0 -1
BITMAP
20
F8
28
68
38
4A
8E
ENDCHAR
STARTCHAR 4E39
ENCODING 20025
SWIDTH 960 0
DWIDTH 8 0
BBX 7 7 0 -1
BITMAP
7C
44
54
44
FE
44
8C
ENDCHAR
STARTCHAR 4E3A
ENCODING 20026
SWIDTH 960 0
DWIDTH 8 0
BBX 7 7 0 -1
BITMAP
90
50
FE
22
2A
42
86
ENDCHAR
STARTCHAR 4E3B
ENCODING 20027
SWIDTH 960 0
DWIDTH 8 0
BBX 7 7 0 -1
BITMAP
20
10
FE
10
7C
10
FE
ENDCHAR
STARTCHAR 4E3C
ENCODING 20028
SWIDTH 960 0
DWIDTH 8 0
BBX 7 7 0 -1
BITMAP
24
FE
34
24
FE
24
44
ENDCHAR
STARTCHAR 4E3D
ENCODING 20029
SWIDTH 960 0
DWIDTH 8 0
BBX 7 7 0 -1
BITMAP
FE
00
EE
AA
EE
AA
AA
ENDCHAR
STARTCHAR 4E3E
ENCODING 20030
SWIDTH 960 0
DWIDTH 8 0
BBX 7 7 0 -1
BITMAP
54
FE
54
BA
10
7C
10
ENDCHAR
STARTCHAR 4E3F
ENCODING 20031
SWIDTH 960 0
DWIDTH 8 0
BBX 4 7 1 -1
BITMAP
10
10
10
10
10
20
C0
ENDCHAR
STARTCHAR 4E40
ENCODING 20032
SWIDTH 960 0
DWIDTH 8 0
BBX 7 5 0 -1
BITMAP
40
A0
10
08
06
ENDCHAR
STARTCHAR 4E41
ENCODING 20033
SWIDTH 960 0
DWIDTH 8 0
BBX 7 6 0 -1
BITMAP
E0
20
20
10
08
06
ENDCHAR
STARTCHAR 4E42
ENCODING 20034
SWIDTH 960 0
DWIDTH 8 0
BBX 7 7 0 -1
BITMAP
44
44
28
28
10
28
C6
ENDCHAR
STARTCHAR 4E43
ENCODING 20035
SWIDTH 960 0
DWIDTH 8 0
BBX 7 7 0 -1
BITMAP
F8
28
2E
22
42
42
86
ENDCHAR
STARTCHAR 4E44
ENCODING 20036
SWIDTH 960 0
DWIDTH 8 0
BBX 6 7 1 -1
BITMAP
04
04
28
10
A8
C0
80
ENDCHAR
STARTCHAR 4E45
ENCODING 20037
SWIDTH 960 0
DWIDTH 8 0
BBX 7 7 0 -1
BITMAP
20
3C
44
88
08
34
C2
ENDCHAR
STARTCHAR 4E46
ENCODING 20038
SWIDTH 960 0
DWIDTH 8 0
BBX 7 7 0 -1
BITMAP
90
90
90
F0
10
28
C6
ENDCHAR
STARTCHAR 4E47
ENCODING 20039
SWIDTH 960 0
DWIDTH 8 0
BBX 7 7 0 -1
BITMAP
0C
70
10
FE
10
12
1E
ENDCHAR
STARTCHAR 4E48
ENCODING 20040
SWIDTH 960 0
DWIDTH 8 0
BBX 7 7 0 -1
BITMAP
10
20
48
90
20
44
FA
ENDCHAR
STARTCHAR 4E49
ENCODING 20041
SWIDTH 960 0
DWIDTH 8 0
BBX 7 7 0 -1
BITMAP
20
14
44
28
10
28
C6
ENDCHAR
STARTCHAR 4E4A
ENCODING 20042
SWIDTH 960 0
DWIDTH 8 0
BBX 7 5 0 1
BITMAP
0E
F0
02
44
28
ENDCHAR
STARTCHAR 4E4B
ENCODING 20043
SWIDTH 960 0
DWIDTH 8 0
BBX 7 7 0 -1
BITMAP
10
7C
04
08
50
60
9E
ENDCHAR
STARTCHAR 4E4C
ENCODING 20044
SWIDTH 960 0
DWIDTH 8 0
BBX 7 7 0 -1
BITMAP
20
7C
44
7E
02
FA
06
ENDCHAR
STARTCHAR 4E4D
ENCODING 20045
SWIDTH 960 0
DWIDTH 8 0
BBX 7 7 0 -1
BITMAP
20
3E
50
9E
10
1E
10
ENDCHAR
STARTCHAR 4E4E
ENCODING 20046
SWIDTH 960 0
DWIDTH 8 0
BBX 7 7 0 -1
BITMAP
0E
F0
54
10
FE
10
30
ENDCHAR
STARTCHAR 4E4F
ENCODING 20047
SWIDTH 960 0
DWIDTH 8 0
BBX 7 7 0 -1
BITMAP
7C
10
7C
08
50
60
9E
ENDCHAR
STARTCHAR 4E50
ENCODING 20048
SWIDTH 960 0
DWIDTH 8 0
BBX 7 7 0 -1
BITMAP
7C
50
50
FE
10
54
B2
ENDCHAR
STARTCHAR 4E51
ENCODING 20049
SWIDTH 960 0
DWIDTH 8 0
BBX 7 7 0 -1
BITMAP
FE
10
32
54
B8
54
92
ENDCHAR
STARTCHAR 4E52
ENCODING 20050
SWIDTH 960 0
DWIDTH 8 0
BBX 7 7 0 -1
BITMAP
7C
40
7C
48
FE
20
40
ENDCHAR
STARTCHAR 4E53
ENCODING 20051
SWIDTH 960 0
DWIDTH 8 0
BBX 7 7 0 -1
BITMAP
7C
40
7C
48
FE
08
04
ENDCHAR
STARTCHAR 4E54
ENCODING 20052
SWIDTH 960 0
DWIDTH 8 0
BBX 7 7 0 -1
BITMAP
7C
10
FE
28
6C
AA
28
ENDCHAR
STARTCHAR 4E55
ENCODING 20053
SWIDTH 960 0
DWIDTH 8 0
BBX 7 7 0 -1
BITMAP
06
78
7E
7E
48
7E
AA
ENDCHAR
STARTCHAR 4E56
ENCODING 20054
SWIDTH 960 0
DWIDTH 8 0
BBX 7 7 0 -1
BITMAP
0C
70
FE
D6
54
D6
10
ENDCHAR
STARTCHAR 4E57
ENCODING 20055
SWIDTH 960 0
DWIDTH 8 0
BBX 7 7 0 -1
BITMAP
0C
70
FE
54
FE
38
D6
ENDCHAR
STARTCHAR 4E58
ENCODING 20056
SWIDTH 960 0
DWIDTH 8 0
BBX 7 7 0 -1
BITMAP
0C
70
FE
54
D6
38
D6
ENDCHAR
STARTCHAR 4E59
ENCODING 20057
SWIDTH 960 0
DWIDTH 8 0
BBX 7 7 0 -1
BITMAP
78
08
10
20
40
82
7E
ENDCHAR
STARTCHAR 4E5A
ENCODING 20058
SWIDTH 960 0
DWIDTH 8 0
BBX 6 7 1 -1
BITMAP
80
80
80
80
80
84
7C
ENDCHAR
STARTCHAR 4E5B
ENCODING 20059
SWIDTH 960 0
DWIDTH 8 0
BBX 6 3 1 3
BITMAP
FC
04
08
ENDCHAR
STARTCHAR 4E5C
ENCODING 20060
SWIDTH 960 0
DWIDTH 8 0
BBX 7 7 0 -1
BITMAP
40
5C
64
C4
40
42
3E
ENDCHAR
STARTCHAR 4E5D
ENCODING 20061
SWIDTH 960 0
DWIDTH 8 0
BBX 7 7 0 -1
BITMAP
20
F8
28
28
48
4A
8E
ENDCHAR
STARTCHAR 4E5E
ENCODING 20062
SWIDTH 960 0
DWIDTH 8 0
BBX 7 7 0 -1
BITMAP
40
7E
B8
08
30
42
3E
ENDCHAR
STARTCHAR 4E5F
ENCODING 20063
SWIDTH 960 0
DWIDTH 8 0
BBX 7 7 0 -1
BITMAP
10
5C
74
D4
50
42
3E
ENDCHAR
STARTCHAR 4E60
ENCODING 20064
SWIDTH 960 0
DWIDTH 8 0
BBX 6 7 1 -1
BITMAP
FC
44
24
04
34
C4
0C
ENDCHAR
STARTCHAR 4E61
ENCODING 20065
SWIDTH 960 0
DWIDTH 8 0
BBX 7 7 0 -1
BITMAP
10
24
78
12
3C
08
F0
ENDCHAR
STARTCHAR 4E62
ENCODING 20066
SWIDTH 960 0
DWIDTH 8 0
BBX 7 7 0 -1
BITMAP
28
28
28
A8
A8
FA
0E
ENDCHAR
STARTCHAR 4E63
ENCODING 20067
SWIDTH 960 0
DWIDTH 8 0
BBX 7 7 0 -1
BITMAP
48
88
E8
48
88
AA
EE
ENDCHAR
STARTCHAR 4E64
ENCODING 20068
SWIDTH 960 0
DWIDTH 8 0
BBX 7 7 0 -1
BITMAP
FE
10
14
00
78
12
3E
ENDCHAR
STARTCHAR 4E65
ENCODING 20069
SWIDTH 960 0
DWIDTH 8 0
BBX 7 7 0 -1
BITMAP
FE
28
00
70
10
24
3C
ENDCHAR
STARTCHAR 4E66
ENCODING 20070
SWIDTH 960 0
DWIDTH 8 0
BBX 7 7 0 -1
BITMAP
24
7A
28
FC
24
2C
20
ENDCHAR
STARTCHAR 4E67
ENCODING 20071
SWIDTH 960 0
DWIDTH 8 0
BBX 7 7 0 -1
BITMAP
28
48
FE
08
78
12
1E
ENDCHAR
STARTCHAR 4E68
ENCODING 20072
SWIDTH 960 0
DWIDTH 8 0
BBX 7 7 0 -1
BITMAP
48
A8
E8
08
E8
AA
EE
ENDCHAR
STARTCHAR 4E69
ENCODING 20073
SWIDTH 960 0
DWIDTH 8 0
BBX 7 7 0 -1
BITMAP
48
68
48
E8
A8
AA
EE
ENDCHAR
STARTCHAR 4E6A
ENCODING 20074
SWIDTH 960 0
DWIDTH 8 0
BBX 7 7 0 -1
BITMAP
FE
2A
7E
6A
BE
80
7E
ENDCHAR
STARTCHAR 4E6B
ENCODING 20075
SWIDTH 960 0
DWIDTH 8 0
BBX 7 7 0 -1
BITMAP
4E
EA
6A
AE
78
12
3E
ENDCHAR
STARTCHAR 4E6C
ENCODING 20076
SWIDTH 960 0
DWIDTH 8 0
BBX 7 7 0 -1
BITMAP
FC
90
F0
80
F8
12
1E
ENDCHAR
STARTCHAR 4E6D
ENCODING 20077
SWIDTH 960 0
DWIDTH 8 0
BBX 7 7 0 -1
BITMAP
FE
44
BC
00
F0
12
1E
ENDCHAR
STARTCHAR 4E6E
ENCODING 20078
SWIDTH 960 0
DWIDTH 8 0
BBX 7 7 0 -1
BITMAP
EE
8A
EA
2C
F8
12
3E
ENDCHAR
STARTCHAR 4E6F
ENCODING 20079
SWIDTH 960 0
DWIDTH 8 0
BBX 7 7 0 -1
BITMAP
FE
54
FE
10
78
0A
0E
ENDCHAR
STARTCHAR 4E70
ENCODING 20080
SWIDTH 960 0
DWIDTH 8 0
BBX 7 7 0 -1
BITMAP
FE
52
10
50
FE
28
C6
ENDCHAR
STARTCHAR 4E71
ENCODING 20081
SWIDTH 960 0
DWIDTH 8 0
BBX 7 7 0 -1
BITMAP
14
64
FC
24
74
54
76
ENDCHAR
STARTCHAR 4E72
ENCODING 20082
SWIDTH 960 0
DWIDTH 8 0
BBX 7 7 0 -1
BITMAP
90
1E
AA
14
78
12
1E
ENDCHAR
STARTCHAR 4E73
ENCODING 20083
SWIDTH 960 0
DWIDTH 8 0
BBX 7 7 0 -1
BITMAP
3C
D4
04
74
14
FC
26
ENDCHAR
STARTCHAR 4E74
ENCODING 20084
SWIDTH 960 0
DWIDTH 8 0
BBX 7 7 0 -1
BITMAP
4E
E8
4E
CA
30
14
3C
ENDCHAR
STARTCHAR 4E75
ENCODING 20085
SWIDTH 960 0
DWIDTH 8 0
BBX 7 7 0 -1
BITMAP
24
FC
54
FC
24
FC
26
ENDCHAR
STARTCHAR 4E76
ENCODING 20086
SWIDTH 960 0
DWIDTH 8 0
BBX 7 7 0 -1
BITMAP
14
FE
54
7C
54
3A
0E
ENDCHAR
STARTCHAR 4E78
ENCODING 20088
SWIDTH 960 0
DWIDTH 8 0
BBX 7 7 0 -1
BITMAP
4C
6C
FE
54
7C
46
3E
ENDCHAR
STARTCHAR 4E79
ENCODING 20089
SWIDTH 960 0
DWIDTH 8 0
BBX 7 7 0 -1
BITMAP
48
E8
48
A8
48
EA
4E
ENDCHAR
STARTCHAR 4E7A
ENCODING 20090
SWIDTH 960 0
DWIDTH 8 0
BBX 7 7 0 -1
BITMAP
EE
88
EE
AA
F0
92
3E
ENDCHAR
STARTCHAR 4E7B
ENCODING 20091
SWIDTH 960 0
DWIDTH 8 0
BBX 7 7 0 -1
BITMAP
44
EA
44
62
B0
14
1C
ENDCHAR
STARTCHAR 4E7C
ENCODING 20092
SWIDTH 960 0
DWIDTH 8 0
BBX 7 7 0 -1
BITMAP
88
3E
88
3E
80
1A
0E
ENDCHAR
STARTCHAR 4E7D
ENCODING 20093
SWIDTH 960 0
DWIDTH 8 0
BBX 7 7 0 -1
BITMAP
14
FE
64
BC
08
12
3E
ENDCHAR
STARTCHAR 4E7E
ENCODING 20094
SWIDTH 960 0
DWIDTH 8 0
BBX 7 7 0 -1
BITMAP
F0
5E
EC
A4
48
F2
4E
ENDCHAR
STARTCHAR 4E7F
ENCODING 20095
SWIDTH 960 0
DWIDTH 8 0
BBX 7 7 0 -1
BITMAP
E8
48
A8
48
E8
4A
CE
ENDCHAR
STARTCHAR 4E80
ENCODING 20096
SWIDTH 960 0
DWIDTH 8 0
BBX 7 7 0 -1
BITMAP
38
C8
7C
7C
94
FC
0E
ENDCHAR
STARTCHAR 4E81
ENCODING 20097
SWIDTH 960 0
DWIDTH 8 0
BBX 7 7 0 -1
BITMAP
48
EE
40
EE
44
E8
4E
ENDCHAR
STARTCHAR 4E82
ENCODING 20098
SWIDTH 960 0
DWIDTH 8 0
BBX 7 7 0 -1
BITMAP
74
AC
74
14
F4
B4
D6
ENDCHAR
STARTCHAR 4E83
ENCODING 20099
SWIDTH 960 0
DWIDTH 8 0
BBX 7 7 0 -1
BITMAP
AC
74
AC
54
BC
54
96
ENDCHAR
STARTCHAR 4E84
ENCODING 20100
SWIDTH 960 0
DWIDTH 8 0
BBX 7 7 0 -1
BITMAP
24
FC
AC
54
74
54
FE
ENDCHAR
STARTCHAR 4E85
ENCODING 20101
SWIDTH 960 0
DWIDTH 8 0
BBX 2 7 2 -1
BITMAP
40
40
40
40
40
40
C0
ENDCHAR
STARTCHAR 4E86
ENCODING 20102
SWIDTH 960 0
DWIDTH 8 0
BBX 7 7 0 -1
BITMAP
FE
04
18
10
10
10
30
ENDCHAR
STARTCHAR 4E87
ENCODING 20103
SWIDTH 960 0
DWIDTH 8 0
BBX 7 7 0 -1
BITMAP
40
7E
92
10
10
10
30
ENDCHAR
STARTCHAR 4E88
ENCODING 20104
SWIDTH 960 0
DWIDTH 8 0
BBX 7 7 0 -1
BITMAP
7C
28
10
FE
12
10
30
ENDCHAR
STARTCHAR 4E89
ENCODING 20105
SWIDTH 960 0
DWIDTH 8 0
BBX 7 7 0 -1
BITMAP
38
C8
3C
FE
14
7C
30
ENDCHAR
STARTCHAR 4E8A
ENCODING 20106
SWIDTH 960 0
DWIDTH 8 0
BBX 7 7 0 -1
BITMAP
10
FE
54
3C
FE
1C
30
ENDCHAR
STARTCHAR 4E8B
ENCODING 20107
SWIDTH 960 0
DWIDTH 8 0
BBX 7 7 0 -1
BITMAP
10
FE
54
FC
16
FC
30
ENDCHAR
STARTCHAR 4E8C
ENCODING 20108
SWIDTH 960 0
DWIDTH 8 0
BBX 7 6 0 -1
BITMAP
7C
00
00
00
04
FE
ENDCHAR
STARTCHAR 4E8D
ENCODING 20109
SWIDTH 960 0
DWIDTH 8 0
BBX 7 7 0 -1
BITMAP
7C
00
FE
10
10
10
30
ENDCHAR
STARTCHAR 4E8E
ENCODING 20110
SWIDTH 960 0
DWIDTH 8 0
BBX 7 7 0 -1
BITMAP
7C
10
10
FE
10
10
30
ENDCHAR
STARTCHAR 4E8F
ENCODING 20111
SWIDTH 960 0
DWIDTH 8 0
BBX 7 7 0 -1
BITMAP
7C
00
FE
20
3C
04
0C
ENDCHAR
STARTCHAR 4E90
ENCODING 20112
SWIDTH 960 0
DWIDTH 8 0
BBX 7 7 0 -1
BITMAP
7C
20
FE
20
3C
04
0C
ENDCHAR
STARTCHAR 4E91
ENCODING 20113
SWIDTH 960 0
DWIDTH 8 0
BBX 7 7 0 -1
BITMAP
7C
00
FE
10
10
24
FA
ENDCHAR
STARTCHAR 4E92
ENCODING 20114
SWIDTH 960 0
DWIDTH 8 0
BBX 7 7 0 -1
BITMAP
7E
20
3C
24
78
08
FE
ENDCHAR
STARTCHAR 4E93
ENCODING 20115
SWIDTH 960 0
DWIDTH 8 0
BBX 7 7 0 -1
BITMAP
7C
00
FE
24
24
44
84
ENDCHAR
STARTCHAR 4E94
ENCODING 20116
SWIDTH 960 0
DWIDTH 8 0
BBX 7 7 0 -1
BITMAP
7C
10
10
7C
24
24
FE
ENDCHAR
STARTCHAR 4E95
ENCODING 20117
SWIDTH 960 0
DWIDTH 8 0
BBX 7 7 0 -1
BITMAP
24
FE
24
24
FE
24
44
ENDCHAR
STARTCHAR 4E96
ENCODING 20118
SWIDTH 960 0
DWIDTH 8 0
BBX 7 7 0 -1
BITMAP
7C
00
FE
00
7C
00
FE
ENDCHAR
STARTCHAR 4E97
ENCODING 20119
SWIDTH 960 0
DWIDTH 8 0
BBX 7 7 0 -1
BITMAP
92
92
FE
00
7C
00
FE
ENDCHAR
STARTCHAR 4E98
ENCODING 20120
SWIDTH 960 0
DWIDTH 8 0
BBX 7 7 0 -1
BITMAP
FE
7C
44
7C
44
7C
FE
ENDCHAR
STARTCHAR 4E99
ENCODING 20121
SWIDTH 960 0
DWIDTH 8 0
BBX 7 7 0 -1
BITMAP
FE
20
3C
2C
54
08
FE
ENDCHAR
STARTCHAR 4E9A
ENCODING 20122
SWIDTH 960 0
DWIDTH 8 0
BBX 7 7 0 -1
BITMAP
FE
28
AA
6C
28
28
FE
ENDCHAR
STARTCHAR 4E9B
ENCODING 20123
SWIDTH 960 0
DWIDTH 8 0
BBX 7 7 0 -1
BITMAP
24
B6
A4
F6
7C
00
FE
ENDCHAR
STARTCHAR 4E9C
ENCODING 20124
SWIDTH 960 0
DWIDTH 8 0
BBX 7 7 0 -1
BITMAP
FE
28
FE
AA
FE
28
FE
ENDCHAR
STARTCHAR 4E9D
ENCODING 20125
SWIDTH 960 0
DWIDTH 8 0
BBX 7 7 0 -1
BITMAP
28
7C
44
AA
FE
00
FE
ENDCHAR
STARTCHAR 4E9E
ENCODING 20126
SWIDTH 960 0
DWIDTH 8 0
BBX 7 7 0 -1
BITMAP
FE
28
EE
82
EE
28
FE
ENDCHAR
STARTCHAR 4E9F
ENCODING 20127
SWIDTH 960 0
DWIDTH 8 0
BBX 7 7 0 -1
BITMAP
FE
20
3E
DA
D4
3A
FE
ENDCHAR
STARTCHAR 4EA0
ENCODING 20128
SWIDTH 960 0
DWIDTH 8 0
BBX 7 3 0 2
BITMAP
10
10
FE
ENDCHAR
STARTCHAR 4EA1
ENCODING 20129
SWIDTH 960 0
DWIDTH 8 0
BBX 7 7 0 -1
BITMAP
10
FE
40
40
40
40
3E
ENDCHAR
STARTCHAR 4EA2
ENCODING 20130
SWIDTH 960 0
DWIDTH 8 0
BBX 7 7 0 -1
BITMAP
10
FE
00
38
28
2A
CE
ENDCHAR
STARTCHAR 4EA3
ENCODING 20131
SWIDTH 960 0
DWIDTH 8 0
BBX 7 7 0 -1
BITMAP
10
00
FE
24
24
24
44
ENDCHAR
STARTCHAR 4EA4
ENCODING 20132
SWIDTH 960 0
DWIDTH 8 0
BBX 7 7 0 -1
BITMAP
10
FE
28
C6
28
10
EE
ENDCHAR
STARTCHAR 4EA5
ENCODING 20133
SWIDTH 960 0
DWIDTH 8 0
BBX 7 7 0 -1
BITMAP
10
FE
20
54
28
14
E2
ENDCHAR
STARTCHAR 4EA6
ENCODING 20134
SWIDTH 960 0
DWIDTH 8 0
BBX 7 7 0 -1
BITMAP
10
FE
28
6C
6A
AA
58
ENDCHAR
STARTCHAR 4EA7
ENCODING 20135
SWIDTH 960 0
DWIDTH 8 0
BBX 7 7 0 -1
BITMAP
10
FE
24
7E
40
40
80
ENDCHAR
STARTCHAR 4EA8
ENCODING 20136
SWIDTH 960 0
DWIDTH 8 0
BBX 7 7 0 -1
BITMAP
10
FE
44
7C
08
10
30
ENDCHAR
STARTCHAR 4EA9
ENCODING 20137
SWIDTH 960 0
DWIDTH 8 0
BBX 7 7 0 -1
BITMAP
10
FE
7C
54
7C
54
7C
ENDCHAR
STARTCHAR 4EAA
ENCODING 20138
SWIDTH 960 0
DWIDTH 8 0
BBX 7 7 0 -1
BITMAP
10
FE
28
AA
00
7C
06
ENDCHAR
STARTCHAR 4EAB
ENCODING 20139
SWIDTH 960 0
DWIDTH 8 0
BBX 7 7 0 -1
BITMAP
10
FE
44
7C
08
FE
10
ENDCHAR
STARTCHAR 4EAC
ENCODING 20140
SWIDTH 960 0
DWIDTH 8 0
BBX 7 7 0 -1
BITMAP
10
FE
44
7C
10
54
B2
ENDCHAR
STARTCHAR 4EAD
ENCODING 20141
SWIDTH 960 0
DWIDTH 8 0
BBX 7 7 0 -1
BITMAP
10
FE
44
FE
BA
10
30
ENDCHAR
STARTCHAR 4EAE
ENCODING 20142
SWIDTH 960 0
DWIDTH 8 0
BBX 7 7 0 -1
BITMAP
10
FE
44
FE
82
28
CE
ENDCHAR
STARTCHAR 4EAF
ENCODING 20143
SWIDTH 960 0
DWIDTH 8 0
BBX 7 7 0 -1
BITMAP
10
FE
44
7C
FE
82
FE
ENDCHAR
STARTCHAR 4EB0
ENCODING 20144
SWIDTH 960 0
DWIDTH 8 0
BBX 7 7 0 -1
BITMAP
10
FE
44
7C
7C
54
B2
ENDCHAR
STARTCHAR 4EB1
ENCODING 20145
SWIDTH 960 0
DWIDTH 8 0
BBX 7 7 0 -1
BITMAP
10
FE
5C
D4
5C
54
7E
ENDCHAR
STARTCHAR 4EB2
ENCODING 20146
SWIDTH 960 0
DWIDTH 8 0
BBX 7 7 0 -1
BITMAP
10
7C
28
FE
7C
10
54
ENDCHAR
STARTCHAR 4EB3
ENCODING 20147
SWIDTH 960 0
DWIDTH 8 0
BBX 7 7 0 -1
BITMAP
10
FE
44
FE
9A
70
1E
ENDCHAR
STARTCHAR 4EB4
ENCODING 20148
SWIDTH 960 0
DWIDTH 8 0
BBX 7 7 0 -1
BITMAP
10
FE
28
FE
92
7C
26
ENDCHAR
STARTCHAR 4EB5
ENCODING 20149
SWIDTH 960 0
DWIDTH 8 0
BBX 7 7 0 -1
BITMAP
10
FE
48
7C
D6
68
B6
ENDCHAR
STARTCHAR 4EB6
ENCODING 20150
SWIDTH 960 0
DWIDTH 8 0
BBX 7 7 0 -1
BITMAP
10
FE
6C
7C
38
28
FE
ENDCHAR
STARTCHAR 4EB7
ENCODING 20151
SWIDTH 960 0
DWIDTH 8 0
BBX 7 7 0 -1
BITMAP
10
FE
28
7E
6A
7C
AA
ENDCHAR
STARTCHAR 4EB8
ENCODING 20152
SWIDTH 960 0
DWIDTH 8 0
BBX 7 7 0 -1
BITMAP
4A
E0
AE
EA
44
EE
44
ENDCHAR
STARTCHAR 4EB9
ENCODING 20153
SWIDTH 960 0
DWIDTH 8 0
BBX 7 7 0 -1
BITMAP
10
FE
AA
FE
BA
28
FE
ENDCHAR
STARTCHAR 4EBA
ENCODING 20154
SWIDTH 960 0
DWIDTH 8 0
BBX 7 7 0 -1
BITMAP
10
10
10
28
28
44
82
ENDCHAR
STARTCHAR 4EBB
ENCODING 20155
SWIDTH 960 0
DWIDTH 8 0
BBX 3 7 1 -1
BITMAP
20
40
C0
40
40
40
40
ENDCHAR
STARTCHAR 4EBC
ENCODING 20156
SWIDTH 960 0
DWIDTH 8 0
BBX 7 7 0 -1
BITMAP
10
10
10
28
C6
00
FE
ENDCHAR
STARTCHAR 4EBD
ENCODING 20157
SWIDTH 960 0
DWIDTH 8 0
BBX 7 7 0 -1
BITMAP
10
10
28
C6
00
30
08
ENDCHAR
STARTCHAR 4EBE
ENCODING 20158
SWIDTH 960 0
DWIDTH 8 0
BBX 7 7 0 -1
BITMAP
88
88
88
94
A2
80
FE
ENDCHAR
STARTCHAR 4EBF
ENCODING 20159
SWIDTH 960 0
DWIDTH 8 0
BBX 7 7 0 -1
BITMAP
5E
42
C4
48
50
52
5E
ENDCHAR
STARTCHAR 4EC0
ENCODING 20160
SWIDTH 960 0
DWIDTH 8 0
BBX 7 7 0 -1
BITMAP
28
48
FE
48
48
48
48
ENDCHAR
STARTCHAR 4EC1
ENCODING 20161
SWIDTH 960 0
DWIDTH 8 0
BBX 7 7 0 -1
BITMAP
20
5E
C0
40
40
40
5E
ENDCHAR
STARTCHAR 4EC2
ENCODING 20162
SWIDTH 960 0
DWIDTH 8 0
BBX 7 7 0 -1
BITMAP
28
5E
CA
4A
4A
4A
56
ENDCHAR
STARTCHAR 4EC3
ENCODING 20163
SWIDTH 960 0
DWIDTH 8 0
BBX 7 7 0 -1
BITMAP
2E
44
C4
44
44
44
4C
ENDCHAR
STARTCHAR 4EC4
ENCODING 20164
SWIDTH 960 0
DWIDTH 8 0
BBX 7 7 0 -1
BITMAP
7E
48
48
48
48
54
A2
ENDCHAR
STARTCHAR 4EC5
ENCODING 20165
SWIDTH 960 0
DWIDTH 8 0
BBX 7 7 0 -1
BITMAP
5C
44
D4
48
48
54
62
ENDCHAR
STARTCHAR 4EC6
ENCODING 20166
SWIDTH 960 0
DWIDTH 8 0
BBX 7 7 0 -1
BITMAP
28
48
C8
4C
4A
48
48
ENDCHAR
STARTCHAR 4EC7
ENCODING 20167
SWIDTH 960 0
DWIDTH 8 0
BBX 7 7 0 -1
BITMAP
28
7C
D4
54
54
54
66
ENDCHAR
STARTCHAR 4EC8
ENCODING 20168
SWIDTH 960 0
DWIDTH 8 0
BBX 7 7 0 -1
BITMAP
54
54
D4
54
54
62
62
ENDCHAR
STARTCHAR 4EC9
ENCODING 20169
SWIDTH 960 0
DWIDTH 8 0
BBX 7 7 0 -1
BITMAP
5C
54
D4
54
54
54
66
ENDCHAR
STARTCHAR 4ECA
ENCODING 20170
SWIDTH 960 0
DWIDTH 8 0
BBX 7 7 0 -1
BITMAP
10
28
DE
00
7C
08
30
ENDCHAR
STARTCHAR 4ECB
ENCODING 20171
SWIDTH 960 0
DWIDTH 8 0
BBX 7 7 0 -1
BITMAP
10
28
C6
28
28
28
48
ENDCHAR
STARTCHAR 4ECC
ENCODING 20172
SWIDTH 960 0
DWIDTH 8 0
BBX 7 7 0 -1
BITMAP
10
10
28
C6
10
28
C6
ENDCHAR
STARTCHAR 4ECD
ENCODING 20173
SWIDTH 960 0
DWIDTH 8 0
BBX 7 7 0 -1
BITMAP
3C
54
D6
52
52
52
66
ENDCHAR
STARTCHAR 4ECE
ENCODING 20174
SWIDTH 960 0
DWIDTH 8 0
BBX 7 7 0 -1
BITMAP
24
24
24
24
54
4A
92
ENDCHAR
STARTCHAR 4ECF
ENCODING 20175
SWIDTH 960 0
DWIDTH 8 0
BBX 7 7 0 -1
BITMAP
28
48
C8
48
50
54
7A
ENDCHAR
STARTCHAR 4ED0
ENCODING 20176
SWIDTH 960 0
DWIDTH 8 0
BBX 7 7 0 -1
BITMAP
10
28
D6
10
FE
10
10
ENDCHAR
STARTCHAR 4ED1
ENCODING 20177
SWIDTH 960 0
DWIDTH 8 0
BBX 7 7 0 -1
BITMAP
10
28
C6
48
70
44
7C
ENDCHAR
STARTCHAR 4ED2
ENCODING 20178
SWIDTH 960 0
DWIDTH 8 0
BBX 7 7 0 -1
BITMAP
10
28
44
92
08
20
18
ENDCHAR
STARTCHAR 4ED3
ENCODING 20179
SWIDTH 960 0
DWIDTH 8 0
BBX 7 7 0 -1
BITMAP
38
C6
78
48
58
44
7C
ENDCHAR
STARTCHAR 4ED4
ENCODING 20180
SWIDTH 960 0
DWIDTH 8 0
BBX 7 7 0 -1
BITMAP
3C
44
C8
7E
48
48
58
ENDCHAR
STARTCHAR 4ED5
ENCODING 20181
SWIDTH 960 0
DWIDTH 8 0
BBX 7 7 0 -1
BITMAP
28
48
FE
48
48
48
5C
ENDCHAR
STARTCHAR 4ED6
ENCODING 20182
SWIDTH 960 0
DWIDTH 8 0
BBX 7 7 0 -1
BITMAP
24
54
DE
76
54
52
5E
ENDCHAR
STARTCHAR 4ED7
ENCODING 20183
SWIDTH 960 0
DWIDTH 8 0
BBX 7 7 0 -1
BITMAP
28
7E
C8
58
48
54
62
ENDCHAR
STARTCHAR 4ED8
ENCODING 20184
SWIDTH 960 0
DWIDTH 8 0
BBX 7 7 0 -1
BITMAP
24
5E
C4
54
4C
44
4C
ENDCHAR
STARTCHAR 4ED9
ENCODING 20185
SWIDTH 960 0
DWIDTH 8 0
BBX 7 7 0 -1
BITMAP
28
48
EA
6A
6A
6A
7E
ENDCHAR
STARTCHAR 4EDA
ENCODING 20186
SWIDTH 960 0
DWIDTH 8 0
BBX 7 7 0 -1
BITMAP
10
28
C6
10
54
54
7C
ENDCHAR
STARTCHAR 4EDB
ENCODING 20187
SWIDTH 960 0
DWIDTH 8 0
BBX 7 7 0 -1
BITMAP
26
5C
C4
5E
44
44
44
ENDCHAR
STARTCHAR 4EDC
ENCODING 20188
SWIDTH 960 0
DWIDTH 8 0
BBX 7 7 0 -1
BITMAP
5E
48
C8
48
48
48
5E
ENDCHAR
STARTCHAR 4EDD
ENCODING 20189
SWIDTH 960 0
DWIDTH 8 0
BBX 7 7 0 -1
BITMAP
10
28
C6
7C
10
10
FE
ENDCHAR
STARTCHAR 4EDE
ENCODING 20190
SWIDTH 960 0
DWIDTH 8 0
BBX 7 7 0 -1
BITMAP
3E
4A
DA
5A
6A
4A
56
ENDCHAR
STARTCHAR 4EDF
ENCODING 20191
SWIDTH 960 0
DWIDTH 8 0
BBX 7 7 0 -1
BITMAP
24
58
C8
7E
48
48
48
ENDCHAR
STARTCHAR 4EE0
ENCODING 20192
SWIDTH 960 0
DWIDTH 8 0
BBX 7 7 0 -1
BITMAP
26
5C
C4
5E
44
44
44
ENDCHAR
STARTCHAR 4EE1
ENCODING 20193
SWIDTH 960 0
DWIDTH 8 0
BBX 7 7 0 -1
BITMAP
48
CE
50
4E
44
48
4E
ENDCHAR
STARTCHAR 4EE2
ENCODING 20194
SWIDTH 960 0
DWIDTH 8 0
BBX 7 7 0 -1
BITMAP
48
CE
52
42
4A
42
46
ENDCHAR
STARTCHAR 4EE3
ENCODING 20195
SWIDTH 960 0
DWIDTH 8 0
BBX 7 7 0 -1
BITMAP
2A
48
DE
48
44
44
42
ENDCHAR
STARTCHAR 4EE4
ENCODING 20196
SWIDTH 960 0
DWIDTH 8 0
BBX 7 7 0 -1
BITMAP
10
28
DE
00
FE
12
10
ENDCHAR
STARTCHAR 4EE5
ENCODING 20197
SWIDTH 960 0
DWIDTH 8 0
BBX 7 7 0 -1
BITMAP
44
54
4C
44
64
8C
32
ENDCHAR
STARTCHAR 4EE6
ENCODING 20198
SWIDTH 960 0
DWIDTH 8 0
BBX 7 7 0 -1
BITMAP
48
48
DC
5A
6A
48
58
ENDCHAR
STARTCHAR 4EE7
ENCODING 20199
SWIDTH 960 0
DWIDTH 8 0
BBX 7 7 0 -1
BITMAP
10
1E
10
FE
10
28
C6
ENDCHAR
STARTCHAR 4EE8
ENCODING 20200
SWIDTH 960 0
DWIDTH 8 0
BBX 7 7 0 -1
BITMAP
5E
C0
40
5E
40
40
5E
ENDCHAR
STARTCHAR 4EE9
ENCODING 20201
SWIDTH 960 0
DWIDTH 8 0
BBX 7 7 0 -1
BITMAP
48
48
CE
48
48
48
5E
ENDCHAR
STARTCHAR 4EEA
ENCODING 20202
SWIDTH 960 0
DWIDTH 8 0
BBX 7 7 0 -1
BITMAP
4A
62
D4
54
48
54
62
ENDCHAR
STARTCHAR 4EEB
ENCODING 20203
SWIDTH 960 0
DWIDTH 8 0
BBX 7 7 0 -1
BITMAP
48
50
C4
48
50
64
7A
ENDCHAR
STARTCHAR 4EEC
ENCODING 20204
SWIDTH 960 0
DWIDTH 8 0
BBX 7 7 0 -1
BITMAP
56
C2
52
52
52
52
56
ENDCHAR
STARTCHAR 4EED
ENCODING 20205
SWIDTH 960 0
DWIDTH 8 0
BBX 7 7 0 -1
BITMAP
3E
4A
DA
4A
4E
4A
56
ENDCHAR
STARTCHAR 4EEE
ENCODING 20206
SWIDTH 960 0
DWIDTH 8 0
BBX 7 7 0 -1
BITMAP
3E
50
DE
5A
5A
64
5A
ENDCHAR
STARTCHAR 4EEF
ENCODING 20207
SWIDTH 960 0
DWIDTH 8 0
BBX 7 7 0 -1
BITMAP
48
DC
5A
68
4A
44
58
ENDCHAR
STARTCHAR 4EF0
ENCODING 20208
SWIDTH 960 0
DWIDTH 8 0
BBX 7 7 0 -1
BITMAP
50
6E
EA
EA
7A
68
48
ENDCHAR
STARTCHAR 4EF1
ENCODING 20209
SWIDTH 960 0
DWIDTH 8 0
BBX 7 7 0 -1
BITMAP
48
D4
6A
40
5C
44
48
ENDCHAR
STARTCHAR 4EF2
ENCODING 20210
SWIDTH 960 0
DWIDTH 8 0
BBX 7 7 0 -1
BITMAP
28
7E
EA
6A
7E
48
48
ENDCHAR
STARTCHAR 4EF3
ENCODING 20211
SWIDTH 960 0
DWIDTH 8 0
BBX 7 7 0 -1
BITMAP
24
54
D4
5E
54
54
5A
ENDCHAR
STARTCHAR 4EF4
ENCODING 20212
SWIDTH 960 0
DWIDTH 8 0
BBX 7 7 0 -1
BITMAP
5E
52
DE
52
5E
52
66
ENDCHAR
STARTCHAR 4EF5
ENCODING 20213
SWIDTH 960 0
DWIDTH 8 0
BBX 7 7 0 -1
BITMAP
28
4E
D4
44
5E
44
44
ENDCHAR
STARTCHAR 4EF6
ENCODING 20214
SWIDTH 960 0
DWIDTH 8 0
BBX 7 7 0 -1
BITMAP
2C
4E
D4
44
5E
44
44
ENDCHAR
STARTCHAR 4EF7
ENCODING 20215
SWIDTH 960 0
DWIDTH 8 0
BBX 7 7 0 -1
BITMAP
28
54
E2
54
54
54
64
ENDCHAR
STARTCHAR 4EF8
ENCODING 20216
SWIDTH 960 0
DWIDTH 8 0
BBX 7 7 0 -1
BITMAP
4C
58
C8
7E
48
54
62
ENDCHAR
STARTCHAR 4EF9
ENCODING 20217
SWIDTH 960 0
DWIDTH 8 0
BBX 7 7 0 -1
BITMAP
48
7E
C8
5C
48
7E
48
ENDCHAR
STARTCHAR 4EFA
ENCODING 20218
SWIDTH 960 0
DWIDTH 8 0
BBX 7 7 0 -1
BITMAP
10
28
7C
C2
78
40
7C
ENDCHAR
STARTCHAR 4EFB
ENCODING 20219
SWIDTH 960 0
DWIDTH 8 0
BBX 7 7 0 -1
BITMAP
24
58
C8
7E
48
48
5C
ENDCHAR
STARTCHAR 4EFC
ENCODING 20220
SWIDTH 960 0
DWIDTH 8 0
BBX 7 7 0 -1
BITMAP
3E
48
C8
5E
48
48
5E
ENDCHAR
STARTCHAR 4EFD
ENCODING 20221
SWIDTH 960 0
DWIDTH 8 0
BBX 7 7 0 -1
BITMAP
2C
52
C0
5E
4A
4A
56
ENDCHAR
STARTCHAR 4EFE
ENCODING 20222
SWIDTH 960 0
DWIDTH 8 0
BBX 7 7 0 -1
BITMAP
7E
50
DC
54
5C
44
7E
ENDCHAR
STARTCHAR 4EFF
ENCODING 20223
SWIDTH 960 0
DWIDTH 8 0
BBX 7 7 0 -1
BITMAP
24
5E
C8
4E
4A
4A
56
ENDCHAR
STARTCHAR 4F00
ENCODING 20224
SWIDTH 960 0
DWIDTH 8 0
BBX 7 7 0 -1
BITMAP
54
54
E2
48
48
54
5A
ENDCHAR
STARTCHAR 4F01
ENCODING 20225
SWIDTH 960 0
DWIDTH 8 0
BBX 7 7 0 -1
BITMAP
10
28
D6
10
5C
50
FE
ENDCHAR
STARTCHAR 4F02
ENCODING 20226
SWIDTH 960 0
DWIDTH 8 0
BBX 7 7 0 -1
BITMAP
48
7E
C8
7E
6A
6E
48
ENDCHAR
STARTCHAR 4F03
ENCODING 20227
SWIDTH 960 0
DWIDTH 8 0
BBX 7 7 0 -1
BITMAP
5E
C2
54
48
5E
4A
58
ENDCHAR
STARTCHAR 4F04
ENCODING 20228
SWIDTH 960 0
DWIDTH 8 0
BBX 7 7 0 -1
BITMAP
5E
4A
FE
68
7E
4A
48
ENDCHAR
STARTCHAR 4F05
ENCODING 20229
SWIDTH 960 0
DWIDTH 8 0
BBX 7 7 0 -1
BITMAP
48
FE
48
6A
7E
48
4E
ENDCHAR
STARTCHAR 4F06
ENCODING 20230
SWIDTH 960 0
DWIDTH 8 0
BBX 7 7 0 -1
BITMAP
50
7E
CA
56
6A
52
46
ENDCHAR
STARTCHAR 4F07
ENCODING 20231
SWIDTH 960 0
DWIDTH 8 0
BBX 7 7 0 -1
BITMAP
5C
54
E2
5C
54
48
54
ENDCHAR
STARTCHAR 4F08
ENCODING 20232
SWIDTH 960 0
DWIDTH 8 0
BBX 7 7 0 -1
BITMAP
28
44
D0
64
52
54
5C
ENDCHAR
STARTCHAR 4F09
ENCODING 20233
SWIDTH 960 0
DWIDTH 8 0
BBX 7 7 0 -1
BITMAP
28
7E
C0
5C
54
54
66
ENDCHAR
STARTCHAR 4F0A
ENCODING 20234
SWIDTH 960 0
DWIDTH 8 0
BBX 7 7 0 -1
BITMAP
3E
4A
FE
4A
5E
48
50
ENDCHAR
STARTCHAR 4F0B
ENCODING 20235
SWIDTH 960 0
DWIDTH 8 0
BBX 7 7 0 -1
BITMAP
3C
54
DE
52
5A
54
6A
ENDCHAR
STARTCHAR 4F0C
ENCODING 20236
SWIDTH 960 0
DWIDTH 8 0
BBX 7 7 0 -1
BITMAP
5E
50
DE
5A
5E
68
6E
ENDCHAR
STARTCHAR 4F0D
ENCODING 20237
SWIDTH 960 0
DWIDTH 8 0
BBX 7 7 0 -1
BITMAP
3C
48
C8
7C
54
54
7E
ENDCHAR
STARTCHAR 4F0E
ENCODING 20238
SWIDTH 960 0
DWIDTH 8 0
BBX 7 7 0 -1
BITMAP
28
7E
C8
7C
54
48
76
ENDCHAR
STARTCHAR 4F0F
ENCODING 20239
SWIDTH 960 0
DWIDTH 8 0
BBX 7 7 0 -1
BITMAP
2A
48
FE
48
48
54
62
ENDCHAR
STARTCHAR 4F10
ENCODING 20240
SWIDTH 960 0
DWIDTH 8 0
BBX 7 7 0 -1
BITMAP
2A
48
DE
48
4A
44
5A
ENDCHAR
STARTCHAR 4F11
ENCODING 20241
SWIDTH 960 0
DWIDTH 8 0
BBX 7 7 0 -1
BITMAP
28
7E
C8
5C
5C
6A
48
ENDCHAR
STARTCHAR 4F12
ENCODING 20242
SWIDTH 960 0
DWIDTH 8 0
BBX 7 7 0 -1
BITMAP
22
5C
D0
5E
54
54
64
ENDCHAR
STARTCHAR 4F13
ENCODING 20243
SWIDTH 960 0
DWIDTH 8 0
BBX 7 7 0 -1
BITMAP
2E
44
CC
56
44
44
44
ENDCHAR
STARTCHAR 4F14
ENCODING 20244
SWIDTH 960 0
DWIDTH 8 0
BBX 7 7 0 -1
BITMAP
5E
52
C0
54
54
54
56
ENDCHAR
STARTCHAR 4F15
ENCODING 20245
SWIDTH 960 0
DWIDTH 8 0
BBX 7 7 0 -1
BITMAP
28
5E
C8
5E
48
48
56
ENDCHAR
STARTCHAR 4F16
ENCODING 20246
SWIDTH 960 0
DWIDTH 8 0
BBX 7 7 0 -1
BITMAP
48
5E
C8
4E
4A
54
4A
ENDCHAR
STARTCHAR 4F17
ENCODING 20247
SWIDTH 960 0
DWIDTH 8 0
BBX 7 7 0 -1
BITMAP
10
28
C6
00
44
44
AA
ENDCHAR
STARTCHAR 4F18
ENCODING 20248
SWIDTH 960 0
DWIDTH 8 0
BBX 7 7 0 -1
BITMAP
2A
48
DE
48
54
54
56
ENDCHAR
STARTCHAR 4F19
ENCODING 20249
SWIDTH 960 0
DWIDTH 8 0
BBX 7 7 0 -1
BITMAP
28
48
DA
5A
48
48
56
ENDCHAR
STARTCHAR 4F1A
ENCODING 20250
SWIDTH 960 0
DWIDTH 8 0
BBX 7 7 0 -1
BITMAP
10
28
DE
00
FE
24
FA
ENDCHAR
STARTCHAR 4F1B
ENCODING 20251
SWIDTH 960 0
DWIDTH 8 0
BBX 7 7 0 -1
BITMAP
5E
50
DA
54
5A
50
5E
ENDCHAR
STARTCHAR 4F1C
ENCODING 20252
SWIDTH 960 0
DWIDTH 8 0
BBX 7 7 0 -1
BITMAP
28
7C
D4
66
48
7E
48
ENDCHAR
STARTCHAR 4F1D
ENCODING 20253
SWIDTH 960 0
DWIDTH 8 0
BBX 7 7 0 -1
BITMAP
3C
40
FE
48
48
54
7A
ENDCHAR
STARTCHAR 4F1E
ENCODING 20254
SWIDTH 960 0
DWIDTH 8 0
BBX 7 7 0 -1
BITMAP
10
38
D6
54
FE
10
10
ENDCHAR
STARTCHAR 4F1F
ENCODING 20255
SWIDTH 960 0
DWIDTH 8 0
BBX 7 7 0 -1
BITMAP
48
5E
C8
5E
4A
4E
48
ENDCHAR
STARTCHAR 4F20
ENCODING 20256
SWIDTH 960 0
DWIDTH 8 0
BBX 7 7 0 -1
BITMAP
28
5C
FE
50
5C
44
48
ENDCHAR
STARTCHAR 4F21
ENCODING 20257
SWIDTH 960 0
DWIDTH 8 0
BBX 7 7 0 -1
BITMAP
48
7E
D4
5E
44
5E
44
ENDCHAR
STARTCHAR 4F22
ENCODING 20258
SWIDTH 960 0
DWIDTH 8 0
BBX 7 7 0 -1
BITMAP
5C
C4
54
5E
4C
54
4C
ENDCHAR
STARTCHAR 4F23
ENCODING 20259
SWIDTH 960 0
DWIDTH 8 0
BBX 7 7 0 -1
BITMAP
5E
52
DA
5A
48
4A
56
ENDCHAR
STARTCHAR 4F24
ENCODING 20260
SWIDTH 960 0
DWIDTH 8 0
BBX 7 7 0 -1
BITMAP
28
4E
D0
48
5E
4A
56
ENDCHAR
STARTCHAR 4F25
ENCODING 20261
SWIDTH 960 0
DWIDTH 8 0
BBX 7 7 0 -1
BITMAP
32
54
D0
7E
58
54
5A
ENDCHAR
STARTCHAR 4F26
ENCODING 20262
SWIDTH 960 0
DWIDTH 8 0
BBX 7 7 0 -1
BITMAP
28
54
E2
54
58
52
5E
ENDCHAR
STARTCHAR 4F27
ENCODING 20263
SWIDTH 960 0
DWIDTH 8 0
BBX 7 7 0 -1
BITMAP
28
54
FE
54
5C
52
5E
ENDCHAR
STARTCHAR 4F28
ENCODING 20264
SWIDTH 960 0
DWIDTH 8 0
BBX 7 7 0 -1
BITMAP
28
4E
D2
4A
46
5A
46
ENDCHAR
STARTCHAR 4F29
ENCODING 20265
SWIDTH 960 0
DWIDTH 8 0
BBX 7 7 0 -1
BITMAP
48
7E
D4
54
48
54
62
ENDCHAR
STARTCHAR 4F2A
ENCODING 20266
SWIDTH 960 0
DWIDTH 8 0
BBX 7 7 0 -1
BITMAP
58
48
FE
4A
4E
52
66
ENDCHAR
STARTCHAR 4F2B
ENCODING 20267
SWIDTH 960 0
DWIDTH 8 0
BBX 7 7 0 -1
BITMAP
48
40
DE
52
40
40
5E
ENDCHAR
STARTCHAR 4F2C
ENCODING 20268
SWIDTH 960 0
DWIDTH 8 0
BBX 7 7 0 -1
BITMAP
5E
52
D2
5E
54
54
52
ENDCHAR
STARTCHAR 4F2D
ENCODING 20269
SWIDTH 960 0
DWIDTH 8 0
BBX 7 7 0 -1
BITMAP
48
7E
C8
54
48
52
5E
ENDCHAR
STARTCHAR 4F2E
ENCODING 20270
SWIDTH 960 0
DWIDTH 8 0
BBX 7 7 0 -1
BITMAP
AE
FA
AA
AA
AC
94
AA
ENDCHAR
STARTCHAR 4F2F
ENCODING 20271
SWIDTH 960 0
DWIDTH 8 0
BBX 7 7 0 -1
BITMAP
28
5E
D2
5E
52
52
5E
ENDCHAR
STARTCHAR 4F30
ENCODING 20272
SWIDTH 960 0
DWIDTH 8 0
BBX 7 7 0 -1
BITMAP
28
48
FE
48
5C
54
5C
ENDCHAR
STARTCHAR 4F31
ENCODING 20273
SWIDTH 960 0
DWIDTH 8 0
BBX 7 7 0 -1
BITMAP
28
54
E2
48
6A
48
58
ENDCHAR
STARTCHAR 4F32
ENCODING 20274
SWIDTH 960 0
DWIDTH 8 0
BBX 7 7 0 -1
BITMAP
5E
52
DE
50
5E
68
6E
ENDCHAR
STARTCHAR 4F33
ENCODING 20275
SWIDTH 960 0
DWIDTH 8 0
BBX 7 7 0 -1
BITMAP
54
54
FE
54
5C
50
5E
ENDCHAR
STARTCHAR 4F34
ENCODING 20276
SWIDTH 960 0
DWIDTH 8 0
BBX 7 7 0 -1
BITMAP
24
56
C4
5E
44
5E
44
ENDCHAR
STARTCHAR 4F35
ENCODING 20277
SWIDTH 960 0
DWIDTH 8 0
BBX 7 7 0 -1
BITMAP
BE
AA
AA
B6
A2
A2
BE
ENDCHAR
STARTCHAR 4F36
ENCODING 20278
SWIDTH 960 0
DWIDTH 8 0
BBX 7 7 0 -1
BITMAP
28
54
EE
40
7E
4A
48
ENDCHAR
STARTCHAR 4F37
ENCODING 20279
SWIDTH 960 0
DWIDTH 8 0
BBX 7 7 0 -1
BITMAP
48
88
BE
AA
BE
AA
BE
ENDCHAR
STARTCHAR 4F38
ENCODING 20280
SWIDTH 960 0
DWIDTH 8 0
BBX 7 7 0 -1
BITMAP
28
7E
EA
7E
6A
7E
48
ENDCHAR
STARTCHAR 4F39
ENCODING 20281
SWIDTH 960 0
DWIDTH 8 0
BBX 7 7 0 -1
BITMAP
5C
54
DC
54
5C
54
7E
ENDCHAR
STARTCHAR 4F3A
ENCODING 20282
SWIDTH 960 0
DWIDTH 8 0
BBX 7 7 0 -1
BITMAP
3E
42
DA
42
5A
5A
46
ENDCHAR
STARTCHAR 4F3B
ENCODING 20283
SWIDTH 960 0
DWIDTH 8 0
BBX 7 7 0 -1
BITMAP
7E
48
EA
48
7E
48
48
ENDCHAR
STARTCHAR 4F3C
ENCODING 20284
SWIDTH 960 0
DWIDTH 8 0
BBX 7 7 0 -1
BITMAP
32
56
D2
5A
72
44
5A
ENDCHAR
STARTCHAR 4F3D
ENCODING 20285
SWIDTH 960 0
DWIDTH 8 0
BBX 7 7 0 -1
BITMAP
50
7E
DA
DA
6A
4E
58
ENDCHAR
STARTCHAR 4F3E
ENCODING 20286
SWIDTH 960 0
DWIDTH 8 0
BBX 7 7 0 -1
BITMAP
3E
48
DA
6A
48
48
5E
ENDCHAR
STARTCHAR 4F3F
ENCODING 20287
SWIDTH 960 0
DWIDTH 8 0
BBX 7 7 0 -1
BITMAP
5E
52
D2
5E
40
52
52
ENDCHAR
STARTCHAR 4F40
ENCODING 20288
SWIDTH 960 0
DWIDTH 8 0
BBX 7 7 0 -1
BITMAP
5E
52
DE
50
5E
52
5E
ENDCHAR
STARTCHAR 4F41
ENCODING 20289
SWIDTH 960 0
DWIDTH 8 0
BBX 7 7 0 -1
BITMAP
48
52
DE
40
5E
52
5E
ENDCHAR
STARTCHAR 4F42
ENCODING 20290
SWIDTH 960 0
DWIDTH 8 0
BBX 7 7 0 -1
BITMAP
5E
44
C4
46
54
54
5E
ENDCHAR
STARTCHAR 4F43
ENCODING 20291
SWIDTH 960 0
DWIDTH 8 0
BBX 7 7 0 -1
BITMAP
3E
6A
EA
7E
6A
6A
7E
ENDCHAR
STARTCHAR 4F44
ENCODING 20292
SWIDTH 960 0
DWIDTH 8 0
BBX 7 7 0 -1
BITMAP
54
D4
7E
54
5C
54
5C
ENDCHAR
STARTCHAR 4F45
ENCODING 20293
SWIDTH 960 0
DWIDTH 8 0
BBX 7 7 0 -1
BITMAP
48
5C
C8
7E
5C
6A
48
ENDCHAR
STARTCHAR 4F46
ENCODING 20294
SWIDTH 960 0
DWIDTH 8 0
BBX 7 7 0 -1
BITMAP
3E
52
DE
52
5E
40
5E
ENDCHAR
STARTCHAR 4F47
ENCODING 20295
SWIDTH 960 0
DWIDTH 8 0
BBX 7 7 0 -1
BITMAP
24
5E
D2
4E
44
44
4C
ENDCHAR
STARTCHAR 4F48
ENCODING 20296
SWIDTH 960 0
DWIDTH 8 0
BBX 7 7 0 -1
BITMAP
24
5E
C8
5E
76
56
44
ENDCHAR
STARTCHAR 4F49
ENCODING 20297
SWIDTH 960 0
DWIDTH 8 0
BBX 7 7 0 -1
BITMAP
48
5C
C8
7E
50
54
7A
ENDCHAR
STARTCHAR 4F4A
ENCODING 20298
SWIDTH 960 0
DWIDTH 8 0
BBX 7 7 0 -1
BITMAP
48
BE
AA
BC
B4
A8
B6
ENDCHAR
STARTCHAR 4F4B
ENCODING 20299
SWIDTH 960 0
DWIDTH 8 0
BBX 7 7 0 -1
BITMAP
5E
4A
D6
40
5E
52
5E
ENDCHAR
STARTCHAR 4F4C
ENCODING 20300
SWIDTH 960 0
DWIDTH 8 0
BBX 7 7 0 -1
BITMAP
54
54
DE
54
54
5C
76
ENDCHAR
STARTCHAR 4F4D
ENCODING 20301
SWIDTH 960 0
DWIDTH 8 0
BBX 7 7 0 -1
BITMAP
28
7E
D4
54
54
58
7E
ENDCHAR
STARTCHAR 4F4E
ENCODING 20302
SWIDTH 960 0
DWIDTH 8 0
BBX 7 7 0 -1
BITMAP
22
5C
D4
5E
54
52
5E
ENDCHAR
STARTCHAR 4F4F
ENCODING 20303
SWIDTH 960 0
DWIDTH 8 0
BBX 7 7 0 -1
BITMAP
28
44
DE
44
4E
44
5E
ENDCHAR
STARTCHAR 4F50
ENCODING 20304
SWIDTH 960 0
DWIDTH 8 0
BBX 7 7 0 -1
BITMAP
28
5E
C8
4E
54
44
5E
ENDCHAR
STARTCHAR 4F51
ENCODING 20305
SWIDTH 960 0
DWIDTH 8 0
BBX 7 7 0 -1
BITMAP
28
5E
C8
4E
5A
4A
4E
ENDCHAR
STARTCHAR 4F52
ENCODING 20306
SWIDTH 960 0
DWIDTH 8 0
BBX 7 7 0 -1
BITMAP
48
7E
EA
7E
48
54
62
ENDCHAR
STARTCHAR 4F53
ENCODING 20307
SWIDTH 960 0
DWIDTH 8 0
BBX 7 7 0 -1
BITMAP
28
7E
C8
5C
6A
5C
48
ENDCHAR
STARTCHAR 4F54
ENCODING 20308
SWIDTH 960 0
DWIDTH 8 0
BBX 7 7 0 -1
BITMAP
28
4E
C8
5E
52
52
5E
ENDCHAR
STARTCHAR 4F55
ENCODING 20309
SWIDTH 960 0
DWIDTH 8 0
BBX 7 7 0 -1
BITMAP
3E
42
DE
56
5E
42
46
ENDCHAR
STARTCHAR 4F56
ENCODING 20310
SWIDTH 960 0
DWIDTH 8 0
BBX 7 7 0 -1
BITMAP
48
42
D2
54
6A
48
56
ENDCHAR
STARTCHAR 4F57
ENCODING 20311
SWIDTH 960 0
DWIDTH 8 0
BBX 7 7 0 -1
BITMAP
28
7E
E2
54
58
52
5E
ENDCHAR
STARTCHAR 4F58
ENCODING 20312
SWIDTH 960 0
DWIDTH 8 0
BBX 7 7 0 -1
BITMAP
10
28
FE
00
FE
54
B2
ENDCHAR
STARTCHAR 4F59
ENCODING 20313
SWIDTH 960 0
DWIDTH 8 0
BBX 7 7 0 -1
BITMAP
10
28
FE
10
FE
54
B2
ENDCHAR
STARTCHAR 4F5A
ENCODING 20314
SWIDTH 960 0
DWIDTH 8 0
BBX 7 7 0 -1
BITMAP
2C
4E
D4
5E
44
44
5A
ENDCHAR
STARTCHAR 4F5B
ENCODING 20315
SWIDTH 960 0
DWIDTH 8 0
BBX 7 7 0 -1
BITMAP
54
7E
DE
F4
7E
56
64
ENDCHAR
STARTCHAR 4F5C
ENCODING 20316
SWIDTH 960 0
DWIDTH 8 0
BBX 7 7 0 -1
BITMAP
28
4E
D8
4E
48
4E
48
ENDCHAR
STARTCHAR 4F5D
ENCODING 20317
SWIDTH 960 0
DWIDTH 8 0
BBX 7 7 0 -1
BITMAP
28
4E
D2
4E
4E
42
46
ENDCHAR
STARTCHAR 4F5E
ENCODING 20318
SWIDTH 960 0
DWIDTH 8 0
BBX 7 7 0 -1
BITMAP
2C
40
DE
48
5E
4C
5A
ENDCHAR
STARTCHAR 4F5F
ENCODING 20319
SWIDTH 960 0
DWIDTH 8 0
BBX 7 7 0 -1
BITMAP
2E
52
CC
52
64
58
46
ENDCHAR
STARTCHAR 4F60
ENCODING 20320
SWIDTH 960 0
DWIDTH 8 0
BBX 7 7 0 -1
BITMAP
28
5E
E2
48
5C
6A
58
ENDCHAR
STARTCHAR 4F61
ENCODING 20321
SWIDTH 960 0
DWIDTH 8 0
BBX 7 7 0 -1
BITMAP
48
94
A2
88
AA
AA
BE
ENDCHAR
STARTCHAR 4F62
ENCODING 20322
SWIDTH 960 0
DWIDTH 8 0
BBX 7 7 0 -1
BITMAP
3E
50
DE
52
5E
50
5E
ENDCHAR
STARTCHAR 4F63
ENCODING 20323
SWIDTH 960 0
DWIDTH 8 0
BBX 7 7 0 -1
BITMAP
3E
6A
FE
6A
7E
6A
66
ENDCHAR
STARTCHAR 4F64
ENCODING 20324
SWIDTH 960 0
DWIDTH 8 0
BBX 7 7 0 -1
BITMAP
7E
50
DC
54
5C
56
5A
ENDCHAR
STARTCHAR 4F65
ENCODING 20325
SWIDTH 960 0
DWIDTH 8 0
BBX 7 7 0 -1
BITMAP
38
44
BA
00
A2
54
FE
ENDCHAR
STARTCHAR 4F66
ENCODING 20326
SWIDTH 960 0
DWIDTH 8 0
BBX 7 7 0 -1
BITMAP
5E
48
D0
7E
52
52
5E
ENDCHAR
STARTCHAR 4F67
ENCODING 20327
SWIDTH 960 0
DWIDTH 8 0
BBX 7 7 0 -1
BITMAP
50
5C
D0
7E
50
54
50
ENDCHAR
STARTCHAR 4F68
ENCODING 20328
SWIDTH 960 0
DWIDTH 8 0
BBX 7 7 0 -1
BITMAP
50
5E
E2
5A
58
52
5E
ENDCHAR
STARTCHAR 4F69
ENCODING 20329
SWIDTH 960 0
DWIDTH 8 0
BBX 7 7 0 -1
BITMAP
3E
62
FE
6A
7E
7E
6A
ENDCHAR
STARTCHAR 4F6A
ENCODING 20330
SWIDTH 960 0
DWIDTH 8 0
BBX 7 7 0 -1
BITMAP
5E
52
DE
56
5E
52
5E
ENDCHAR
STARTCHAR 4F6B
ENCODING 20331
SWIDTH 960 0
DWIDTH 8 0
BBX 7 7 0 -1
BITMAP
50
7E
D4
48
7E
54
5C
ENDCHAR
STARTCHAR 4F6C
ENCODING 20332
SWIDTH 960 0
DWIDTH 8 0
BBX 7 7 0 -1
BITMAP
28
5C
DE
48
5E
68
4E
ENDCHAR
STARTCHAR 4F6D
ENCODING 20333
SWIDTH 960 0
DWIDTH 8 0
BBX 7 7 0 -1
BITMAP
50
7E
DC
6A
54
5E
44
ENDCHAR
STARTCHAR 4F6E
ENCODING 20334
SWIDTH 960 0
DWIDTH 8 0
BBX 7 7 0 -1
BITMAP
48
54
FE
40
5C
54
5C
ENDCHAR
STARTCHAR 4F6F
ENCODING 20335
SWIDTH 960 0
DWIDTH 8 0
BBX 7 7 0 -1
BITMAP
2A
5E
C4
4E
44
5E
44
ENDCHAR
STARTCHAR 4F70
ENCODING 20336
SWIDTH 960 0
DWIDTH 8 0
BBX 7 7 0 -1
BITMAP
3E
48
DE
52
5E
52
5E
ENDCHAR
STARTCHAR 4F71
ENCODING 20337
SWIDTH 960 0
DWIDTH 8 0
BBX 7 7 0 -1
BITMAP
38
C6
7C
10
5C
50
FE
ENDCHAR
STARTCHAR 4F72
ENCODING 20338
SWIDTH 960 0
DWIDTH 8 0
BBX 7 7 0 -1
BITMAP
48
5E
F4
48
7E
52
5E
ENDCHAR
STARTCHAR 4F73
ENCODING 20339
SWIDTH 960 0
DWIDTH 8 0
BBX 7 7 0 -1
BITMAP
28
5C
C8
7E
5C
48
7E
ENDCHAR
STARTCHAR 4F74
ENCODING 20340
SWIDTH 960 0
DWIDTH 8 0
BBX 7 7 0 -1
BITMAP
7E
54
DC
54
5E
74
44
ENDCHAR
STARTCHAR 4F75
ENCODING 20341
SWIDTH 960 0
DWIDTH 8 0
BBX 7 7 0 -1
BITMAP
34
40
FE
54
7E
54
64
ENDCHAR
STARTCHAR 4F76
ENCODING 20342
SWIDTH 960 0
DWIDTH 8 0
BBX 7 7 0 -1
BITMAP
28
7E
C8
5C
40
5C
5C
ENDCHAR
STARTCHAR 4F77
ENCODING 20343
SWIDTH 960 0
DWIDTH 8 0
BBX 7 7 0 -1
BITMAP
5E
52
DE
52
5E
54
5A
ENDCHAR
STARTCHAR 4F78
ENCODING 20344
SWIDTH 960 0
DWIDTH 8 0
BBX 7 7 0 -1
BITMAP
5E
48
DE
48
5E
52
5E
ENDCHAR
STARTCHAR 4F79
ENCODING 20345
SWIDTH 960 0
DWIDTH 8 0
BBX 7 7 0 -1
BITMAP
5C
E4
7E
54
5C
52
6E
ENDCHAR
STARTCHAR 4F7A
ENCODING 20346
SWIDTH 960 0
DWIDTH 8 0
BBX 7 7 0 -1
BITMAP
28
54
E2
5C
48
5C
7E
ENDCHAR
STARTCHAR 4F7B
ENCODING 20347
SWIDTH 960 0
DWIDTH 8 0
BBX 7 7 0 -1
BITMAP
54
76
D4
F6
54
54
66
ENDCHAR
STARTCHAR 4F7C
ENCODING 20348
SWIDTH 960 0
DWIDTH 8 0
BBX 7 7 0 -1
BITMAP
28
7E
D4
62
54
48
76
ENDCHAR
STARTCHAR 4F7D
ENCODING 20349
SWIDTH 960 0
DWIDTH 8 0
BBX 7 7 0 -1
BITMAP
48
6E
D2
44
54
64
4A
ENDCHAR
STARTCHAR 4F7E
ENCODING 20350
SWIDTH 960 0
DWIDTH 8 0
BBX 7 7 0 -1
BITMAP
2C
52
CC
52
5E
52
56
ENDCHAR
STARTCHAR 4F7F
ENCODING 20351
SWIDTH 960 0
DWIDTH 8 0
BBX 7 7 0 -1
BITMAP
28
7E
DC
48
58
48
76
ENDCHAR
STARTCHAR 4F80
ENCODING 20352
SWIDTH 960 0
DWIDTH 8 0
BBX 7 7 0 -1
BITMAP
7A
56
D6
7E
56
52
56
ENDCHAR
STARTCHAR 4F81
ENCODING 20353
SWIDTH 960 0
DWIDTH 8 0
BBX 7 7 0 -1
BITMAP
54
5E
C4
7E
4C
54
56
ENDCHAR
STARTCHAR 4F82
ENCODING 20354
SWIDTH 960 0
DWIDTH 8 0
BBX 7 7 0 -1
BITMAP
48
BE
A4
B8
AC
BA
AE
ENDCHAR
STARTCHAR 4F83
ENCODING 20355
SWIDTH 960 0
DWIDTH 8 0
BBX 7 7 0 -1
BITMAP
3E
52
DE
40
5A
5A
6A
ENDCHAR
STARTCHAR 4F84
ENCODING 20356
SWIDTH 960 0
DWIDTH 8 0
BBX 7 7 0 -1
BITMAP
3E
54
FA
48
5C
48
7E
ENDCHAR
STARTCHAR 4F85
ENCODING 20357
SWIDTH 960 0
DWIDTH 8 0
BBX 7 7 0 -1
BITMAP
48
7E
D0
6A
54
48
76
ENDCHAR
STARTCHAR 4F86
ENCODING 20358
SWIDTH 960 0
DWIDTH 8 0
BBX 7 7 0 -1
BITMAP
10
FE
54
54
BA
38
D6
ENDCHAR
STARTCHAR 4F87
ENCODING 20359
SWIDTH 960 0
DWIDTH 8 0
BBX 7 7 0 -1
BITMAP
48
7E
D4
68
7E
4A
54
ENDCHAR
STARTCHAR 4F88
ENCODING 20360
SWIDTH 960 0
DWIDTH 8 0
BBX 7 7 0 -1
BITMAP
2C
54
C8
76
4A
44
58
ENDCHAR
STARTCHAR 4F89
ENCODING 20361
SWIDTH 960 0
DWIDTH 8 0
BBX 7 7 0 -1
BITMAP
48
7E
D4
62
5C
4E
42
ENDCHAR
STARTCHAR 4F8A
ENCODING 20362
SWIDTH 960 0
DWIDTH 8 0
BBX 7 7 0 -1
BITMAP
48
6A
C8
7E
54
54
66
ENDCHAR
STARTCHAR 4F8B
ENCODING 20363
SWIDTH 960 0
DWIDTH 8 0
BBX 7 7 0 -1
BITMAP
3A
56
DE
6E
5A
52
66
ENDCHAR
STARTCHAR 4F8C
ENCODING 20364
SWIDTH 960 0
DWIDTH 8 0
BBX 7 7 0 -1
BITMAP
38
D6
38
08
FE
24
7A
ENDCHAR
STARTCHAR 4F8D
ENCODING 20365
SWIDTH 960 0
DWIDTH 8 0
BBX 7 7 0 -1
BITMAP
28
5C
C8
7E
44
7E
54
ENDCHAR
STARTCHAR 4F8E
ENCODING 20366
SWIDTH 960 0
DWIDTH 8 0
BBX 7 7 0 -1
BITMAP
48
6A
C8
7E
5C
6A
48
ENDCHAR
STARTCHAR 4F8F
ENCODING 20367
SWIDTH 960 0
DWIDTH 8 0
BBX 7 7 0 -1
BITMAP
38
5C
E8
7E
48
5C
6A
ENDCHAR
STARTCHAR 4F90
ENCODING 20368
SWIDTH 960 0
DWIDTH 8 0
BBX 7 7 0 -1
BITMAP
48
5C
D4
54
54
7E
40
ENDCHAR
STARTCHAR 4F91
ENCODING 20369
SWIDTH 960 0
DWIDTH 8 0
BBX 7 7 0 -1
BITMAP
28
5E
C8
4E
5A
4E
4A
ENDCHAR
STARTCHAR 4F92
ENCODING 20370
SWIDTH 960 0
DWIDTH 8 0
BBX 7 7 0 -1
BITMAP
48
7E
EA
7E
54
48
54
ENDCHAR
STARTCHAR 4F93
ENCODING 20371
SWIDTH 960 0
DWIDTH 8 0
BBX 7 7 0 -1
BITMAP
48
5E
CA
5E
48
5E
48
ENDCHAR
STARTCHAR 4F94
ENCODING 20372
SWIDTH 960 0
DWIDTH 8 0
BBX 7 7 0 -1
BITMAP
44
CA
54
5E
64
5E
44
ENDCHAR
STARTCHAR 4F95
ENCODING 20373
SWIDTH 960 0
DWIDTH 8 0
BBX 7 7 0 -1
BITMAP
5E
48
DE
56
56
56
52
ENDCHAR
STARTCHAR 4F96
ENCODING 20374
SWIDTH 960 0
DWIDTH 8 0
BBX 7 7 0 -1
BITMAP
10
28
DE
00
FE
FE
AA
ENDCHAR
STARTCHAR 4F97
ENCODING 20375
SWIDTH 960 0
DWIDTH 8 0
BBX 7 7 0 -1
BITMAP
3E
62
FE
62
7A
6A
7A
ENDCHAR
STARTCHAR 4F98
ENCODING 20376
SWIDTH 960 0
DWIDTH 8 0
BBX 7 7 0 -1
BITMAP
28
7E
E6
58
7E
48
4E
ENDCHAR
STARTCHAR 4F99
ENCODING 20377
SWIDTH 960 0
DWIDTH 8 0
BBX 7 7 0 -1
BITMAP
4A
7E
C8
78
54
7C
46
ENDCHAR
STARTCHAR 4F9A
ENCODING 20378
SWIDTH 960 0
DWIDTH 8 0
BBX 7 7 0 -1
BITMAP
50
BE
EA
BA
AA
BA
86
ENDCHAR
STARTCHAR 4F9B
ENCODING 20379
SWIDTH 960 0
DWIDTH 8 0
BBX 7 7 0 -1
BITMAP
54
7E
D4
D4
7E
40
62
ENDCHAR
STARTCHAR 4F9C
ENCODING 20380
SWIDTH 960 0
DWIDTH 8 0
BBX 7 7 0 -1
BITMAP
48
5C
D4
7E
54
5C
64
ENDCHAR
STARTCHAR 4F9D
ENCODING 20381
SWIDTH 960 0
DWIDTH 8 0
BBX 7 7 0 -1
BITMAP
28
7E
C8
5A
74
54
5A
ENDCHAR
STARTCHAR 4F9E
ENCODING 20382
SWIDTH 960 0
DWIDTH 8 0
BBX 7 7 0 -1
BITMAP
50
56
FA
6A
6A
56
68
ENDCHAR
STARTCHAR 4F9F
ENCODING 20383
SWIDTH 960 0
DWIDTH 8 0
BBX 7 7 0 -1
BITMAP
48
7E
D4
72
54
5E
54
ENDCHAR
STARTCHAR 4FA0
ENCODING 20384
SWIDTH 960 0
DWIDTH 8 0
BBX 7 7 0 -1
BITMAP
28
7E
C8
6A
7E
48
76
ENDCHAR
STARTCHAR 4FA1
ENCODING 20385
SWIDTH 960 0
DWIDTH 8 0
BBX 7 7 0 -1
BITMAP
3E
48
DE
5A
5A
5A
5E
ENDCHAR
STARTCHAR 4FA2
ENCODING 20386
SWIDTH 960 0
DWIDTH 8 0
BBX 7 7 0 -1
BITMAP
5C
48
DC
5C
7E
54
54
ENDCHAR
STARTCHAR 4FA3
ENCODING 20387
SWIDTH 960 0
DWIDTH 8 0
BBX 7 7 0 -1
BITMAP
3E
52
DE
40
5E
52
5E
ENDCHAR
STARTCHAR 4FA4
ENCODING 20388
SWIDTH 960 0
DWIDTH 8 0
BBX 7 7 0 -1
BITMAP
4A
4C
FE
48
5E
62
4E
ENDCHAR
STARTCHAR 4FA5
ENCODING 20389
SWIDTH 960 0
DWIDTH 8 0
BBX 7 7 0 -1
BITMAP
50
7E
C8
54
7E
54
66
ENDCHAR
STARTCHAR 4FA6
ENCODING 20390
SWIDTH 960 0
DWIDTH 8 0
BBX 7 7 0 -1
BITMAP
4E
88
BE
A2
AA
88
B6
ENDCHAR
STARTCHAR 4FA7
ENCODING 20391
SWIDTH 960 0
DWIDTH 8 0
BBX 7 7 0 -1
BITMAP
42
BA
AA
AA
AA
92
AA
ENDCHAR
STARTCHAR 4FA8
ENCODING 20392
SWIDTH 960 0
DWIDTH 8 0
BBX 7 7 0 -1
BITMAP
5C
48
FE
54
76
54
54
ENDCHAR
STARTCHAR 4FA9
ENCODING 20393
SWIDTH 960 0
DWIDTH 8 0
BBX 7 7 0 -1
BITMAP
48
76
DC
40
7E
54
7A
ENDCHAR
STARTCHAR 4FAA
ENCODING 20394
SWIDTH 960 0
DWIDTH 8 0
BBX 7 7 0 -1
BITMAP
48
7E
D4
48
76
54
54
ENDCHAR
STARTCHAR 4FAB
ENCODING 20395
SWIDTH 960 0
DWIDTH 8 0
BBX 7 7 0 -1
BITMAP
28
7E
D0
5C
7E
54
7A
ENDCHAR
STARTCHAR 4FAC
ENCODING 20396
SWIDTH 960 0
DWIDTH 8 0
BBX 7 7 0 -1
BITMAP
48
7E
EA
50
7A
54
5A
ENDCHAR
STARTCHAR 4FAD
ENCODING 20397
SWIDTH 960 0
DWIDTH 8 0
BBX 7 7 0 -1
BITMAP
3E
52
DE
54
6A
40
4C
ENDCHAR
STARTCHAR 4FAE
ENCODING 20398
SWIDTH 960 0
DWIDTH 8 0
BBX 7 7 0 -1
BITMAP
30
5E
CC
7E
54
5E
44
ENDCHAR
STARTCHAR 4FAF
ENCODING 20399
SWIDTH 960 0
DWIDTH 8 0
BBX 7 7 0 -1
BITMAP
2C
44
DE
48
5E
44
5A
ENDCHAR
STARTCHAR 4FB0
ENCODING 20400
SWIDTH 960 0
DWIDTH 8 0
BBX 7 7 0 -1
BITMAP
5C
46
DC
48
5E
6A
4E
ENDCHAR
STARTCHAR 4FB1
ENCODING 20401
SWIDTH 960 0
DWIDTH 8 0
BBX 7 7 0 -1
BITMAP
5C
54
FE
48
5C
48
7E
ENDCHAR
STARTCHAR 4FB2
ENCODING 20402
SWIDTH 960 0
DWIDTH 8 0
BBX 7 7 0 -1
BITMAP
5E
50
DE
50
5A
54
6A
ENDCHAR
STARTCHAR 4FB3
ENCODING 20403
SWIDTH 960 0
DWIDTH 8 0
BBX 7 7 0 -1
BITMAP
54
54
EA
48
5C
48
7E
ENDCHAR
STARTCHAR 4FB4
ENCODING 20404
SWIDTH 960 0
DWIDTH 8 0
BBX 7 7 0 -1
BITMAP
38
C6
7A
56
F2
56
FA
ENDCHAR
STARTCHAR 4FB5
ENCODING 20405
SWIDTH 960 0
DWIDTH 8 0
BBX 7 7 0 -1
BITMAP
3C
44
DC
7E
76
48
76
ENDCHAR
STARTCHAR 4FB6
ENCODING 20406
SWIDTH 960 0
DWIDTH 8 0
BBX 7 7 0 -1
BITMAP
3E
52
DE
48
5E
52
5E
ENDCHAR
STARTCHAR 4FB7
ENCODING 20407
SWIDTH 960 0
DWIDTH 8 0
BBX 7 7 0 -1
BITMAP
3C
54
DE
52
5A
5A
66
ENDCHAR
STARTCHAR 4FB8
ENCODING 20408
SWIDTH 960 0
DWIDTH 8 0
BBX 7 7 0 -1
BITMAP
40
7E
D4
5C
40
54
7E
ENDCHAR
STARTCHAR 4FB9
ENCODING 20409
SWIDTH 960 0
DWIDTH 8 0
BBX 7 7 0 -1
BITMAP
4E
74
DE
54
6E
50
6E
ENDCHAR
STARTCHAR 4FBA
ENCODING 20410
SWIDTH 960 0
DWIDTH 8 0
BBX 7 7 0 -1
BITMAP
48
6A
FE
54
6A
5C
44
ENDCHAR
STARTCHAR 4FBB
ENCODING 20411
SWIDTH 960 0
DWIDTH 8 0
BBX 7 7 0 -1
BITMAP
54
7E
E2
7E
54
54
66
ENDCHAR
STARTCHAR 4FBC
ENCODING 20412
SWIDTH 960 0
DWIDTH 8 0
BBX 7 7 0 -1
BITMAP
5C
48
FE
6A
44
7E
48
ENDCHAR
STARTCHAR 4FBD
ENCODING 20413
SWIDTH 960 0
DWIDTH 8 0
BBX 7 7 0 -1
BITMAP
5E
5A
DE
48
5E
4A
56
ENDCHAR
STARTCHAR 4FBE
ENCODING 20414
SWIDTH 960 0
DWIDTH 8 0
BBX 7 7 0 -1
BITMAP
4A
5C
C8
76
48
7E
58
ENDCHAR
STARTCHAR 4FBF
ENCODING 20415
SWIDTH 960 0
DWIDTH 8 0
BBX 7 7 0 -1
BITMAP
3E
5C
DC
48
58
48
76
ENDCHAR
STARTCHAR 4FC0
ENCODING 20416
SWIDTH 960 0
DWIDTH 8 0
BBX 7 7 0 -1
BITMAP
7E
6A
D0
7E
54
48
76
ENDCHAR
STARTCHAR 4FC1
ENCODING 20417
SWIDTH 960 0
DWIDTH 8 0
BBX 7 7 0 -1
BITMAP
5C
74
FE
4A
7E
48
76
ENDCHAR
STARTCHAR 4FC2
ENCODING 20418
SWIDTH 960 0
DWIDTH 8 0
BBX 7 7 0 -1
BITMAP
3E
48
D0
4A
7E
48
6A
ENDCHAR
STARTCHAR 4FC3
ENCODING 20419
SWIDTH 960 0
DWIDTH 8 0
BBX 7 7 0 -1
BITMAP
3E
52
DE
44
56
54
6E
ENDCHAR
STARTCHAR 4FC4
ENCODING 20420
SWIDTH 960 0
DWIDTH 8 0
BBX 7 7 0 -1
BITMAP
4E
74
FE
D4
56
7C
52
ENDCHAR
STARTCHAR 4FC5
ENCODING 20421
SWIDTH 960 0
DWIDTH 8 0
BBX 7 7 0 -1
BITMAP
4A
C8
7E
48
6A
5C
6A
ENDCHAR
STARTCHAR 4FC6
ENCODING 20422
SWIDTH 960 0
DWIDTH 8 0
BBX 7 7 0 -1
BITMAP
5C
62
DC
48
7E
48
6A
ENDCHAR
STARTCHAR 4FC7
ENCODING 20423
SWIDTH 960 0
DWIDTH 8 0
BBX 7 7 0 -1
BITMAP
A8
9E
B4
9E
B4
9E
A0
ENDCHAR
STARTCHAR 4FC8
ENCODING 20424
SWIDTH 960 0
DWIDTH 8 0
BBX 7 7 0 -1
BITMAP
54
DE
44
5E
40
5E
5E
ENDCHAR
STARTCHAR 4FC9
ENCODING 20425
SWIDTH 960 0
DWIDTH 8 0
BBX 7 7 0 -1
BITMAP
7E
48
DE
4A
7E
54
5C
ENDCHAR
STARTCHAR 4FCA
ENCODING 20426
SWIDTH 960 0
DWIDTH 8 0
BBX 7 7 0 -1
BITMAP
32
7E
D4
66
5C
68
56
ENDCHAR
STARTCHAR 4FCB
ENCODING 20427
SWIDTH 960 0
DWIDTH 8 0
BBX 7 7 0 -1
BITMAP
4E
EA
5E
76
DE
50
DE
ENDCHAR
STARTCHAR 4FCC
ENCODING 20428
SWIDTH 960 0
DWIDTH 8 0
BBX 7 7 0 -1
BITMAP
4A
BE
88
BE
AA
BE
AA
ENDCHAR
STARTCHAR 4FCD
ENCODING 20429
SWIDTH 960 0
DWIDTH 8 0
BBX 7 7 0 -1
BITMAP
28
5E
D2
5C
5A
54
5A
ENDCHAR
STARTCHAR 4FCE
ENCODING 20430
SWIDTH 960 0
DWIDTH 8 0
BBX 7 7 0 -1
BITMAP
5C
54
BC
14
5C
54
BE
ENDCHAR
STARTCHAR 4FCF
ENCODING 20431
SWIDTH 960 0
DWIDTH 8 0
BBX 7 7 0 -1
BITMAP
3A
4C
DE
52
5E
52
56
ENDCHAR
STARTCHAR 4FD0
ENCODING 20432
SWIDTH 960 0
DWIDTH 8 0
BBX 7 7 0 -1
BITMAP
3A
56
FE
56
7A
72
56
ENDCHAR
STARTCHAR 4FD1
ENCODING 20433
SWIDTH 960 0
DWIDTH 8 0
BBX 7 7 0 -1
BITMAP
3E
44
FE
6A
7E
6A
6A
ENDCHAR
STARTCHAR 4FD2
ENCODING 20434
SWIDTH 960 0
DWIDTH 8 0
BBX 7 7 0 -1
BITMAP
48
7E
E2
5C
40
7E
54
ENDCHAR
STARTCHAR 4FD3
ENCODING 20435
SWIDTH 960 0
DWIDTH 8 0
BBX 7 7 0 -1
BITMAP
7E
D4
68
54
7E
48
7E
ENDCHAR
STARTCHAR 4FD4
ENCODING 20436
SWIDTH 960 0
DWIDTH 8 0
BBX 7 7 0 -1
BITMAP
3E
52
DE
52
5E
4C
56
ENDCHAR
STARTCHAR 4FD5
ENCODING 20437
SWIDTH 960 0
DWIDTH 8 0
BBX 7 7 0 -1
BITMAP
48
7E
EA
5C
48
5C
6A
ENDCHAR
STARTCHAR 4FD6
ENCODING 20438
SWIDTH 960 0
DWIDTH 8 0
BBX 7 7 0 -1
BITMAP
5C
48
DC
6A
5C
54
5C
ENDCHAR
STARTCHAR 4FD7
ENCODING 20439
SWIDTH 960 0
DWIDTH 8 0
BBX 7 7 0 -1
BITMAP
54
62
C8
D4
62
5C
5C
ENDCHAR
STARTCHAR 4FD8
ENCODING 20440
SWIDTH 960 0
DWIDTH 8 0
BBX 7 7 0 -1
BITMAP
3C
6A
C0
5C
44
7E
48
ENDCHAR
STARTCHAR 4FD9
ENCODING 20441
SWIDTH 960 0
DWIDTH 8 0
BBX 7 7 0 -1
BITMAP
54
48
D4
7E
6A
6E
48
ENDCHAR
STARTCHAR 4FDA
ENCODING 20442
SWIDTH 960 0
DWIDTH 8 0
BBX 7 7 0 -1
BITMAP
3E
6A
FE
6A
7E
48
7E
ENDCHAR
STARTCHAR 4FDB
ENCODING 20443
SWIDTH 960 0
DWIDTH 8 0
BBX 7 7 0 -1
BITMAP
2C
54
FE
6A
7E
54
66
ENDCHAR
STARTCHAR 4FDC
ENCODING 20444
SWIDTH 960 0
DWIDTH 8 0
BBX 7 7 0 -1
BITMAP
48
5C
DC
7E
50
5C
44
ENDCHAR
STARTCHAR 4FDD
ENCODING 20445
SWIDTH 960 0
DWIDTH 8 0
BBX 7 7 0 -1
BITMAP
3C
54
DC
48
7E
5C
6A
ENDCHAR
STARTCHAR 4FDE
ENCODING 20446
SWIDTH 960 0
DWIDTH 8 0
BBX 7 7 0 -1
BITMAP
38
44
BA
60
AA
EA
A6
ENDCHAR
STARTCHAR 4FDF
ENCODING 20447
SWIDTH 960 0
DWIDTH 8 0
BBX 7 7 0 -1
BITMAP
28
52
DE
48
5E
44
5A
ENDCHAR
STARTCHAR 4FE0
ENCODING 20448
SWIDTH 960 0
DWIDTH 8 0
BBX 7 7 0 -1
BITMAP
28
7E
DC
5C
6A
48
76
ENDCHAR
STARTCHAR 4FE1
ENCODING 20449
SWIDTH 960 0
DWIDTH 8 0
BBX 7 7 0 -1
BITMAP
2C
5E
C0
4C
40
5E
5E
ENDCHAR
STARTCHAR 4FE2
ENCODING 20450
SWIDTH 960 0
DWIDTH 8 0
BBX 7 7 0 -1
BITMAP
50
7E
C8
76
58
44
58
ENDCHAR
STARTCHAR 4FE3
ENCODING 20451
SWIDTH 960 0
DWIDTH 8 0
BBX 7 7 0 -1
BITMAP
3C
54
FE
48
5C
48
76
ENDCHAR
STARTCHAR 4FE4
ENCODING 20452
SWIDTH 960 0
DWIDTH 8 0
BBX 7 7 0 -1
BITMAP
54
7E
CA
FE
68
5E
6A
ENDCHAR
STARTCHAR 4FE5
ENCODING 20453
SWIDTH 960 0
DWIDTH 8 0
BBX 7 7 0 -1
BITMAP
28
7E
DC
5C
5C
7E
48
ENDCHAR
STARTCHAR 4FE6
ENCODING 20454
SWIDTH 960 0
DWIDTH 8 0
BBX 7 7 0 -1
BITMAP
48
7E
C8
7E
54
6E
54
ENDCHAR
STARTCHAR 4FE7
ENCODING 20455
SWIDTH 960 0
DWIDTH 8 0
BBX 7 7 0 -1
BITMAP
48
7E
C8
5C
40
6A
5C
ENDCHAR
STARTCHAR 4FE8
ENCODING 20456
SWIDTH 960 0
DWIDTH 8 0
BBX 7 7 0 -1
BITMAP
7E
94
B6
94
BE
A0
A0
ENDCHAR
STARTCHAR 4FE9
ENCODING 20457
SWIDTH 960 0
DWIDTH 8 0
BBX 7 7 0 -1
BITMAP
5C
48
FE
6A
7E
7E
62
ENDCHAR
STARTCHAR 4FEA
ENCODING 20458
SWIDTH 960 0
DWIDTH 8 0
BBX 7 7 0 -1
BITMAP
5E
40
BE
AA
BE
AA
AA
ENDCHAR
STARTCHAR 4FEB
ENCODING 20459
SWIDTH 960 0
DWIDTH 8 0
BBX 7 7 0 -1
BITMAP
48
7E
EA
5C
7E
5C
6A
ENDCHAR
STARTCHAR 4FEC
ENCODING 20460
SWIDTH 960 0
DWIDTH 8 0
BBX 7 7 0 -1
BITMAP
3A
52
D4
7C
54
7A
5E
ENDCHAR
STARTCHAR 4FED
ENCODING 20461
SWIDTH 960 0
DWIDTH 8 0
BBX 7 7 0 -1
BITMAP
5C
62
DC
40
6A
54
7E
ENDCHAR
STARTCHAR 4FEE
ENCODING 20462
SWIDTH 960 0
DWIDTH 8 0
BBX 7 7 0 -1
BITMAP
28
6E
F4
6A
64
62
4C
ENDCHAR
STARTCHAR 4FEF
ENCODING 20463
SWIDTH 960 0
DWIDTH 8 0
BBX 7 7 0 -1
BITMAP
28
7E
E0
6A
76
72
56
ENDCHAR
STARTCHAR 4FF0
ENCODING 20464
SWIDTH 960 0
DWIDTH 8 0
BBX 7 7 0 -1
BITMAP
78
D6
7E
56
7E
76
50
ENDCHAR
STARTCHAR 4FF1
ENCODING 20465
SWIDTH 960 0
DWIDTH 8 0
BBX 7 7 0 -1
BITMAP
3C
54
DC
54
7E
40
54
ENDCHAR
STARTCHAR 4FF2
ENCODING 20466
SWIDTH 960 0
DWIDTH 8 0
BBX 7 7 0 -1
BITMAP
54
7E
D6
6E
56
6E
4A
ENDCHAR
STARTCHAR 4FF3
ENCODING 20467
SWIDTH 960 0
DWIDTH 8 0
BBX 7 7 0 -1
BITMAP
54
76
D4
F6
54
76
54
ENDCHAR
STARTCHAR 4FF4
ENCODING 20468
SWIDTH 960 0
DWIDTH 8 0
BBX 7 7 0 -1
BITMAP
54
4A
D6
40
54
4A
56
ENDCHAR
STARTCHAR 4FF5
ENCODING 20469
SWIDTH 960 0
DWIDTH 8 0
BBX 7 7 0 -1
BITMAP
28
7E
C8
7C
5A
74
5A
ENDCHAR
STARTCHAR 4FF6
ENCODING 20470
SWIDTH 960 0
DWIDTH 8 0
BBX 7 7 0 -1
BITMAP
36
5A
D2
7A
54
74
5A
ENDCHAR
STARTCHAR 4FF7
ENCODING 20471
SWIDTH 960 0
DWIDTH 8 0
BBX 7 7 0 -1
BITMAP
7E
AA
BA
AE
B8
AA
DE
ENDCHAR
STARTCHAR 4FF8
ENCODING 20472
SWIDTH 960 0
DWIDTH 8 0
BBX 7 7 0 -1
BITMAP
28
5C
FE
54
6A
5C
48
ENDCHAR
STARTCHAR 4FF9
ENCODING 20473
SWIDTH 960 0
DWIDTH 8 0
BBX 7 7 0 -1
BITMAP
7E
54
F6
62
76
54
7E
ENDCHAR
STARTCHAR 4FFA
ENCODING 20474
SWIDTH 960 0
DWIDTH 8 0
BBX 7 7 0 -1
BITMAP
28
7E
D4
6A
5C
5C
46
ENDCHAR
STARTCHAR 4FFB
ENCODING 20475
SWIDTH 960 0
DWIDTH 8 0
BBX 7 7 0 -1
BITMAP
5E
74
C8
76
5C
5C
5C
ENDCHAR
STARTCHAR 4FFC
ENCODING 20476
SWIDTH 960 0
DWIDTH 8 0
BBX 7 7 0 -1
BITMAP
48
7E
D4
7E
54
5C
54
ENDCHAR
STARTCHAR 4FFD
ENCODING 20477
SWIDTH 960 0
DWIDTH 8 0
BBX 7 7 0 -1
BITMAP
48
7E
CA
7E
54
54
5A
ENDCHAR
STARTCHAR 4FFE
ENCODING 20478
SWIDTH 960 0
DWIDTH 8 0
BBX 7 7 0 -1
BITMAP
28
7E
EA
7E
54
7E
44
ENDCHAR
STARTCHAR 4FFF
ENCODING 20479
SWIDTH 960 0
DWIDTH 8 0
BBX 7 7 0 -1
BITMAP
44
5E
D4
56
50
54
6A
ENDCHAR
STARTCHAR 5000
ENCODING 20480
SWIDTH 960 0
DWIDTH 8 0
BBX 7 7 0 -1
BITMAP
2E
48
CE
48
7E
54
5A
ENDCHAR
STARTCHAR 5001
ENCODING 20481
SWIDTH 960 0
DWIDTH 8 0
BBX 7 7 0 -1
BITMAP
60
FE
56
7E
56
56
68
ENDCHAR
STARTCHAR 5002
ENCODING 20482
SWIDTH 960 0
DWIDTH 8 0
BBX 7 7 0 -1
BITMAP
54
40
FE
54
7E
54
54
ENDCHAR
STARTCHAR 5003
ENCODING 20483
SWIDTH 960 0
DWIDTH 8 0
BBX 7 7 0 -1
BITMAP
54
6E
D4
6E
5C
54
5C
ENDCHAR
STARTCHAR 5004
ENCODING 20484
SWIDTH 960 0
DWIDTH 8 0
BBX 7 7 0 -1
BITMAP
54
48
D4
48
76
5C
54
ENDCHAR
STARTCHAR 5005
ENCODING 20485
SWIDTH 960 0
DWIDTH 8 0
BBX 7 7 0 -1
BITMAP
28
7E
D4
54
6A
7E
48
ENDCHAR
STARTCHAR 5006
ENCODING 20486
SWIDTH 960 0
DWIDTH 8 0
BBX 7 7 0 -1
BITMAP
3E
48
FE
6A
7E
7E
6A
ENDCHAR
STARTCHAR 5007
ENCODING 20487
SWIDTH 960 0
DWIDTH 8 0
BBX 7 7 0 -1
BITMAP
48
7E
E2
5E
6A
58
6E
ENDCHAR
STARTCHAR 5008
ENCODING 20488
SWIDTH 960 0
DWIDTH 8 0
BBX 7 7 0 -1
BITMAP
28
7E
DC
5C
6A
5C
6A
ENDCHAR
STARTCHAR 5009
ENCODING 20489
SWIDTH 960 0
DWIDTH 8 0
BBX 7 7 0 -1
BITMAP
10
28
FE
38
20
5C
9C
ENDCHAR
STARTCHAR 500A
ENCODING 20490
SWIDTH 960 0
DWIDTH 8 0
BBX 7 7 0 -1
BITMAP
54
6A
D4
5C
40
6A
5C
ENDCHAR
STARTCHAR 500B
ENCODING 20491
SWIDTH 960 0
DWIDTH 8 0
BBX 7 7 0 -1
BITMAP
3E
6A
FE
6A
76
7E
7E
ENDCHAR
STARTCHAR 500C
ENCODING 20492
SWIDTH 960 0
DWIDTH 8 0
BBX 7 7 0 -1
BITMAP
28
7E
E2
5C
5E
52
5E
ENDCHAR
STARTCHAR 500D
ENCODING 20493
SWIDTH 960 0
DWIDTH 8 0
BBX 7 7 0 -1
BITMAP
28
7E
D4
7E
40
5C
5C
ENDCHAR
STARTCHAR 500E
ENCODING 20494
SWIDTH 960 0
DWIDTH 8 0
BBX 7 7 0 -1
BITMAP
48
5C
DC
5C
7E
40
54
ENDCHAR
STARTCHAR 500F
ENCODING 20495
SWIDTH 960 0
DWIDTH 8 0
BBX 7 7 0 -1
BITMAP
2C
74
E8
74
7E
48
76
ENDCHAR
STARTCHAR 5010
ENCODING 20496
SWIDTH 960 0
DWIDTH 8 0
BBX 7 7 0 -1
BITMAP
50
7E
C8
76
6A
48
76
ENDCHAR
ENDFONT
